{
.appVersion = "1342";
copyright = "©2010 by Robert E. Leuschke. All rights reserved.";
customParameters = (
{
name = description;
value = "© 2010 by Robert E. Leuschke. All rights reserved.";
},
{
name = trademark;
value = "CorinthiaProfessional is a trademark of Robert E. Leuschke.";
},
{
name = licenseURL;
value = "http://www.typesetit.com/license.html";
},
{
name = license;

glyphs = (
{
color = 3;
glyphname = A;
lastChange = "2021-04-20 18:52:15 +0000";
layers = (
{
hints = (
{
horizontal = 1;
place = "{-55, 20}";
type = Stem;
},
{
horizontal = 1;
place = "{581, -20}";
target = down;
type = TopGhost;
},
{
place = "{14, 27}";
type = Stem;
},
{
place = "{593, 28}";
type = Stem;
}
);
layerId = "57DEED6F-9A00-47D0-BD9B-6FE09716AB2D";
paths = (
{
closed = 1;
nodes = (
"802 578 OFFCURVE",
"799 581 OFFCURVE",
"793 581 CURVE SMOOTH",
"788 581 OFFCURVE",
"777 576 OFFCURVE",
"762 567 CURVE SMOOTH",
"747 558 OFFCURVE",
"737 551 OFFCURVE",
"735 546 CURVE SMOOTH",
"716 508 OFFCURVE",
"703 479 OFFCURVE",
"695 458 CURVE SMOOTH",
"666 384 OFFCURVE",
"642 305 OFFCURVE",
"623 220 CURVE",
"591 227 OFFCURVE",
"558 232 OFFCURVE",
"525 234 CURVE",
"552 269 OFFCURVE",
"588 316 OFFCURVE",
"631 374 CURVE SMOOTH",
"693 457 LINE",
"694 460 OFFCURVE",
"695 462 OFFCURVE",
"695 464 CURVE SMOOTH",
"695 472 OFFCURVE",
"691 476 OFFCURVE",
"682 476 CURVE SMOOTH",
"679 476 OFFCURVE",
"676 474 OFFCURVE",
"673 471 CURVE",
"617 396 LINE SMOOTH",
"574 339 OFFCURVE",
"529 286 OFFCURVE",
"486 235 CURVE",
"340 236 OFFCURVE",
"234 226 OFFCURVE",
"167 208 CURVE SMOOTH",
"127 197 OFFCURVE",
"92 177 OFFCURVE",
"63 148 CURVE SMOOTH",
"30 115 OFFCURVE",
"14 80 OFFCURVE",
"14 41 CURVE SMOOTH",
"14 6 OFFCURVE",
"27 -19 OFFCURVE",
"53 -37 CURVE SMOOTH",
"75 -53 OFFCURVE",
"104 -61 OFFCURVE",
"140 -61 CURVE SMOOTH",
"194 -61 OFFCURVE",
"247 -43 OFFCURVE",
"298 -5 CURVE SMOOTH",
"327 16 OFFCURVE",
"368 56 OFFCURVE",
"421 113 CURVE SMOOTH",
"454 148 OFFCURVE",
"480 178 OFFCURVE",
"500 203 CURVE",
"545 202 OFFCURVE",
"584 200 OFFCURVE",
"618 195 CURVE",
"601 113 OFFCURVE",
"593 51 OFFCURVE",
"593 8 CURVE SMOOTH",
"593 -34 OFFCURVE",
"606 -55 OFFCURVE",
"631 -55 CURVE SMOOTH",
"640 -55 OFFCURVE",
"651 -51 OFFCURVE",
"664 -43 CURVE SMOOTH",
"677 -36 OFFCURVE",
"683 -28 OFFCURVE",
"683 -21 CURVE SMOOTH",
"683 -14 OFFCURVE",
"680 -10 OFFCURVE",
"674 -10 CURVE SMOOTH",
"672 -10 OFFCURVE",
"666 -14 OFFCURVE",
"655 -23 CURVE SMOOTH",
"645 -31 OFFCURVE",
"637 -35 OFFCURVE",
"631 -35 CURVE SMOOTH",
"624 -35 OFFCURVE",
"621 -24 OFFCURVE",
"621 -1 CURVE SMOOTH",
"621 46 OFFCURVE",
"631 109 OFFCURVE",
"650 189 CURVE",
"653 188 OFFCURVE",
"661 186 OFFCURVE",
"672 181 CURVE SMOOTH",
"683 177 OFFCURVE",
"689 175 OFFCURVE",
"690 175 CURVE SMOOTH",
"697 175 OFFCURVE",
"701 178 OFFCURVE",
"701 185 CURVE SMOOTH",
"701 193 OFFCURVE",
"686 202 OFFCURVE",
"656 211 CURVE",
"693 350 OFFCURVE",
"740 466 OFFCURVE",
"797 561 CURVE SMOOTH",
"800 566 OFFCURVE",
"802 570 OFFCURVE",
"802 572 CURVE SMOOTH"
);
},
{
closed = 1;
nodes = (
"458 203 LINE",
"437 178 OFFCURVE",
"416 156 OFFCURVE",
"396 136 CURVE SMOOTH",
"348 86 OFFCURVE",
"308 49 OFFCURVE",
"277 28 CURVE SMOOTH",
"228 -5 OFFCURVE",
"179 -22 OFFCURVE",
"128 -22 CURVE SMOOTH",
"104 -22 OFFCURVE",
"85 -17 OFFCURVE",
"69 -7 CURVE SMOOTH",
"51 5 OFFCURVE",
"41 21 OFFCURVE",
"41 43 CURVE SMOOTH",
"41 75 OFFCURVE",
"55 104 OFFCURVE",
"83 131 CURVE SMOOTH",
"108 154 OFFCURVE",
"137 171 OFFCURVE",
"170 180 CURVE SMOOTH",
"229 196 OFFCURVE",
"315 203 OFFCURVE",
"430 203 CURVE SMOOTH"
);
}
);
width = 750;
}
);
note = A;
unicode = 0041;
},
{
color = 3;
glyphname = Aacute;
lastChange = "2021-04-20 18:52:15 +0000";
layers = (
{
hints = (
{
horizontal = 1;
place = "{-55, 20}";
type = Stem;
},
{
horizontal = 1;
place = "{581, -20}";
target = down;
type = TopGhost;
},
{
horizontal = 1;
place = "{608, 20}";
type = Stem;
},
{
place = "{14, 27}";
type = Stem;
},
{
place = "{593, 28}";
type = Stem;
}
);
layerId = "57DEED6F-9A00-47D0-BD9B-6FE09716AB2D";
paths = (
{
closed = 1;
nodes = (
"802 578 OFFCURVE",
"799 581 OFFCURVE",
"793 581 CURVE SMOOTH",
"788 581 OFFCURVE",
"777 576 OFFCURVE",
"762 567 CURVE SMOOTH",
"747 558 OFFCURVE",
"737 551 OFFCURVE",
"735 546 CURVE SMOOTH",
"716 508 OFFCURVE",
"703 479 OFFCURVE",
"695 458 CURVE SMOOTH",
"666 384 OFFCURVE",
"642 305 OFFCURVE",
"623 220 CURVE",
"591 227 OFFCURVE",
"558 232 OFFCURVE",
"525 234 CURVE",
"552 269 OFFCURVE",
"588 316 OFFCURVE",
"631 374 CURVE SMOOTH",
"693 457 LINE",
"694 460 OFFCURVE",
"695 462 OFFCURVE",
"695 464 CURVE SMOOTH",
"695 472 OFFCURVE",
"691 476 OFFCURVE",
"682 476 CURVE SMOOTH",
"679 476 OFFCURVE",
"676 474 OFFCURVE",
"673 471 CURVE",
"617 396 LINE SMOOTH",
"574 339 OFFCURVE",
"529 286 OFFCURVE",
"486 235 CURVE",
"340 236 OFFCURVE",
"234 226 OFFCURVE",
"167 208 CURVE SMOOTH",
"127 197 OFFCURVE",
"92 177 OFFCURVE",
"63 148 CURVE SMOOTH",
"30 115 OFFCURVE",
"14 80 OFFCURVE",
"14 41 CURVE SMOOTH",
"14 6 OFFCURVE",
"27 -19 OFFCURVE",
"53 -37 CURVE SMOOTH",
"75 -53 OFFCURVE",
"104 -61 OFFCURVE",
"140 -61 CURVE SMOOTH",
"194 -61 OFFCURVE",
"247 -43 OFFCURVE",
"298 -5 CURVE SMOOTH",
"327 16 OFFCURVE",
"368 56 OFFCURVE",
"421 113 CURVE SMOOTH",
"454 148 OFFCURVE",
"480 178 OFFCURVE",
"500 203 CURVE",
"545 202 OFFCURVE",
"584 200 OFFCURVE",
"618 195 CURVE",
"601 113 OFFCURVE",
"593 51 OFFCURVE",
"593 8 CURVE SMOOTH",
"593 -34 OFFCURVE",
"606 -55 OFFCURVE",
"631 -55 CURVE SMOOTH",
"640 -55 OFFCURVE",
"651 -51 OFFCURVE",
"664 -43 CURVE SMOOTH",
"677 -36 OFFCURVE",
"683 -28 OFFCURVE",
"683 -21 CURVE SMOOTH",
"683 -14 OFFCURVE",
"680 -10 OFFCURVE",
"674 -10 CURVE SMOOTH",
"672 -10 OFFCURVE",
"666 -14 OFFCURVE",
"655 -23 CURVE SMOOTH",
"645 -31 OFFCURVE",
"637 -35 OFFCURVE",
"631 -35 CURVE SMOOTH",
"624 -35 OFFCURVE",
"621 -24 OFFCURVE",
"621 -1 CURVE SMOOTH",
"621 46 OFFCURVE",
"631 109 OFFCURVE",
"650 189 CURVE",
"653 188 OFFCURVE",
"661 186 OFFCURVE",
"672 181 CURVE SMOOTH",
"683 177 OFFCURVE",
"689 175 OFFCURVE",
"690 175 CURVE SMOOTH",
"697 175 OFFCURVE",
"701 178 OFFCURVE",
"701 185 CURVE SMOOTH",
"701 193 OFFCURVE",
"686 202 OFFCURVE",
"656 211 CURVE",
"693 350 OFFCURVE",
"740 466 OFFCURVE",
"797 561 CURVE SMOOTH",
"800 566 OFFCURVE",
"802 570 OFFCURVE",
"802 572 CURVE SMOOTH"
);
},
{
closed = 1;
nodes = (
"458 203 LINE",
"437 178 OFFCURVE",
"416 156 OFFCURVE",
"396 136 CURVE SMOOTH",
"348 86 OFFCURVE",
"308 49 OFFCURVE",
"277 28 CURVE SMOOTH",
"228 -5 OFFCURVE",
"179 -22 OFFCURVE",
"128 -22 CURVE SMOOTH",
"104 -22 OFFCURVE",
"85 -17 OFFCURVE",
"69 -7 CURVE SMOOTH",
"51 5 OFFCURVE",
"41 21 OFFCURVE",
"41 43 CURVE SMOOTH",
"41 75 OFFCURVE",
"55 104 OFFCURVE",
"83 131 CURVE SMOOTH",
"108 154 OFFCURVE",
"137 171 OFFCURVE",
"170 180 CURVE SMOOTH",
"229 196 OFFCURVE",
"315 203 OFFCURVE",
"430 203 CURVE SMOOTH"
);
},
{
closed = 1;
nodes = (
"906 707 OFFCURVE",
"903 711 OFFCURVE",
"897 711 CURVE SMOOTH",
"893 711 OFFCURVE",
"887 708 OFFCURVE",
"880 702 CURVE SMOOTH",
"775 621 LINE SMOOTH",
"772 619 OFFCURVE",
"771 617 OFFCURVE",
"771 614 CURVE SMOOTH",
"771 610 OFFCURVE",
"773 608 OFFCURVE",
"778 608 CURVE SMOOTH",
"782 608 OFFCURVE",
"801 618 OFFCURVE",
"836 639 CURVE SMOOTH",
"870 660 OFFCURVE",
"891 673 OFFCURVE",
"898 679 CURVE SMOOTH",
"903 684 OFFCURVE",
"906 690 OFFCURVE",
"906 698 CURVE SMOOTH"
);
}
);
width = 750;
}
);
note = Aacute;
unicode = 00C1;
},
{
color = 3;
glyphname = Abreve;
lastChange = "2021-04-20 18:52:15 +0000";
layers = (
{
hints = (
{
horizontal = 1;
place = "{-55, 20}";
type = Stem;
},
{
horizontal = 1;
place = "{581, -20}";
target = down;
type = TopGhost;
},
{
horizontal = 1;
place = "{597, 22}";
type = Stem;
},
{
place = "{14, 27}";
type = Stem;
},
{
place = "{593, 28}";
type = Stem;
}
);
layerId = "57DEED6F-9A00-47D0-BD9B-6FE09716AB2D";
paths = (
{
closed = 1;
nodes = (
"802 578 OFFCURVE",
"799 581 OFFCURVE",
"793 581 CURVE SMOOTH",
"788 581 OFFCURVE",
"777 576 OFFCURVE",
"762 567 CURVE SMOOTH",
"747 558 OFFCURVE",
"737 551 OFFCURVE",
"735 546 CURVE SMOOTH",
"716 508 OFFCURVE",
"703 479 OFFCURVE",
"695 458 CURVE SMOOTH",
"666 384 OFFCURVE",
"642 305 OFFCURVE",
"623 220 CURVE",
"591 227 OFFCURVE",
"558 232 OFFCURVE",
"525 234 CURVE",
"552 269 OFFCURVE",
"588 316 OFFCURVE",
"631 374 CURVE SMOOTH",
"693 457 LINE",
"694 460 OFFCURVE",
"695 462 OFFCURVE",
"695 464 CURVE SMOOTH",
"695 472 OFFCURVE",
"691 476 OFFCURVE",
"682 476 CURVE SMOOTH",
"679 476 OFFCURVE",
"676 474 OFFCURVE",
"673 471 CURVE",
"617 396 LINE SMOOTH",
"574 339 OFFCURVE",
"529 286 OFFCURVE",
"486 235 CURVE",
"340 236 OFFCURVE",
"234 226 OFFCURVE",
"167 208 CURVE SMOOTH",
"127 197 OFFCURVE",
"92 177 OFFCURVE",
"63 148 CURVE SMOOTH",
"30 115 OFFCURVE",
"14 80 OFFCURVE",
"14 41 CURVE SMOOTH",
"14 6 OFFCURVE",
"27 -19 OFFCURVE",
"53 -37 CURVE SMOOTH",
"75 -53 OFFCURVE",
"104 -61 OFFCURVE",
"140 -61 CURVE SMOOTH",
"194 -61 OFFCURVE",
"247 -43 OFFCURVE",
"298 -5 CURVE SMOOTH",
"327 16 OFFCURVE",
"368 56 OFFCURVE",
"421 113 CURVE SMOOTH",
"454 148 OFFCURVE",
"480 178 OFFCURVE",
"500 203 CURVE",
"545 202 OFFCURVE",
"584 200 OFFCURVE",
"618 195 CURVE",
"601 113 OFFCURVE",
"593 51 OFFCURVE",
"593 8 CURVE SMOOTH",
"593 -34 OFFCURVE",
"606 -55 OFFCURVE",
"631 -55 CURVE SMOOTH",
"640 -55 OFFCURVE",
"651 -51 OFFCURVE",
"664 -43 CURVE SMOOTH",
"677 -36 OFFCURVE",
"683 -28 OFFCURVE",
"683 -21 CURVE SMOOTH",
"683 -14 OFFCURVE",
"680 -10 OFFCURVE",
"674 -10 CURVE SMOOTH",
"672 -10 OFFCURVE",
"666 -14 OFFCURVE",
"655 -23 CURVE SMOOTH",
"645 -31 OFFCURVE",
"637 -35 OFFCURVE",
"631 -35 CURVE SMOOTH",
"624 -35 OFFCURVE",
"621 -24 OFFCURVE",
"621 -1 CURVE SMOOTH",
"621 46 OFFCURVE",
"631 109 OFFCURVE",
"650 189 CURVE",
"653 188 OFFCURVE",
"661 186 OFFCURVE",
"672 181 CURVE SMOOTH",
"683 177 OFFCURVE",
"689 175 OFFCURVE",
"690 175 CURVE SMOOTH",
"697 175 OFFCURVE",
"701 178 OFFCURVE",
"701 185 CURVE SMOOTH",
"701 193 OFFCURVE",
"686 202 OFFCURVE",
"656 211 CURVE",
"693 350 OFFCURVE",
"740 466 OFFCURVE",
"797 561 CURVE SMOOTH",
"800 566 OFFCURVE",
"802 570 OFFCURVE",
"802 572 CURVE SMOOTH"
);
},
{
closed = 1;
nodes = (
"458 203 LINE",
"437 178 OFFCURVE",
"416 156 OFFCURVE",
"396 136 CURVE SMOOTH",
"348 86 OFFCURVE",
"308 49 OFFCURVE",
"277 28 CURVE SMOOTH",
"228 -5 OFFCURVE",
"179 -22 OFFCURVE",
"128 -22 CURVE SMOOTH",
"104 -22 OFFCURVE",
"85 -17 OFFCURVE",
"69 -7 CURVE SMOOTH",
"51 5 OFFCURVE",
"41 21 OFFCURVE",
"41 43 CURVE SMOOTH",
"41 75 OFFCURVE",
"55 104 OFFCURVE",
"83 131 CURVE SMOOTH",
"108 154 OFFCURVE",
"137 171 OFFCURVE",
"170 180 CURVE SMOOTH",
"229 196 OFFCURVE",
"315 203 OFFCURVE",
"430 203 CURVE SMOOTH"
);
},
{
closed = 1;
nodes = (
"897 707 OFFCURVE",
"896 707 OFFCURVE",
"893 707 CURVE SMOOTH",
"891 707 OFFCURVE",
"886 706 OFFCURVE",
"883 700 CURVE",
"850 664 OFFCURVE",
"820 649 OFFCURVE",
"791 651 CURVE SMOOTH",
"775 653 OFFCURVE",
"763 658 OFFCURVE",
"756 668 CURVE",
"750 674 OFFCURVE",
"746 682 OFFCURVE",
"743 693 CURVE SMOOTH",
"740 702 OFFCURVE",
"737 707 OFFCURVE",
"735 707 CURVE SMOOTH",
"732 707 OFFCURVE",
"729 706 OFFCURVE",
"728 700 CURVE SMOOTH",
"727 695 OFFCURVE",
"727 690 OFFCURVE",
"727 684 CURVE SMOOTH",
"729 652 OFFCURVE",
"747 636 OFFCURVE",
"779 633 CURVE SMOOTH",
"818 629 OFFCURVE",
"856 650 OFFCURVE",
"893 699 CURVE",
"894 701 OFFCURVE",
"896 703 OFFCURVE",
"896 704 CURVE SMOOTH"
);
}
);
width = 750;
}
);
note = Abreve;
unicode = 0102;
},
{
color = 3;
glyphname = Acircumflex;
lastChange = "2021-04-20 18:52:15 +0000";
layers = (
{
hints = (
{
horizontal = 1;
place = "{-55, 20}";
type = Stem;
},
{
place = "{14, 27}";
type = Stem;
},
{
place = "{593, 28}";
type = Stem;
}
);
layerId = "57DEED6F-9A00-47D0-BD9B-6FE09716AB2D";
paths = (
{
closed = 1;
nodes = (
"802 578 OFFCURVE",
"799 581 OFFCURVE",
"793 581 CURVE SMOOTH",
"788 581 OFFCURVE",
"777 576 OFFCURVE",
"762 567 CURVE SMOOTH",
"747 558 OFFCURVE",
"737 551 OFFCURVE",
"735 546 CURVE SMOOTH",
"716 508 OFFCURVE",
"703 479 OFFCURVE",
"695 458 CURVE SMOOTH",
"666 384 OFFCURVE",
"642 305 OFFCURVE",
"623 220 CURVE",
"591 227 OFFCURVE",
"558 232 OFFCURVE",
"525 234 CURVE",
"552 269 OFFCURVE",
"588 316 OFFCURVE",
"631 374 CURVE SMOOTH",
"693 457 LINE",
"694 460 OFFCURVE",
"695 462 OFFCURVE",
"695 464 CURVE SMOOTH",
"695 472 OFFCURVE",
"691 476 OFFCURVE",
"682 476 CURVE SMOOTH",
"679 476 OFFCURVE",
"676 474 OFFCURVE",
"673 471 CURVE",
"617 396 LINE SMOOTH",
"574 339 OFFCURVE",
"529 286 OFFCURVE",
"486 235 CURVE",
"340 236 OFFCURVE",
"234 226 OFFCURVE",
"167 208 CURVE SMOOTH",
"127 197 OFFCURVE",
"92 177 OFFCURVE",
"63 148 CURVE SMOOTH",
"30 115 OFFCURVE",
"14 80 OFFCURVE",
"14 41 CURVE SMOOTH",
"14 6 OFFCURVE",
"27 -19 OFFCURVE",
"53 -37 CURVE SMOOTH",
"75 -53 OFFCURVE",
"104 -61 OFFCURVE",
"140 -61 CURVE SMOOTH",
"194 -61 OFFCURVE",
"247 -43 OFFCURVE",
"298 -5 CURVE SMOOTH",
"327 16 OFFCURVE",
"368 56 OFFCURVE",
"421 113 CURVE SMOOTH",
"454 148 OFFCURVE",
"480 178 OFFCURVE",
"500 203 CURVE",
"545 202 OFFCURVE",
"584 200 OFFCURVE",
"618 195 CURVE",
"601 113 OFFCURVE",
"593 51 OFFCURVE",
"593 8 CURVE SMOOTH",
"593 -34 OFFCURVE",
"606 -55 OFFCURVE",
"631 -55 CURVE SMOOTH",
"640 -55 OFFCURVE",
"651 -51 OFFCURVE",
"664 -43 CURVE SMOOTH",
"677 -36 OFFCURVE",
"683 -28 OFFCURVE",
"683 -21 CURVE SMOOTH",
"683 -14 OFFCURVE",
"680 -10 OFFCURVE",
"674 -10 CURVE SMOOTH",
"672 -10 OFFCURVE",
"666 -14 OFFCURVE",
"655 -23 CURVE SMOOTH",
"645 -31 OFFCURVE",
"637 -35 OFFCURVE",
"631 -35 CURVE SMOOTH",
"624 -35 OFFCURVE",
"621 -24 OFFCURVE",
"621 -1 CURVE SMOOTH",
"621 46 OFFCURVE",
"631 109 OFFCURVE",
"650 189 CURVE",
"653 188 OFFCURVE",
"661 186 OFFCURVE",
"672 181 CURVE SMOOTH",
"683 177 OFFCURVE",
"689 175 OFFCURVE",
"690 175 CURVE SMOOTH",
"697 175 OFFCURVE",
"701 178 OFFCURVE",
"701 185 CURVE SMOOTH",
"701 193 OFFCURVE",
"686 202 OFFCURVE",
"656 211 CURVE",
"693 350 OFFCURVE",
"740 466 OFFCURVE",
"797 561 CURVE SMOOTH",
"800 566 OFFCURVE",
"802 570 OFFCURVE",
"802 572 CURVE SMOOTH"
);
},
{
closed = 1;
nodes = (
"458 203 LINE",
"437 178 OFFCURVE",
"416 156 OFFCURVE",
"396 136 CURVE SMOOTH",
"348 86 OFFCURVE",
"308 49 OFFCURVE",
"277 28 CURVE SMOOTH",
"228 -5 OFFCURVE",
"179 -22 OFFCURVE",
"128 -22 CURVE SMOOTH",
"104 -22 OFFCURVE",
"85 -17 OFFCURVE",
"69 -7 CURVE SMOOTH",
"51 5 OFFCURVE",
"41 21 OFFCURVE",
"41 43 CURVE SMOOTH",
"41 75 OFFCURVE",
"55 104 OFFCURVE",
"83 131 CURVE SMOOTH",
"108 154 OFFCURVE",
"137 171 OFFCURVE",
"170 180 CURVE SMOOTH",
"229 196 OFFCURVE",
"315 203 OFFCURVE",
"430 203 CURVE SMOOTH"
);
},
{
closed = 1;
nodes = (
"880 615 LINE",
"849 646 OFFCURVE",
"824 673 OFFCURVE",
"817 687 CURVE SMOOTH",
"807 705 OFFCURVE",
"788 687 OFFCURVE",
"743 657 CURVE SMOOTH",
"706 632 OFFCURVE",
"687 618 OFFCURVE",
"686 613 CURVE SMOOTH",
"684 608 OFFCURVE",
"686 606 OFFCURVE",
"690 606 CURVE SMOOTH",
"696 606 OFFCURVE",
"730 626 OFFCURVE",
"791 667 CURVE",
"797 658 OFFCURVE",
"809 645 OFFCURVE",
"830 629 CURVE SMOOTH",
"831 628 OFFCURVE",
"850 611 OFFCURVE",
"864 605 CURVE SMOOTH",
"873 601 OFFCURVE",
"883 606 OFFCURVE",
"881 611 CURVE SMOOTH"
);
}
);
width = 750;
}
);
note = Acircumflex;
unicode = 00C2;
},
{
color = 3;
glyphname = Adieresis;
lastChange = "2021-04-20 18:52:15 +0000";
layers = (
{
hints = (
{
horizontal = 1;
place = "{-55, 20}";
type = Stem;
},
{
horizontal = 1;
place = "{581, -20}";
target = down;
type = TopGhost;
},
{
place = "{14, 27}";
type = Stem;
},
{
place = "{593, 28}";
type = Stem;
}
);
layerId = "57DEED6F-9A00-47D0-BD9B-6FE09716AB2D";
paths = (
{
closed = 1;
nodes = (
"802 578 OFFCURVE",
"799 581 OFFCURVE",
"793 581 CURVE SMOOTH",
"788 581 OFFCURVE",
"777 576 OFFCURVE",
"762 567 CURVE SMOOTH",
"747 558 OFFCURVE",
"737 551 OFFCURVE",
"735 546 CURVE SMOOTH",
"716 508 OFFCURVE",
"703 479 OFFCURVE",
"695 458 CURVE SMOOTH",
"666 384 OFFCURVE",
"642 305 OFFCURVE",
"623 220 CURVE",
"591 227 OFFCURVE",
"558 232 OFFCURVE",
"525 234 CURVE",
"552 269 OFFCURVE",
"588 316 OFFCURVE",
"631 374 CURVE SMOOTH",
"693 457 LINE",
"694 460 OFFCURVE",
"695 462 OFFCURVE",
"695 464 CURVE SMOOTH",
"695 472 OFFCURVE",
"691 476 OFFCURVE",
"682 476 CURVE SMOOTH",
"679 476 OFFCURVE",
"676 474 OFFCURVE",
"673 471 CURVE",
"617 396 LINE SMOOTH",
"574 339 OFFCURVE",
"529 286 OFFCURVE",
"486 235 CURVE",
"340 236 OFFCURVE",
"234 226 OFFCURVE",
"167 208 CURVE SMOOTH",
"127 197 OFFCURVE",
"92 177 OFFCURVE",
"63 148 CURVE SMOOTH",
"30 115 OFFCURVE",
"14 80 OFFCURVE",
"14 41 CURVE SMOOTH",
"14 6 OFFCURVE",
"27 -19 OFFCURVE",
"53 -37 CURVE SMOOTH",
"75 -53 OFFCURVE",
"104 -61 OFFCURVE",
"140 -61 CURVE SMOOTH",
"194 -61 OFFCURVE",
"247 -43 OFFCURVE",
"298 -5 CURVE SMOOTH",
"327 16 OFFCURVE",
"368 56 OFFCURVE",
"421 113 CURVE SMOOTH",
"454 148 OFFCURVE",
"480 178 OFFCURVE",
"500 203 CURVE",
"545 202 OFFCURVE",
"584 200 OFFCURVE",
"618 195 CURVE",
"601 113 OFFCURVE",
"593 51 OFFCURVE",
"593 8 CURVE SMOOTH",
"593 -34 OFFCURVE",
"606 -55 OFFCURVE",
"631 -55 CURVE SMOOTH",
"640 -55 OFFCURVE",
"651 -51 OFFCURVE",
"664 -43 CURVE SMOOTH",
"677 -36 OFFCURVE",
"683 -28 OFFCURVE",
"683 -21 CURVE SMOOTH",
"683 -14 OFFCURVE",
"680 -10 OFFCURVE",
"674 -10 CURVE SMOOTH",
"672 -10 OFFCURVE",
"666 -14 OFFCURVE",
"655 -23 CURVE SMOOTH",
"645 -31 OFFCURVE",
"637 -35 OFFCURVE",
"631 -35 CURVE SMOOTH",
"624 -35 OFFCURVE",
"621 -24 OFFCURVE",
"621 -1 CURVE SMOOTH",
"621 46 OFFCURVE",
"631 109 OFFCURVE",
"650 189 CURVE",
"653 188 OFFCURVE",
"661 186 OFFCURVE",
"672 181 CURVE SMOOTH",
"683 177 OFFCURVE",
"689 175 OFFCURVE",
"690 175 CURVE SMOOTH",
"697 175 OFFCURVE",
"701 178 OFFCURVE",
"701 185 CURVE SMOOTH",
"701 193 OFFCURVE",
"686 202 OFFCURVE",
"656 211 CURVE",
"693 350 OFFCURVE",
"740 466 OFFCURVE",
"797 561 CURVE SMOOTH",
"800 566 OFFCURVE",
"802 570 OFFCURVE",
"802 572 CURVE SMOOTH"
);
},
{
closed = 1;
nodes = (
"458 203 LINE",
"437 178 OFFCURVE",
"416 156 OFFCURVE",
"396 136 CURVE SMOOTH",
"348 86 OFFCURVE",
"308 49 OFFCURVE",
"277 28 CURVE SMOOTH",
"228 -5 OFFCURVE",
"179 -22 OFFCURVE",
"128 -22 CURVE SMOOTH",
"104 -22 OFFCURVE",
"85 -17 OFFCURVE",
"69 -7 CURVE SMOOTH",
"51 5 OFFCURVE",
"41 21 OFFCURVE",
"41 43 CURVE SMOOTH",
"41 75 OFFCURVE",
"55 104 OFFCURVE",
"83 131 CURVE SMOOTH",
"108 154 OFFCURVE",
"137 171 OFFCURVE",
"170 180 CURVE SMOOTH",
"229 196 OFFCURVE",
"315 203 OFFCURVE",
"430 203 CURVE SMOOTH"
);
},
{
closed = 1;
nodes = (
"701 627 OFFCURVE",
"711 616 OFFCURVE",
"726 616 CURVE SMOOTH",
"743 616 OFFCURVE",
"756 633 OFFCURVE",
"756 651 CURVE SMOOTH",
"756 665 OFFCURVE",
"747 677 OFFCURVE",
"732 677 CURVE SMOOTH",
"714 677 OFFCURVE",
"701 657 OFFCURVE",
"701 641 CURVE SMOOTH"
);
},
{
closed = 1;
nodes = (
"823 627 OFFCURVE",
"833 616 OFFCURVE",
"848 616 CURVE SMOOTH",
"865 616 OFFCURVE",
"878 633 OFFCURVE",
"878 651 CURVE SMOOTH",
"878 665 OFFCURVE",
"869 677 OFFCURVE",
"854 677 CURVE SMOOTH",
"836 677 OFFCURVE",
"823 657 OFFCURVE",
"823 641 CURVE SMOOTH"
);
}
);
width = 750;
}
);
note = Adieresis;
unicode = 00C4;
},
{
color = 3;
glyphname = Agrave;
lastChange = "2021-04-20 18:52:15 +0000";
layers = (
{
hints = (
{
horizontal = 1;
place = "{-55, 20}";
type = Stem;
},
{
place = "{14, 27}";
type = Stem;
},
{
place = "{593, 28}";
type = Stem;
}
);
layerId = "57DEED6F-9A00-47D0-BD9B-6FE09716AB2D";
paths = (
{
closed = 1;
nodes = (
"802 578 OFFCURVE",
"799 581 OFFCURVE",
"793 581 CURVE SMOOTH",
"788 581 OFFCURVE",
"777 576 OFFCURVE",
"762 567 CURVE SMOOTH",
"747 558 OFFCURVE",
"737 551 OFFCURVE",
"735 546 CURVE SMOOTH",
"716 508 OFFCURVE",
"704 478 OFFCURVE",
"696 458 CURVE SMOOTH",
"667 384 OFFCURVE",
"642 305 OFFCURVE",
"623 220 CURVE",
"591 227 OFFCURVE",
"558 232 OFFCURVE",
"525 234 CURVE",
"552 269 OFFCURVE",
"588 316 OFFCURVE",
"631 374 CURVE SMOOTH",
"693 457 LINE",
"694 460 OFFCURVE",
"695 462 OFFCURVE",
"695 464 CURVE SMOOTH",
"695 472 OFFCURVE",
"691 476 OFFCURVE",
"682 476 CURVE SMOOTH",
"679 476 OFFCURVE",
"676 474 OFFCURVE",
"673 471 CURVE",
"617 396 LINE SMOOTH",
"574 339 OFFCURVE",
"529 286 OFFCURVE",
"486 235 CURVE",
"340 236 OFFCURVE",
"234 226 OFFCURVE",
"167 208 CURVE SMOOTH",
"127 197 OFFCURVE",
"92 177 OFFCURVE",
"63 148 CURVE SMOOTH",
"30 115 OFFCURVE",
"14 80 OFFCURVE",
"14 41 CURVE SMOOTH",
"14 6 OFFCURVE",
"27 -19 OFFCURVE",
"53 -37 CURVE SMOOTH",
"75 -53 OFFCURVE",
"104 -61 OFFCURVE",
"140 -61 CURVE SMOOTH",
"194 -61 OFFCURVE",
"247 -43 OFFCURVE",
"298 -5 CURVE SMOOTH",
"327 16 OFFCURVE",
"368 56 OFFCURVE",
"421 113 CURVE SMOOTH",
"454 148 OFFCURVE",
"480 178 OFFCURVE",
"501 203 CURVE",
"545 202 OFFCURVE",
"584 200 OFFCURVE",
"618 195 CURVE",
"601 113 OFFCURVE",
"593 51 OFFCURVE",
"593 8 CURVE SMOOTH",
"593 -34 OFFCURVE",
"606 -55 OFFCURVE",
"631 -55 CURVE SMOOTH",
"640 -55 OFFCURVE",
"651 -51 OFFCURVE",
"664 -43 CURVE SMOOTH",
"677 -36 OFFCURVE",
"683 -28 OFFCURVE",
"683 -21 CURVE SMOOTH",
"683 -14 OFFCURVE",
"680 -10 OFFCURVE",
"674 -10 CURVE SMOOTH",
"672 -10 OFFCURVE",
"666 -14 OFFCURVE",
"655 -23 CURVE SMOOTH",
"645 -31 OFFCURVE",
"637 -35 OFFCURVE",
"631 -35 CURVE SMOOTH",
"624 -35 OFFCURVE",
"621 -24 OFFCURVE",
"621 -1 CURVE SMOOTH",
"621 46 OFFCURVE",
"631 109 OFFCURVE",
"651 189 CURVE",
"654 188 OFFCURVE",
"661 186 OFFCURVE",
"672 181 CURVE SMOOTH",
"683 177 OFFCURVE",
"689 175 OFFCURVE",
"690 175 CURVE SMOOTH",
"697 175 OFFCURVE",
"701 178 OFFCURVE",
"701 185 CURVE SMOOTH",
"701 193 OFFCURVE",
"686 202 OFFCURVE",
"656 211 CURVE",
"693 350 OFFCURVE",
"740 466 OFFCURVE",
"797 561 CURVE SMOOTH",
"800 566 OFFCURVE",
"802 570 OFFCURVE",
"802 572 CURVE SMOOTH"
);
},
{
closed = 1;
nodes = (
"458 203 LINE",
"437 178 OFFCURVE",
"416 156 OFFCURVE",
"396 136 CURVE SMOOTH",
"348 86 OFFCURVE",
"308 49 OFFCURVE",
"277 28 CURVE SMOOTH",
"228 -5 OFFCURVE",
"179 -22 OFFCURVE",
"128 -22 CURVE SMOOTH",
"104 -22 OFFCURVE",
"85 -17 OFFCURVE",
"69 -7 CURVE SMOOTH",
"51 5 OFFCURVE",
"41 21 OFFCURVE",
"41 43 CURVE SMOOTH",
"41 75 OFFCURVE",
"55 104 OFFCURVE",
"83 131 CURVE SMOOTH",
"108 154 OFFCURVE",
"137 171 OFFCURVE",
"170 180 CURVE SMOOTH",
"229 196 OFFCURVE",
"316 203 OFFCURVE",
"430 203 CURVE SMOOTH"
);
},
{
closed = 1;
nodes = (
"807 635 OFFCURVE",
"806 637 OFFCURVE",
"804 640 CURVE",
"760 676 OFFCURVE",
"725 703 OFFCURVE",
"698 721 CURVE",
"691 727 OFFCURVE",
"686 730 OFFCURVE",
"681 730 CURVE SMOOTH",
"675 730 OFFCURVE",
"672 726 OFFCURVE",
"672 717 CURVE SMOOTH",
"672 709 OFFCURVE",
"675 703 OFFCURVE",
"680 699 CURVE SMOOTH",
"687 693 OFFCURVE",
"709 679 OFFCURVE",
"744 658 CURVE SMOOTH",
"779 637 OFFCURVE",
"798 627 OFFCURVE",
"801 627 CURVE SMOOTH",
"805 627 OFFCURVE",
"807 629 OFFCURVE",
"807 633 CURVE SMOOTH"
);
}
);
width = 753;
}
);
note = Agrave;
unicode = 00C0;
},
{
color = 3;
glyphname = Amacron;
lastChange = "2021-04-20 18:52:15 +0000";
layers = (
{
hints = (
{
horizontal = 1;
place = "{-55, 20}";
type = Stem;
},
{
horizontal = 1;
place = "{581, -20}";
target = down;
type = TopGhost;
},
{
place = "{14, 27}";
type = Stem;
},
{
place = "{593, 28}";
type = Stem;
}
);
layerId = "57DEED6F-9A00-47D0-BD9B-6FE09716AB2D";
paths = (
{
closed = 1;
nodes = (
"802 578 OFFCURVE",
"799 581 OFFCURVE",
"793 581 CURVE SMOOTH",
"788 581 OFFCURVE",
"777 576 OFFCURVE",
"762 567 CURVE SMOOTH",
"747 558 OFFCURVE",
"737 551 OFFCURVE",
"735 546 CURVE SMOOTH",
"716 508 OFFCURVE",
"703 479 OFFCURVE",
"695 458 CURVE SMOOTH",
"666 384 OFFCURVE",
"642 305 OFFCURVE",
"623 220 CURVE",
"591 227 OFFCURVE",
"558 232 OFFCURVE",
"525 234 CURVE",
"552 269 OFFCURVE",
"588 316 OFFCURVE",
"631 374 CURVE SMOOTH",
"693 457 LINE",
"694 460 OFFCURVE",
"695 462 OFFCURVE",
"695 464 CURVE SMOOTH",
"695 472 OFFCURVE",
"691 476 OFFCURVE",
"682 476 CURVE SMOOTH",
"679 476 OFFCURVE",
"676 474 OFFCURVE",
"673 471 CURVE",
"617 396 LINE SMOOTH",
"574 339 OFFCURVE",
"529 286 OFFCURVE",
"486 235 CURVE",
"340 236 OFFCURVE",
"234 226 OFFCURVE",
"167 208 CURVE SMOOTH",
"127 197 OFFCURVE",
"92 177 OFFCURVE",
"63 148 CURVE SMOOTH",
"30 115 OFFCURVE",
"14 80 OFFCURVE",
"14 41 CURVE SMOOTH",
"14 6 OFFCURVE",
"27 -19 OFFCURVE",
"53 -37 CURVE SMOOTH",
"75 -53 OFFCURVE",
"104 -61 OFFCURVE",
"140 -61 CURVE SMOOTH",
"194 -61 OFFCURVE",
"247 -43 OFFCURVE",
"298 -5 CURVE SMOOTH",
"327 16 OFFCURVE",
"368 56 OFFCURVE",
"421 113 CURVE SMOOTH",
"454 148 OFFCURVE",
"480 178 OFFCURVE",
"500 203 CURVE",
"545 202 OFFCURVE",
"584 200 OFFCURVE",
"618 195 CURVE",
"601 113 OFFCURVE",
"593 51 OFFCURVE",
"593 8 CURVE SMOOTH",
"593 -34 OFFCURVE",
"606 -55 OFFCURVE",
"631 -55 CURVE SMOOTH",
"640 -55 OFFCURVE",
"651 -51 OFFCURVE",
"664 -43 CURVE SMOOTH",
"677 -36 OFFCURVE",
"683 -28 OFFCURVE",
"683 -21 CURVE SMOOTH",
"683 -14 OFFCURVE",
"680 -10 OFFCURVE",
"674 -10 CURVE SMOOTH",
"672 -10 OFFCURVE",
"666 -14 OFFCURVE",
"655 -23 CURVE SMOOTH",
"645 -31 OFFCURVE",
"637 -35 OFFCURVE",
"631 -35 CURVE SMOOTH",
"624 -35 OFFCURVE",
"621 -24 OFFCURVE",
"621 -1 CURVE SMOOTH",
"621 46 OFFCURVE",
"631 109 OFFCURVE",
"650 189 CURVE",
"653 188 OFFCURVE",
"661 186 OFFCURVE",
"672 181 CURVE SMOOTH",
"683 177 OFFCURVE",
"689 175 OFFCURVE",
"690 175 CURVE SMOOTH",
"697 175 OFFCURVE",
"701 178 OFFCURVE",
"701 185 CURVE SMOOTH",
"701 193 OFFCURVE",
"686 202 OFFCURVE",
"656 211 CURVE",
"693 350 OFFCURVE",
"740 466 OFFCURVE",
"797 561 CURVE SMOOTH",
"800 566 OFFCURVE",
"802 570 OFFCURVE",
"802 572 CURVE SMOOTH"
);
},
{
closed = 1;
nodes = (
"458 203 LINE",
"437 178 OFFCURVE",
"416 156 OFFCURVE",
"396 136 CURVE SMOOTH",
"348 86 OFFCURVE",
"308 49 OFFCURVE",
"277 28 CURVE SMOOTH",
"228 -5 OFFCURVE",
"179 -22 OFFCURVE",
"128 -22 CURVE SMOOTH",
"104 -22 OFFCURVE",
"85 -17 OFFCURVE",
"69 -7 CURVE SMOOTH",
"51 5 OFFCURVE",
"41 21 OFFCURVE",
"41 43 CURVE SMOOTH",
"41 75 OFFCURVE",
"55 104 OFFCURVE",
"83 131 CURVE SMOOTH",
"108 154 OFFCURVE",
"137 171 OFFCURVE",
"170 180 CURVE SMOOTH",
"229 196 OFFCURVE",
"315 203 OFFCURVE",
"430 203 CURVE SMOOTH"
);
},
{
closed = 1;
nodes = (
"887 633 OFFCURVE",
"878 637 OFFCURVE",
"861 639 CURVE SMOOTH",
"822 645 OFFCURVE",
"791 647 OFFCURVE",
"768 647 CURVE SMOOTH",
"749 647 OFFCURVE",
"734 645 OFFCURVE",
"723 641 CURVE SMOOTH",
"700 633 OFFCURVE",
"688 625 OFFCURVE",
"688 616 CURVE SMOOTH",
"688 611 OFFCURVE",
"695 609 OFFCURVE",
"708 609 CURVE SMOOTH",
"713 609 LINE SMOOTH",
"756 609 OFFCURVE",
"787 616 OFFCURVE",
"807 618 CURVE SMOOTH",
"831 621 OFFCURVE",
"849 621 OFFCURVE",
"861 621 CURVE SMOOTH",
"878 621 OFFCURVE",
"887 624 OFFCURVE",
"887 629 CURVE SMOOTH"
);
}
);
width = 750;
}
);
note = Amacron;
unicode = 0100;
},
{
color = 3;
glyphname = Aogonek;
lastChange = "2021-04-20 18:52:15 +0000";
layers = (
{
hints = (
{
horizontal = 1;
place = "{-196, 28}";
type = Stem;
},
{
horizontal = 1;
place = "{-55, 20}";
type = Stem;
},
{
horizontal = 1;
place = "{581, -20}";
target = down;
type = TopGhost;
},
{
place = "{14, 27}";
type = Stem;
},
{
place = "{574, 32}";
type = Stem;
},
{
place = "{593, 28}";
type = Stem;
}
);
layerId = "57DEED6F-9A00-47D0-BD9B-6FE09716AB2D";
paths = (
{
closed = 1;
nodes = (
"696 3 OFFCURVE",
"690 -3 OFFCURVE",
"683 -10 CURVE SMOOTH",
"666 -24 LINE SMOOTH",
"655 -33 OFFCURVE",
"646 -37 OFFCURVE",
"639 -37 CURVE SMOOTH",
"627 -37 OFFCURVE",
"621 -25 OFFCURVE",
"621 -1 CURVE SMOOTH",
"621 46 OFFCURVE",
"631 109 OFFCURVE",
"650 189 CURVE",
"653 188 OFFCURVE",
"661 186 OFFCURVE",
"672 181 CURVE SMOOTH",
"683 177 OFFCURVE",
"689 175 OFFCURVE",
"690 175 CURVE SMOOTH",
"697 175 OFFCURVE",
"701 178 OFFCURVE",
"701 185 CURVE SMOOTH",
"701 193 OFFCURVE",
"686 202 OFFCURVE",
"656 211 CURVE",
"693 350 OFFCURVE",
"740 466 OFFCURVE",
"797 561 CURVE SMOOTH",
"800 566 OFFCURVE",
"802 570 OFFCURVE",
"802 572 CURVE SMOOTH",
"802 578 OFFCURVE",
"799 581 OFFCURVE",
"793 581 CURVE SMOOTH",
"788 581 OFFCURVE",
"777 576 OFFCURVE",
"762 567 CURVE SMOOTH",
"747 558 OFFCURVE",
"737 551 OFFCURVE",
"735 546 CURVE SMOOTH",
"716 508 OFFCURVE",
"703 479 OFFCURVE",
"695 458 CURVE SMOOTH",
"666 384 OFFCURVE",
"642 305 OFFCURVE",
"623 220 CURVE",
"591 227 OFFCURVE",
"558 232 OFFCURVE",
"525 234 CURVE",
"552 269 OFFCURVE",
"588 316 OFFCURVE",
"631 374 CURVE SMOOTH",
"693 457 LINE",
"694 460 OFFCURVE",
"695 462 OFFCURVE",
"695 464 CURVE SMOOTH",
"695 472 OFFCURVE",
"691 476 OFFCURVE",
"682 476 CURVE SMOOTH",
"679 476 OFFCURVE",
"676 474 OFFCURVE",
"673 471 CURVE",
"617 396 LINE SMOOTH",
"576 342 OFFCURVE",
"534 291 OFFCURVE",
"493 243 CURVE SMOOTH",
"486 235 LINE",
"466 235 LINE SMOOTH",
"330 235 OFFCURVE",
"231 225 OFFCURVE",
"167 208 CURVE SMOOTH",
"127 197 OFFCURVE",
"92 177 OFFCURVE",
"63 148 CURVE SMOOTH",
"30 115 OFFCURVE",
"14 80 OFFCURVE",
"14 41 CURVE SMOOTH",
"14 6 OFFCURVE",
"27 -19 OFFCURVE",
"53 -37 CURVE SMOOTH",
"75 -53 OFFCURVE",
"104 -61 OFFCURVE",
"140 -61 CURVE SMOOTH",
"194 -61 OFFCURVE",
"247 -43 OFFCURVE",
"298 -5 CURVE SMOOTH",
"327 16 OFFCURVE",
"368 56 OFFCURVE",
"421 113 CURVE SMOOTH",
"454 148 OFFCURVE",
"480 178 OFFCURVE",
"500 203 CURVE",
"545 202 OFFCURVE",
"584 200 OFFCURVE",
"618 195 CURVE",
"601 113 OFFCURVE",
"593 51 OFFCURVE",
"593 8 CURVE SMOOTH",
"593 -32 OFFCURVE",
"605 -53 OFFCURVE",
"627 -55 CURVE SMOOTH",
"630 -55 OFFCURVE",
"633 -55 OFFCURVE",
"637 -54 CURVE",
"615 -74 OFFCURVE",
"591 -98 OFFCURVE",
"564 -135 CURVE SMOOTH",
"547 -158 OFFCURVE",
"537 -181 OFFCURVE",
"533 -201 CURVE SMOOTH",
"523 -263 OFFCURVE",
"560 -283 OFFCURVE",
"610 -262 CURVE SMOOTH",
"630 -253 OFFCURVE",
"650 -238 OFFCURVE",
"665 -218 CURVE SMOOTH",
"669 -212 OFFCURVE",
"667 -204 OFFCURVE",
"660 -207 CURVE",
"642 -227 OFFCURVE",
"625 -236 OFFCURVE",
"611 -237 CURVE SMOOTH",
"595 -238 OFFCURVE",
"583 -233 OFFCURVE",
"576 -224 CURVE SMOOTH",
"564 -206 OFFCURVE",
"572 -164 OFFCURVE",
"595 -132 CURVE SMOOTH",
"636 -75 OFFCURVE",
"667 -40 OFFCURVE",
"683 -24 CURVE SMOOTH",
"697 -10 LINE SMOOTH",
"705 -2 OFFCURVE",
"710 5 OFFCURVE",
"710 8 CURVE SMOOTH",
"710 10 OFFCURVE",
"708 12 OFFCURVE",
"706 12 CURVE SMOOTH",
"703 12 OFFCURVE",
"702 11 OFFCURVE",
"701 10 CURVE SMOOTH"
);
},
{
closed = 1;
nodes = (
"458 203 LINE",
"437 178 OFFCURVE",
"416 156 OFFCURVE",
"396 136 CURVE SMOOTH",
"348 86 OFFCURVE",
"308 49 OFFCURVE",
"277 28 CURVE SMOOTH",
"228 -5 OFFCURVE",
"179 -22 OFFCURVE",
"128 -22 CURVE SMOOTH",
"104 -22 OFFCURVE",
"85 -17 OFFCURVE",
"69 -7 CURVE SMOOTH",
"51 5 OFFCURVE",
"41 21 OFFCURVE",
"41 43 CURVE SMOOTH",
"41 75 OFFCURVE",
"55 104 OFFCURVE",
"83 131 CURVE SMOOTH",
"108 154 OFFCURVE",
"137 171 OFFCURVE",
"170 180 CURVE SMOOTH",
"229 196 OFFCURVE",
"315 203 OFFCURVE",
"430 203 CURVE SMOOTH"
);
}
);
width = 734;
}
);
note = Aogonek;
unicode = 0104;
},
{
color = 3;
glyphname = Aring;
lastChange = "2021-04-20 18:52:15 +0000";
layers = (
{
hints = (
{
horizontal = 1;
place = "{-52, 14}";
type = Stem;
},
{
horizontal = 1;
place = "{468, 19}";
type = Stem;
},
{
horizontal = 1;
place = "{581, -20}";
target = down;
type = TopGhost;
},
{
horizontal = 1;
place = "{587, 19}";
type = Stem;
},
{
place = "{17, 20}";
type = Stem;
},
{
place = "{596, 21}";
type = Stem;
},
{
place = "{664, 33}";
type = Stem;
},
{
place = "{783, 24}";
type = Stem;
},
{
place = "{771, 24}";
type = Stem;
},
{
horizontal = 1;
place = "{596, 18}";
type = Stem;
},
{
place = "{674, 37}";
type = Stem;
},
{
place = "{14, 27}";
type = Stem;
},
{
place = "{593, 28}";
type = Stem;
},
{
horizontal = 1;
place = "{-55, 20}";
type = Stem;
}
);
layerId = "57DEED6F-9A00-47D0-BD9B-6FE09716AB2D";
paths = (
{
closed = 1;
nodes = (
"807 576 OFFCURVE",
"803 588 OFFCURVE",
"795 599 CURVE SMOOTH",
"787 609 OFFCURVE",
"777 614 OFFCURVE",
"764 614 CURVE SMOOTH",
"741 614 OFFCURVE",
"724 603 OFFCURVE",
"713 582 CURVE",
"702 579 OFFCURVE",
"692 568 OFFCURVE",
"684 550 CURVE SMOOTH",
"677 535 OFFCURVE",
"674 520 OFFCURVE",
"674 506 CURVE SMOOTH",
"674 492 OFFCURVE",
"678 482 OFFCURVE",
"686 475 CURVE SMOOTH",
"685 476 OFFCURVE",
"683 476 OFFCURVE",
"682 476 CURVE SMOOTH",
"679 476 OFFCURVE",
"676 474 OFFCURVE",
"673 471 CURVE",
"617 396 LINE SMOOTH",
"574 339 OFFCURVE",
"529 286 OFFCURVE",
"486 235 CURVE",
"340 236 OFFCURVE",
"234 226 OFFCURVE",
"167 208 CURVE SMOOTH",
"127 197 OFFCURVE",
"92 177 OFFCURVE",
"63 148 CURVE SMOOTH",
"30 115 OFFCURVE",
"14 80 OFFCURVE",
"14 41 CURVE SMOOTH",
"14 6 OFFCURVE",
"27 -19 OFFCURVE",
"53 -37 CURVE SMOOTH",
"75 -53 OFFCURVE",
"104 -61 OFFCURVE",
"140 -61 CURVE SMOOTH",
"194 -61 OFFCURVE",
"247 -43 OFFCURVE",
"298 -5 CURVE SMOOTH",
"327 16 OFFCURVE",
"368 56 OFFCURVE",
"421 113 CURVE SMOOTH",
"454 148 OFFCURVE",
"480 178 OFFCURVE",
"500 203 CURVE",
"545 202 OFFCURVE",
"584 200 OFFCURVE",
"618 195 CURVE",
"601 113 OFFCURVE",
"593 51 OFFCURVE",
"593 8 CURVE SMOOTH",
"593 -34 OFFCURVE",
"606 -55 OFFCURVE",
"631 -55 CURVE SMOOTH",
"640 -55 OFFCURVE",
"651 -51 OFFCURVE",
"664 -43 CURVE SMOOTH",
"677 -36 OFFCURVE",
"683 -28 OFFCURVE",
"683 -21 CURVE SMOOTH",
"683 -14 OFFCURVE",
"680 -10 OFFCURVE",
"674 -10 CURVE SMOOTH",
"672 -10 OFFCURVE",
"666 -14 OFFCURVE",
"655 -23 CURVE SMOOTH",
"645 -31 OFFCURVE",
"637 -35 OFFCURVE",
"631 -35 CURVE SMOOTH",
"624 -35 OFFCURVE",
"621 -24 OFFCURVE",
"621 -1 CURVE SMOOTH",
"621 46 OFFCURVE",
"631 109 OFFCURVE",
"650 189 CURVE",
"653 188 OFFCURVE",
"661 186 OFFCURVE",
"672 181 CURVE SMOOTH",
"683 177 OFFCURVE",
"689 175 OFFCURVE",
"690 175 CURVE SMOOTH",
"697 175 OFFCURVE",
"701 178 OFFCURVE",
"701 185 CURVE SMOOTH",
"701 193 OFFCURVE",
"686 202 OFFCURVE",
"656 211 CURVE",
"682 308 OFFCURVE",
"712 395 OFFCURVE",
"748 470 CURVE",
"738 471 LINE",
"753 476 OFFCURVE",
"766 485 OFFCURVE",
"779 498 CURVE SMOOTH",
"797 517 OFFCURVE",
"807 539 OFFCURVE",
"807 562 CURVE SMOOTH"
);
},
{
closed = 1;
nodes = (
"458 203 LINE",
"437 178 OFFCURVE",
"416 156 OFFCURVE",
"396 136 CURVE SMOOTH",
"348 86 OFFCURVE",
"308 49 OFFCURVE",
"277 28 CURVE SMOOTH",
"228 -5 OFFCURVE",
"179 -22 OFFCURVE",
"128 -22 CURVE SMOOTH",
"104 -22 OFFCURVE",
"85 -17 OFFCURVE",
"69 -7 CURVE SMOOTH",
"51 5 OFFCURVE",
"41 21 OFFCURVE",
"41 43 CURVE SMOOTH",
"41 75 OFFCURVE",
"55 104 OFFCURVE",
"83 131 CURVE SMOOTH",
"108 154 OFFCURVE",
"137 171 OFFCURVE",
"170 180 CURVE SMOOTH",
"229 196 OFFCURVE",
"315 203 OFFCURVE",
"430 203 CURVE SMOOTH"
);
},
{
closed = 1;
nodes = (
"666 384 OFFCURVE",
"642 305 OFFCURVE",
"623 220 CURVE",
"591 227 OFFCURVE",
"558 232 OFFCURVE",
"525 234 CURVE",
"552 269 OFFCURVE",
"588 316 OFFCURVE",
"631 374 CURVE SMOOTH",
"693 457 LINE",
"694 460 OFFCURVE",
"695 462 OFFCURVE",
"695 464 CURVE SMOOTH",
"695 467 OFFCURVE",
"694 470 OFFCURVE",
"693 472 CURVE",
"699 469 LINE",
"697 465 OFFCURVE",
"696 461 OFFCURVE",
"695 458 CURVE SMOOTH"
);
},
{
closed = 1;
nodes = (
"783 543 OFFCURVE",
"777 527 OFFCURVE",
"766 511 CURVE SMOOTH",
"755 495 OFFCURVE",
"742 487 OFFCURVE",
"726 487 CURVE SMOOTH",
"716 487 OFFCURVE",
"711 494 OFFCURVE",
"711 507 CURVE SMOOTH",
"711 520 OFFCURVE",
"715 533 OFFCURVE",
"723 545 CURVE SMOOTH",
"734 562 OFFCURVE",
"741 572 OFFCURVE",
"743 577 CURVE",
"732 583 LINE",
"744 592 OFFCURVE",
"754 596 OFFCURVE",
"761 596 CURVE SMOOTH",
"776 596 OFFCURVE",
"783 584 OFFCURVE",
"783 560 CURVE SMOOTH"
);
}
);
width = 750;
}
);
note = Aring;
unicode = 00C5;
},
{
color = 3;
glyphname = Atilde;
lastChange = "2021-04-20 18:52:15 +0000";
layers = (
{
hints = (
{
horizontal = 1;
place = "{-55, 20}";
type = Stem;
},
{
place = "{14, 27}";
type = Stem;
},
{
place = "{593, 28}";
type = Stem;
}
);
layerId = "57DEED6F-9A00-47D0-BD9B-6FE09716AB2D";
paths = (
{
closed = 1;
nodes = (
"802 578 OFFCURVE",
"799 581 OFFCURVE",
"793 581 CURVE SMOOTH",
"788 581 OFFCURVE",
"777 576 OFFCURVE",
"762 567 CURVE SMOOTH",
"747 558 OFFCURVE",
"737 551 OFFCURVE",
"735 546 CURVE SMOOTH",
"716 508 OFFCURVE",
"704 478 OFFCURVE",
"696 458 CURVE SMOOTH",
"667 384 OFFCURVE",
"642 305 OFFCURVE",
"623 220 CURVE",
"591 227 OFFCURVE",
"558 232 OFFCURVE",
"525 234 CURVE",
"552 269 OFFCURVE",
"588 316 OFFCURVE",
"631 374 CURVE SMOOTH",
"693 457 LINE",
"694 460 OFFCURVE",
"695 462 OFFCURVE",
"695 464 CURVE SMOOTH",
"695 472 OFFCURVE",
"691 476 OFFCURVE",
"682 476 CURVE SMOOTH",
"679 476 OFFCURVE",
"676 474 OFFCURVE",
"673 471 CURVE",
"617 396 LINE SMOOTH",
"574 339 OFFCURVE",
"529 286 OFFCURVE",
"486 235 CURVE",
"340 236 OFFCURVE",
"234 226 OFFCURVE",
"167 208 CURVE SMOOTH",
"127 197 OFFCURVE",
"92 177 OFFCURVE",
"63 148 CURVE SMOOTH",
"30 115 OFFCURVE",
"14 80 OFFCURVE",
"14 41 CURVE SMOOTH",
"14 6 OFFCURVE",
"27 -19 OFFCURVE",
"53 -37 CURVE SMOOTH",
"75 -53 OFFCURVE",
"104 -61 OFFCURVE",
"140 -61 CURVE SMOOTH",
"194 -61 OFFCURVE",
"247 -43 OFFCURVE",
"298 -5 CURVE SMOOTH",
"327 16 OFFCURVE",
"368 56 OFFCURVE",
"421 113 CURVE SMOOTH",
"454 148 OFFCURVE",
"480 178 OFFCURVE",
"501 203 CURVE",
"545 202 OFFCURVE",
"584 200 OFFCURVE",
"618 195 CURVE",
"601 113 OFFCURVE",
"593 51 OFFCURVE",
"593 8 CURVE SMOOTH",
"593 -34 OFFCURVE",
"606 -55 OFFCURVE",
"631 -55 CURVE SMOOTH",
"640 -55 OFFCURVE",
"651 -51 OFFCURVE",
"664 -43 CURVE SMOOTH",
"677 -36 OFFCURVE",
"683 -28 OFFCURVE",
"683 -21 CURVE SMOOTH",
"683 -14 OFFCURVE",
"680 -10 OFFCURVE",
"674 -10 CURVE SMOOTH",
"672 -10 OFFCURVE",
"666 -14 OFFCURVE",
"655 -23 CURVE SMOOTH",
"645 -31 OFFCURVE",
"637 -35 OFFCURVE",
"631 -35 CURVE SMOOTH",
"624 -35 OFFCURVE",
"621 -24 OFFCURVE",
"621 -1 CURVE SMOOTH",
"621 46 OFFCURVE",
"631 109 OFFCURVE",
"651 189 CURVE",
"654 188 OFFCURVE",
"661 186 OFFCURVE",
"672 181 CURVE SMOOTH",
"683 177 OFFCURVE",
"689 175 OFFCURVE",
"690 175 CURVE SMOOTH",
"697 175 OFFCURVE",
"701 178 OFFCURVE",
"701 185 CURVE SMOOTH",
"701 193 OFFCURVE",
"686 202 OFFCURVE",
"656 211 CURVE",
"693 350 OFFCURVE",
"740 466 OFFCURVE",
"797 561 CURVE SMOOTH",
"800 566 OFFCURVE",
"802 570 OFFCURVE",
"802 572 CURVE SMOOTH"
);
},
{
closed = 1;
nodes = (
"458 203 LINE",
"437 178 OFFCURVE",
"416 156 OFFCURVE",
"396 136 CURVE SMOOTH",
"348 86 OFFCURVE",
"308 49 OFFCURVE",
"277 28 CURVE SMOOTH",
"228 -5 OFFCURVE",
"179 -22 OFFCURVE",
"128 -22 CURVE SMOOTH",
"104 -22 OFFCURVE",
"85 -17 OFFCURVE",
"69 -7 CURVE SMOOTH",
"51 5 OFFCURVE",
"41 21 OFFCURVE",
"41 43 CURVE SMOOTH",
"41 75 OFFCURVE",
"55 104 OFFCURVE",
"83 131 CURVE SMOOTH",
"108 154 OFFCURVE",
"137 171 OFFCURVE",
"170 180 CURVE SMOOTH",
"229 196 OFFCURVE",
"316 203 OFFCURVE",
"430 203 CURVE SMOOTH"
);
},
{
closed = 1;
nodes = (
"915 686 OFFCURVE",
"913 688 OFFCURVE",
"908 687 CURVE",
"895 671 OFFCURVE",
"879 663 OFFCURVE",
"860 663 CURVE SMOOTH",
"847 663 OFFCURVE",
"829 667 OFFCURVE",
"804 676 CURVE SMOOTH",
"779 684 OFFCURVE",
"761 688 OFFCURVE",
"748 688 CURVE SMOOTH",
"733 688 OFFCURVE",
"718 684 OFFCURVE",
"705 676 CURVE SMOOTH",
"697 671 OFFCURVE",
"687 664 OFFCURVE",
"676 654 CURVE SMOOTH",
"662 642 OFFCURVE",
"655 633 OFFCURVE",
"655 628 CURVE SMOOTH",
"655 627 OFFCURVE",
"655 626 OFFCURVE",
"656 626 CURVE SMOOTH",
"660 625 OFFCURVE",
"668 630 OFFCURVE",
"681 640 CURVE SMOOTH",
"694 650 OFFCURVE",
"707 655 OFFCURVE",
"720 655 CURVE SMOOTH",
"733 655 OFFCURVE",
"752 650 OFFCURVE",
"777 639 CURVE SMOOTH",
"802 629 OFFCURVE",
"822 624 OFFCURVE",
"835 624 CURVE SMOOTH",
"848 624 OFFCURVE",
"858 628 OFFCURVE",
"868 634 CURVE SMOOTH",
"899 655 OFFCURVE",
"915 671 OFFCURVE",
"915 682 CURVE SMOOTH"
);
}
);
width = 741;
}
);
note = Atilde;
unicode = 00C3;
},
{
color = 3;
glyphname = AE;
lastChange = "2021-04-20 18:52:15 +0000";
layers = (
{
hints = (
{
horizontal = 1;
place = "{-57, 32}";
type = Stem;
},
{
horizontal = 1;
place = "{286, 19}";
type = Stem;
},
{
horizontal = 1;
place = "{486, 26}";
type = Stem;
},
{
place = "{17, 20}";
type = Stem;
},
{
place = "{558, 31}";
type = Stem;
}
);
layerId = "57DEED6F-9A00-47D0-BD9B-6FE09716AB2D";
paths = (
{
closed = 1;
nodes = (
"1148 496 OFFCURVE",
"1142 500 OFFCURVE",
"1131 503 CURVE SMOOTH",
"1107 509 OFFCURVE",
"1068 512 OFFCURVE",
"1014 512 CURVE SMOOTH",
"901 512 OFFCURVE",
"816 501 OFFCURVE",
"747 467 CURVE SMOOTH",
"680 435 OFFCURVE",
"603 369 OFFCURVE",
"528 282 CURVE",
"413 272 OFFCURVE",
"304 256 OFFCURVE",
"215 227 CURVE SMOOTH",
"75 181 OFFCURVE",
"12 117 OFFCURVE",
"12 39 CURVE SMOOTH",
"12 5 OFFCURVE",
"25 -21 OFFCURVE",
"51 -38 CURVE SMOOTH",
"72 -54 OFFCURVE",
"101 -61 OFFCURVE",
"137 -61 CURVE SMOOTH",
"191 -61 OFFCURVE",
"244 -42 OFFCURVE",
"295 -5 CURVE SMOOTH",
"325 16 OFFCURVE",
"366 57 OFFCURVE",
"419 114 CURVE SMOOTH",
"448 145 OFFCURVE",
"477 184 OFFCURVE",
"529 248 CURVE",
"565 254 OFFCURVE",
"630 257 OFFCURVE",
"649 258 CURVE",
"582 172 OFFCURVE",
"552 108 OFFCURVE",
"552 51 CURVE SMOOTH",
"552 -2 OFFCURVE",
"591 -29 OFFCURVE",
"658 -29 CURVE SMOOTH",
"702 -29 OFFCURVE",
"769 -17 OFFCURVE",
"844 10 CURVE SMOOTH",
"925 40 OFFCURVE",
"975 69 OFFCURVE",
"996 98 CURVE",
"996 104 OFFCURVE",
"993 110 OFFCURVE",
"988 107 CURVE SMOOTH",
"963 93 OFFCURVE",
"933 79 OFFCURVE",
"910 69 CURVE SMOOTH",
"815 26 OFFCURVE",
"737 6 OFFCURVE",
"677 6 CURVE SMOOTH",
"565 6 OFFCURVE",
"593 84 OFFCURVE",
"631 164 CURVE SMOOTH",
"656 217 OFFCURVE",
"689 252 OFFCURVE",
"702 258 CURVE",
"728 266 OFFCURVE",
"763 272 OFFCURVE",
"816 275 CURVE SMOOTH",
"886 280 OFFCURVE",
"929 283 OFFCURVE",
"944 286 CURVE SMOOTH",
"963 290 OFFCURVE",
"973 294 OFFCURVE",
"973 298 CURVE SMOOTH",
"973 303 OFFCURVE",
"950 305 OFFCURVE",
"905 305 CURVE SMOOTH",
"886 305 OFFCURVE",
"859 304 OFFCURVE",
"823 301 CURVE SMOOTH",
"787 298 OFFCURVE",
"760 297 OFFCURVE",
"742 297 CURVE SMOOTH",
"739 297 OFFCURVE",
"736 298 OFFCURVE",
"734 301 CURVE",
"822 399 OFFCURVE",
"873 453 OFFCURVE",
"888 462 CURVE SMOOTH",
"915 478 OFFCURVE",
"971 486 OFFCURVE",
"1056 486 CURVE SMOOTH",
"1089 486 OFFCURVE",
"1112 483 OFFCURVE",
"1124 477 CURVE",
"1140 477 OFFCURVE",
"1148 481 OFFCURVE",
"1148 489 CURVE SMOOTH"
);
},
{
closed = 1;
nodes = (
"462 208 OFFCURVE",
"439 178 OFFCURVE",
"404 139 CURVE SMOOTH",
"360 91 OFFCURVE",
"319 56 OFFCURVE",
"282 32 CURVE SMOOTH",
"234 0 OFFCURVE",
"186 -15 OFFCURVE",
"139 -15 CURVE SMOOTH",
"98 -15 OFFCURVE",
"42 6 OFFCURVE",
"42 51 CURVE SMOOTH",
"42 112 OFFCURVE",
"112 161 OFFCURVE",
"238 202 CURVE SMOOTH",
"313 226 OFFCURVE",
"392 235 OFFCURVE",
"496 248 CURVE"
);
},
{
closed = 1;
nodes = (
"754 379 OFFCURVE",
"719 349 OFFCURVE",
"672 289 CURVE",
"617 286 OFFCURVE",
"583 284 OFFCURVE",
"558 281 CURVE",
"587 319 OFFCURVE",
"626 356 OFFCURVE",
"674 392 CURVE SMOOTH",
"725 430 OFFCURVE",
"765 451 OFFCURVE",
"808 464 CURVE SMOOTH",
"824 468 OFFCURVE",
"832 469 OFFCURVE",
"824 458 CURVE"
);
}
);
width = 978;
}
);
note = AE;
unicode = 00C6;
},
{
color = 3;
glyphname = AEacute;
lastChange = "2021-04-20 18:52:15 +0000";
layers = (
{
hints = (
{
horizontal = 1;
place = "{-57, 32}";
type = Stem;
},
{
horizontal = 1;
place = "{286, 19}";
type = Stem;
},
{
horizontal = 1;
place = "{486, 26}";
type = Stem;
},
{
place = "{17, 20}";
type = Stem;
},
{
place = "{558, 31}";
type = Stem;
}
);
layerId = "57DEED6F-9A00-47D0-BD9B-6FE09716AB2D";
paths = (
{
closed = 1;
nodes = (
"1148 496 OFFCURVE",
"1142 500 OFFCURVE",
"1131 503 CURVE SMOOTH",
"1107 509 OFFCURVE",
"1068 512 OFFCURVE",
"1014 512 CURVE SMOOTH",
"901 512 OFFCURVE",
"810 496 OFFCURVE",
"741 462 CURVE SMOOTH",
"674 430 OFFCURVE",
"603 369 OFFCURVE",
"528 282 CURVE",
"413 272 OFFCURVE",
"311 253 OFFCURVE",
"224 224 CURVE SMOOTH",
"86 179 OFFCURVE",
"17 118 OFFCURVE",
"17 41 CURVE SMOOTH",
"17 8 OFFCURVE",
"30 -18 OFFCURVE",
"55 -35 CURVE SMOOTH",
"76 -50 OFFCURVE",
"105 -57 OFFCURVE",
"140 -57 CURVE SMOOTH",
"193 -57 OFFCURVE",
"245 -39 OFFCURVE",
"296 -2 CURVE SMOOTH",
"325 19 OFFCURVE",
"366 59 OFFCURVE",
"418 115 CURVE SMOOTH",
"446 146 OFFCURVE",
"487 193 OFFCURVE",
"539 257 CURVE",
"592 261 OFFCURVE",
"631 264 OFFCURVE",
"658 265 CURVE",
"591 179 OFFCURVE",
"558 108 OFFCURVE",
"558 51 CURVE SMOOTH",
"558 -2 OFFCURVE",
"591 -29 OFFCURVE",
"658 -29 CURVE SMOOTH",
"702 -29 OFFCURVE",
"761 -16 OFFCURVE",
"836 11 CURVE SMOOTH",
"917 41 OFFCURVE",
"969 71 OFFCURVE",
"990 100 CURVE SMOOTH",
"995 108 LINE",
"965 95 OFFCURVE",
"937 81 OFFCURVE",
"910 69 CURVE SMOOTH",
"815 26 OFFCURVE",
"737 6 OFFCURVE",
"677 6 CURVE SMOOTH",
"618 6 OFFCURVE",
"589 25 OFFCURVE",
"589 63 CURVE SMOOTH",
"589 79 OFFCURVE",
"603 113 OFFCURVE",
"631 164 CURVE SMOOTH",
"659 215 OFFCURVE",
"679 243 OFFCURVE",
"692 249 CURVE SMOOTH",
"722 263 OFFCURVE",
"763 272 OFFCURVE",
"816 275 CURVE SMOOTH",
"886 280 OFFCURVE",
"929 283 OFFCURVE",
"944 286 CURVE SMOOTH",
"963 290 OFFCURVE",
"973 294 OFFCURVE",
"973 298 CURVE SMOOTH",
"973 303 OFFCURVE",
"950 305 OFFCURVE",
"905 305 CURVE SMOOTH",
"886 305 OFFCURVE",
"859 304 OFFCURVE",
"823 301 CURVE SMOOTH",
"787 298 OFFCURVE",
"760 297 OFFCURVE",
"742 297 CURVE SMOOTH",
"739 297 OFFCURVE",
"736 298 OFFCURVE",
"734 301 CURVE",
"822 399 OFFCURVE",
"873 453 OFFCURVE",
"888 462 CURVE SMOOTH",
"915 478 OFFCURVE",
"971 486 OFFCURVE",
"1056 486 CURVE SMOOTH",
"1089 486 OFFCURVE",
"1112 483 OFFCURVE",
"1124 477 CURVE",
"1140 477 OFFCURVE",
"1148 481 OFFCURVE",
"1148 489 CURVE SMOOTH"
);
},
{
closed = 1;
nodes = (
"471 216 OFFCURVE",
"437 175 OFFCURVE",
"401 135 CURVE SMOOTH",
"356 85 OFFCURVE",
"314 49 OFFCURVE",
"276 24 CURVE SMOOTH",
"226 -9 OFFCURVE",
"177 -25 OFFCURVE",
"128 -25 CURVE SMOOTH",
"103 -25 OFFCURVE",
"83 -20 OFFCURVE",
"66 -10 CURVE SMOOTH",
"47 2 OFFCURVE",
"37 20 OFFCURVE",
"37 43 CURVE SMOOTH",
"37 106 OFFCURVE",
"101 158 OFFCURVE",
"230 200 CURVE SMOOTH",
"307 225 OFFCURVE",
"399 244 OFFCURVE",
"506 257 CURVE"
);
},
{
closed = 1;
nodes = (
"776 403 OFFCURVE",
"741 362 OFFCURVE",
"718 334 CURVE SMOOTH",
"701 314 OFFCURVE",
"687 299 OFFCURVE",
"678 290 CURVE",
"623 287 OFFCURVE",
"583 284 OFFCURVE",
"558 281 CURVE",
"587 319 OFFCURVE",
"626 356 OFFCURVE",
"674 392 CURVE SMOOTH",
"725 430 OFFCURVE",
"771 456 OFFCURVE",
"814 469 CURVE",
"819 465 OFFCURVE",
"822 461 OFFCURVE",
"824 458 CURVE"
);
}
);
width = 954;
}
);
note = AEacute;
unicode = 01FC;
},
{
color = 3;
glyphname = B;
lastChange = "2021-04-20 18:52:15 +0000";
layers = (
{
hints = (
{
horizontal = 1;
place = "{-62, 22}";
type = Stem;
},
{
horizontal = 1;
place = "{309, 198}";
type = Stem;
},
{
horizontal = 1;
place = "{529, 29}";
type = Stem;
},
{
place = "{1, 44}";
type = Stem;
},
{
place = "{127, 25}";
type = Stem;
},
{
place = "{607, 35}";
type = Stem;
}
);
layerId = "57DEED6F-9A00-47D0-BD9B-6FE09716AB2D";
paths = (
{
closed = 1;
nodes = (
"642 493 OFFCURVE",
"599 522 OFFCURVE",
"514 540 CURVE SMOOTH",
"459 552 OFFCURVE",
"400 558 OFFCURVE",
"336 558 CURVE SMOOTH",
"229 558 OFFCURVE",
"140 544 OFFCURVE",
"71 516 CURVE SMOOTH",
"63 513 OFFCURVE",
"54 506 OFFCURVE",
"45 496 CURVE SMOOTH",
"36 487 OFFCURVE",
"32 478 OFFCURVE",
"32 470 CURVE SMOOTH",
"32 465 OFFCURVE",
"35 462 OFFCURVE",
"40 462 CURVE SMOOTH",
"42 462 OFFCURVE",
"45 463 OFFCURVE",
"48 464 CURVE SMOOTH",
"152 507 OFFCURVE",
"264 529 OFFCURVE",
"384 529 CURVE SMOOTH",
"429 529 OFFCURVE",
"472 525 OFFCURVE",
"514 517 CURVE SMOOTH",
"576 505 OFFCURVE",
"607 487 OFFCURVE",
"607 463 CURVE SMOOTH",
"607 452 OFFCURVE",
"599 440 OFFCURVE",
"584 425 CURVE SMOOTH",
"547 390 OFFCURVE",
"488 364 OFFCURVE",
"407 348 CURVE SMOOTH",
"386 344 OFFCURVE",
"370 343 OFFCURVE",
"359 341 CURVE SMOOTH",
"340 338 OFFCURVE",
"330 330 OFFCURVE",
"330 318 CURVE SMOOTH",
"330 312 OFFCURVE",
"334 309 OFFCURVE",
"343 309 CURVE SMOOTH",
"366 309 LINE SMOOTH",
"415 309 OFFCURVE",
"462 300 OFFCURVE",
"506 282 CURVE SMOOTH",
"563 258 OFFCURVE",
"591 225 OFFCURVE",
"591 183 CURVE SMOOTH",
"591 158 OFFCURVE",
"580 132 OFFCURVE",
"559 104 CURVE",
"486 168 OFFCURVE",
"374 202 OFFCURVE",
"224 205 CURVE",
"277 312 OFFCURVE",
"335 408 OFFCURVE",
"398 493 CURVE",
"399 495 OFFCURVE",
"400 497 OFFCURVE",
"400 499 CURVE SMOOTH",
"400 504 OFFCURVE",
"395 507 OFFCURVE",
"386 507 CURVE SMOOTH",
"363 507 OFFCURVE",
"345 500 OFFCURVE",
"335 485 CURVE SMOOTH",
"310 447 OFFCURVE",
"294 418 OFFCURVE",
"283 397 CURVE SMOOTH",
"250 335 OFFCURVE",
"219 271 OFFCURVE",
"190 205 CURVE",
"143 202 OFFCURVE",
"101 189 OFFCURVE",
"65 165 CURVE SMOOTH",
"22 136 OFFCURVE",
"1 100 OFFCURVE",
"1 55 CURVE SMOOTH",
"1 16 OFFCURVE",
"27 -14 OFFCURVE",
"79 -36 CURVE SMOOTH",
"119 -53 OFFCURVE",
"161 -62 OFFCURVE",
"206 -62 CURVE SMOOTH",
"273 -62 OFFCURVE",
"337 -53 OFFCURVE",
"398 -35 CURVE SMOOTH",
"468 -14 OFFCURVE",
"525 17 OFFCURVE",
"568 57 CURVE",
"577 48 OFFCURVE",
"586 34 OFFCURVE",
"596 16 CURVE SMOOTH",
"598 13 OFFCURVE",
"601 11 OFFCURVE",
"604 11 CURVE SMOOTH",
"611 11 OFFCURVE",
"615 16 OFFCURVE",
"615 25 CURVE SMOOTH",
"615 36 OFFCURVE",
"605 53 OFFCURVE",
"586 76 CURVE",
"619 113 OFFCURVE",
"635 148 OFFCURVE",
"635 179 CURVE SMOOTH",
"635 218 OFFCURVE",
"612 252 OFFCURVE",
"565 280 CURVE SMOOTH",
"532 300 OFFCURVE",
"491 316 OFFCURVE",
"443 327 CURVE",
"485 334 OFFCURVE",
"525 347 OFFCURVE",
"564 367 CURVE SMOOTH",
"616 393 OFFCURVE",
"642 422 OFFCURVE",
"642 454 CURVE SMOOTH"
);
},
{
closed = 1;
nodes = (
"466 1 OFFCURVE",
"354 -40 OFFCURVE",
"206 -40 CURVE SMOOTH",
"171 -40 OFFCURVE",
"138 -33 OFFCURVE",
"106 -19 CURVE SMOOTH",
"65 -1 OFFCURVE",
"45 22 OFFCURVE",
"45 53 CURVE SMOOTH",
"45 120 OFFCURVE",
"89 161 OFFCURVE",
"178 176 CURVE",
"144 93 OFFCURVE",
"127 37 OFFCURVE",
"127 7 CURVE SMOOTH",
"127 -11 OFFCURVE",
"132 -20 OFFCURVE",
"143 -20 CURVE SMOOTH",
"150 -20 OFFCURVE",
"154 -16 OFFCURVE",
"154 -7 CURVE SMOOTH",
"154 -5 OFFCURVE",
"154 -2 OFFCURVE",
"153 1 CURVE SMOOTH",
"152 4 OFFCURVE",
"152 7 OFFCURVE",
"152 9 CURVE SMOOTH",
"152 38 OFFCURVE",
"172 95 OFFCURVE",
"212 180 CURVE",
"221 181 OFFCURVE",
"231 181 OFFCURVE",
"241 181 CURVE SMOOTH",
"293 181 OFFCURVE",
"346 173 OFFCURVE",
"400 156 CURVE SMOOTH",
"457 138 OFFCURVE",
"504 113 OFFCURVE",
"541 82 CURVE"
);
}
);
width = 630;
}
);
note = B;
unicode = 0042;
},
{
color = 3;
glyphname = C;
lastChange = "2021-04-20 18:52:15 +0000";
layers = (
{
hints = (
{
horizontal = 1;
place = "{-47, 34}";
type = Stem;
},
{
horizontal = 1;
place = "{282, 30}";
type = Stem;
},
{
horizontal = 1;
place = "{513, 27}";
type = Stem;
},
{
place = "{49, 53}";
type = Stem;
},
{
place = "{411, 23}";
type = Stem;
},
{
place = "{672, 28}";
type = Stem;
}
);
layerId = "57DEED6F-9A00-47D0-BD9B-6FE09716AB2D";
paths = (
{
closed = 1;
nodes = (
"700 514 OFFCURVE",
"662 540 OFFCURVE",
"587 540 CURVE SMOOTH",
"500 540 OFFCURVE",
"411 512 OFFCURVE",
"321 457 CURVE SMOOTH",
"200 383 OFFCURVE",
"49 234 OFFCURVE",
"49 87 CURVE SMOOTH",
"49 41 OFFCURVE",
"67 6 OFFCURVE",
"102 -17 CURVE SMOOTH",
"132 -37 OFFCURVE",
"171 -47 OFFCURVE",
"220 -47 CURVE SMOOTH",
"279 -47 OFFCURVE",
"346 -30 OFFCURVE",
"419 5 CURVE SMOOTH",
"486 36 OFFCURVE",
"543 74 OFFCURVE",
"592 119 CURVE SMOOTH",
"595 122 OFFCURVE",
"596 125 OFFCURVE",
"596 128 CURVE SMOOTH",
"596 137 OFFCURVE",
"597 135 OFFCURVE",
"589 135 CURVE SMOOTH",
"586 135 OFFCURVE",
"584 134 OFFCURVE",
"581 131 CURVE SMOOTH",
"467 35 OFFCURVE",
"350 -13 OFFCURVE",
"229 -13 CURVE SMOOTH",
"192 -13 OFFCURVE",
"162 -5 OFFCURVE",
"140 13 CURVE SMOOTH",
"115 33 OFFCURVE",
"102 69 OFFCURVE",
"102 106 CURVE SMOOTH",
"102 248 OFFCURVE",
"243 371 OFFCURVE",
"360 439 CURVE SMOOTH",
"433 481 OFFCURVE",
"499 505 OFFCURVE",
"556 511 CURVE SMOOTH",
"567 512 OFFCURVE",
"578 513 OFFCURVE",
"589 513 CURVE SMOOTH",
"644 513 OFFCURVE",
"672 497 OFFCURVE",
"672 464 CURVE SMOOTH",
"672 431 OFFCURVE",
"650 397 OFFCURVE",
"605 363 CURVE SMOOTH",
"560 329 OFFCURVE",
"520 312 OFFCURVE",
"485 312 CURVE SMOOTH",
"451 312 OFFCURVE",
"434 325 OFFCURVE",
"434 351 CURVE SMOOTH",
"434 353 OFFCURVE",
"434 356 OFFCURVE",
"435 360 CURVE SMOOTH",
"436 364 OFFCURVE",
"436 367 OFFCURVE",
"436 369 CURVE SMOOTH",
"436 375 OFFCURVE",
"434 378 OFFCURVE",
"429 378 CURVE SMOOTH",
"417 378 OFFCURVE",
"411 365 OFFCURVE",
"411 338 CURVE SMOOTH",
"411 301 OFFCURVE",
"435 282 OFFCURVE",
"484 282 CURVE SMOOTH",
"531 282 OFFCURVE",
"578 301 OFFCURVE",
"625 337 CURVE SMOOTH",
"675 375 OFFCURVE",
"700 417 OFFCURVE",
"700 462 CURVE SMOOTH"
);
}
);
width = 568;
}
);
note = C;
unicode = 0043;
},
{
color = 3;
glyphname = Cacute;
lastChange = "2021-04-20 18:52:15 +0000";
layers = (
{
hints = (
{
horizontal = 1;
place = "{-47, 34}";
type = Stem;
},
{
horizontal = 1;
place = "{282, 30}";
type = Stem;
},
{
horizontal = 1;
place = "{513, 27}";
type = Stem;
},
{
horizontal = 1;
place = "{597, 20}";
type = Stem;
},
{
place = "{49, 53}";
type = Stem;
},
{
place = "{411, 23}";
type = Stem;
},
{
place = "{672, 28}";
type = Stem;
}
);
layerId = "57DEED6F-9A00-47D0-BD9B-6FE09716AB2D";
paths = (
{
closed = 1;
nodes = (
"700 514 OFFCURVE",
"662 540 OFFCURVE",
"587 540 CURVE SMOOTH",
"500 540 OFFCURVE",
"411 512 OFFCURVE",
"321 457 CURVE SMOOTH",
"200 383 OFFCURVE",
"49 234 OFFCURVE",
"49 87 CURVE SMOOTH",
"49 41 OFFCURVE",
"67 6 OFFCURVE",
"102 -17 CURVE SMOOTH",
"132 -37 OFFCURVE",
"171 -47 OFFCURVE",
"220 -47 CURVE SMOOTH",
"279 -47 OFFCURVE",
"346 -30 OFFCURVE",
"419 5 CURVE SMOOTH",
"486 36 OFFCURVE",
"543 74 OFFCURVE",
"592 119 CURVE SMOOTH",
"595 122 OFFCURVE",
"596 125 OFFCURVE",
"596 128 CURVE SMOOTH",
"596 137 OFFCURVE",
"597 135 OFFCURVE",
"589 135 CURVE SMOOTH",
"586 135 OFFCURVE",
"584 134 OFFCURVE",
"581 131 CURVE SMOOTH",
"467 35 OFFCURVE",
"350 -13 OFFCURVE",
"229 -13 CURVE SMOOTH",
"192 -13 OFFCURVE",
"162 -5 OFFCURVE",
"140 13 CURVE SMOOTH",
"115 33 OFFCURVE",
"102 69 OFFCURVE",
"102 106 CURVE SMOOTH",
"102 248 OFFCURVE",
"243 371 OFFCURVE",
"360 439 CURVE SMOOTH",
"433 481 OFFCURVE",
"499 505 OFFCURVE",
"556 511 CURVE SMOOTH",
"567 512 OFFCURVE",
"578 513 OFFCURVE",
"589 513 CURVE SMOOTH",
"644 513 OFFCURVE",
"672 497 OFFCURVE",
"672 464 CURVE SMOOTH",
"672 431 OFFCURVE",
"650 397 OFFCURVE",
"605 363 CURVE SMOOTH",
"560 329 OFFCURVE",
"520 312 OFFCURVE",
"485 312 CURVE SMOOTH",
"451 312 OFFCURVE",
"434 325 OFFCURVE",
"434 351 CURVE SMOOTH",
"434 353 OFFCURVE",
"434 356 OFFCURVE",
"435 360 CURVE SMOOTH",
"436 364 OFFCURVE",
"436 367 OFFCURVE",
"436 369 CURVE SMOOTH",
"436 375 OFFCURVE",
"434 378 OFFCURVE",
"429 378 CURVE SMOOTH",
"417 378 OFFCURVE",
"411 365 OFFCURVE",
"411 338 CURVE SMOOTH",
"411 301 OFFCURVE",
"435 282 OFFCURVE",
"484 282 CURVE SMOOTH",
"531 282 OFFCURVE",
"578 301 OFFCURVE",
"625 337 CURVE SMOOTH",
"675 375 OFFCURVE",
"700 417 OFFCURVE",
"700 462 CURVE SMOOTH"
);
},
{
closed = 1;
nodes = (
"707 696 OFFCURVE",
"704 700 OFFCURVE",
"698 700 CURVE SMOOTH",
"694 700 OFFCURVE",
"688 697 OFFCURVE",
"681 691 CURVE SMOOTH",
"576 610 LINE SMOOTH",
"573 608 OFFCURVE",
"572 606 OFFCURVE",
"572 603 CURVE SMOOTH",
"572 599 OFFCURVE",
"574 597 OFFCURVE",
"579 597 CURVE SMOOTH",
"583 597 OFFCURVE",
"602 607 OFFCURVE",
"637 628 CURVE SMOOTH",
"671 649 OFFCURVE",
"692 662 OFFCURVE",
"699 668 CURVE SMOOTH",
"704 673 OFFCURVE",
"707 679 OFFCURVE",
"707 687 CURVE SMOOTH"
);
}
);
width = 568;
}
);
note = Cacute;
unicode = 0106;
},
{
color = 3;
glyphname = Ccaron;
lastChange = "2021-04-20 18:52:15 +0000";
layers = (
{
hints = (
{
horizontal = 1;
place = "{-47, 34}";
type = Stem;
},
{
horizontal = 1;
place = "{282, 30}";
type = Stem;
},
{
horizontal = 1;
place = "{513, 27}";
type = Stem;
},
{
place = "{49, 53}";
type = Stem;
},
{
place = "{411, 23}";
type = Stem;
},
{
place = "{672, 28}";
type = Stem;
}
);
layerId = "57DEED6F-9A00-47D0-BD9B-6FE09716AB2D";
paths = (
{
closed = 1;
nodes = (
"700 514 OFFCURVE",
"662 540 OFFCURVE",
"587 540 CURVE SMOOTH",
"500 540 OFFCURVE",
"411 512 OFFCURVE",
"321 457 CURVE SMOOTH",
"200 383 OFFCURVE",
"49 234 OFFCURVE",
"49 87 CURVE SMOOTH",
"49 41 OFFCURVE",
"67 6 OFFCURVE",
"102 -17 CURVE SMOOTH",
"132 -37 OFFCURVE",
"171 -47 OFFCURVE",
"220 -47 CURVE SMOOTH",
"279 -47 OFFCURVE",
"346 -30 OFFCURVE",
"419 5 CURVE SMOOTH",
"486 36 OFFCURVE",
"543 74 OFFCURVE",
"592 119 CURVE SMOOTH",
"595 122 OFFCURVE",
"596 125 OFFCURVE",
"596 128 CURVE SMOOTH",
"596 137 OFFCURVE",
"597 135 OFFCURVE",
"589 135 CURVE SMOOTH",
"586 135 OFFCURVE",
"584 134 OFFCURVE",
"581 131 CURVE SMOOTH",
"467 35 OFFCURVE",
"350 -13 OFFCURVE",
"229 -13 CURVE SMOOTH",
"192 -13 OFFCURVE",
"162 -5 OFFCURVE",
"140 13 CURVE SMOOTH",
"115 33 OFFCURVE",
"102 69 OFFCURVE",
"102 106 CURVE SMOOTH",
"102 248 OFFCURVE",
"243 371 OFFCURVE",
"360 439 CURVE SMOOTH",
"433 481 OFFCURVE",
"499 505 OFFCURVE",
"556 511 CURVE SMOOTH",
"567 512 OFFCURVE",
"578 513 OFFCURVE",
"589 513 CURVE SMOOTH",
"644 513 OFFCURVE",
"672 497 OFFCURVE",
"672 464 CURVE SMOOTH",
"672 431 OFFCURVE",
"650 397 OFFCURVE",
"605 363 CURVE SMOOTH",
"560 329 OFFCURVE",
"520 312 OFFCURVE",
"485 312 CURVE SMOOTH",
"451 312 OFFCURVE",
"434 325 OFFCURVE",
"434 351 CURVE SMOOTH",
"434 353 OFFCURVE",
"434 356 OFFCURVE",
"435 360 CURVE SMOOTH",
"436 364 OFFCURVE",
"436 367 OFFCURVE",
"436 369 CURVE SMOOTH",
"436 375 OFFCURVE",
"434 378 OFFCURVE",
"429 378 CURVE SMOOTH",
"417 378 OFFCURVE",
"411 365 OFFCURVE",
"411 338 CURVE SMOOTH",
"411 301 OFFCURVE",
"435 282 OFFCURVE",
"484 282 CURVE SMOOTH",
"531 282 OFFCURVE",
"578 301 OFFCURVE",
"625 337 CURVE SMOOTH",
"675 375 OFFCURVE",
"700 417 OFFCURVE",
"700 462 CURVE SMOOTH"
);
},
{
closed = 1;
nodes = (
"595 623 OFFCURVE",
"615 602 OFFCURVE",
"621 591 CURVE SMOOTH",
"623 587 OFFCURVE",
"626 585 OFFCURVE",
"629 585 CURVE SMOOTH",
"638 585 OFFCURVE",
"653 597 OFFCURVE",
"679 614 CURVE SMOOTH",
"708 634 OFFCURVE",
"723 645 OFFCURVE",
"724 649 CURVE",
"725 650 OFFCURVE",
"725 651 OFFCURVE",
"725 652 CURVE SMOOTH",
"725 654 OFFCURVE",
"723 654 OFFCURVE",
"721 654 CURVE SMOOTH",
"716 654 OFFCURVE",
"689 639 OFFCURVE",
"641 606 CURVE",
"636 613 OFFCURVE",
"627 624 OFFCURVE",
"610 636 CURVE",
"610 637 OFFCURVE",
"595 651 OFFCURVE",
"584 655 CURVE SMOOTH",
"582 656 OFFCURVE",
"580 656 OFFCURVE",
"578 656 CURVE SMOOTH",
"574 656 OFFCURVE",
"570 654 OFFCURVE",
"570 652 CURVE",
"570 652 OFFCURVE",
"570 651 OFFCURVE",
"571 647 CURVE"
);
}
);
width = 568;
}
);
note = Ccaron;
unicode = 010C;
},
{
color = 3;
glyphname = Ccedilla;
lastChange = "2021-04-20 18:52:15 +0000";
layers = (
{
hints = (
{
horizontal = 1;
place = "{-47, 39}";
type = Stem;
},
{
horizontal = 1;
place = "{282, 30}";
type = Stem;
},
{
horizontal = 1;
place = "{513, 27}";
type = Stem;
},
{
place = "{-5, 47}";
type = Stem;
},
{
place = "{60, 36}";
type = Stem;
},
{
place = "{112, 42}";
type = Stem;
},
{
place = "{357, 23}";
type = Stem;
},
{
place = "{618, 28}";
type = Stem;
}
);
layerId = "57DEED6F-9A00-47D0-BD9B-6FE09716AB2D";
paths = (
{
closed = 1;
nodes = (
"196 -188 OFFCURVE",
"186 -167 OFFCURVE",
"167 -142 CURVE SMOOTH",
"148 -118 OFFCURVE",
"138 -102 OFFCURVE",
"138 -94 CURVE SMOOTH",
"138 -73 OFFCURVE",
"144 -57 OFFCURVE",
"155 -47 CURVE",
"166 -47 LINE SMOOTH",
"225 -47 OFFCURVE",
"292 -30 OFFCURVE",
"365 5 CURVE SMOOTH",
"432 36 OFFCURVE",
"489 74 OFFCURVE",
"538 119 CURVE SMOOTH",
"541 122 OFFCURVE",
"542 125 OFFCURVE",
"542 128 CURVE SMOOTH",
"542 137 OFFCURVE",
"538 141 OFFCURVE",
"530 141 CURVE SMOOTH",
"527 141 OFFCURVE",
"525 140 OFFCURVE",
"522 138 CURVE SMOOTH",
"408 43 OFFCURVE",
"290 -4 OFFCURVE",
"169 -4 CURVE SMOOTH",
"131 -4 OFFCURVE",
"101 5 OFFCURVE",
"79 22 CURVE SMOOTH",
"54 41 OFFCURVE",
"42 69 OFFCURVE",
"42 106 CURVE SMOOTH",
"42 165 OFFCURVE",
"69 226 OFFCURVE",
"123 290 CURVE SMOOTH",
"171 347 OFFCURVE",
"233 396 OFFCURVE",
"306 439 CURVE SMOOTH",
"379 481 OFFCURVE",
"445 505 OFFCURVE",
"502 511 CURVE SMOOTH",
"513 512 OFFCURVE",
"524 513 OFFCURVE",
"535 513 CURVE SMOOTH",
"590 513 OFFCURVE",
"618 497 OFFCURVE",
"618 464 CURVE SMOOTH",
"618 431 OFFCURVE",
"596 397 OFFCURVE",
"551 363 CURVE SMOOTH",
"506 329 OFFCURVE",
"466 312 OFFCURVE",
"431 312 CURVE SMOOTH",
"397 312 OFFCURVE",
"380 325 OFFCURVE",
"380 351 CURVE SMOOTH",
"380 353 OFFCURVE",
"380 356 OFFCURVE",
"381 360 CURVE SMOOTH",
"382 364 OFFCURVE",
"382 367 OFFCURVE",
"382 369 CURVE SMOOTH",
"382 375 OFFCURVE",
"380 378 OFFCURVE",
"375 378 CURVE SMOOTH",
"363 378 OFFCURVE",
"357 365 OFFCURVE",
"357 338 CURVE SMOOTH",
"357 301 OFFCURVE",
"381 282 OFFCURVE",
"430 282 CURVE SMOOTH",
"477 282 OFFCURVE",
"524 301 OFFCURVE",
"571 337 CURVE SMOOTH",
"621 375 OFFCURVE",
"646 417 OFFCURVE",
"646 462 CURVE SMOOTH",
"646 514 OFFCURVE",
"608 540 OFFCURVE",
"533 540 CURVE SMOOTH",
"446 540 OFFCURVE",
"357 512 OFFCURVE",
"267 457 CURVE SMOOTH",
"183 406 OFFCURVE",
"115 343 OFFCURVE",
"62 266 CURVE SMOOTH",
"17 201 OFFCURVE",
"-5 142 OFFCURVE",
"-5 87 CURVE SMOOTH",
"-5 41 OFFCURVE",
"13 6 OFFCURVE",
"48 -17 CURVE SMOOTH",
"70 -31 OFFCURVE",
"96 -41 OFFCURVE",
"128 -45 CURVE",
"125 -47 OFFCURVE",
"123 -50 OFFCURVE",
"121 -53 CURVE SMOOTH",
"108 -70 OFFCURVE",
"102 -89 OFFCURVE",
"102 -111 CURVE SMOOTH",
"102 -124 OFFCURVE",
"111 -143 OFFCURVE",
"128 -168 CURVE SMOOTH",
"145 -192 OFFCURVE",
"154 -209 OFFCURVE",
"154 -218 CURVE SMOOTH",
"154 -250 OFFCURVE",
"142 -269 OFFCURVE",
"119 -276 CURVE",
"95 -279 OFFCURVE",
"71 -283 OFFCURVE",
"47 -287 CURVE",
"41 -289 OFFCURVE",
"38 -292 OFFCURVE",
"38 -295 CURVE SMOOTH",
"38 -302 OFFCURVE",
"41 -306 OFFCURVE",
"47 -306 CURVE SMOOTH",
"82 -306 OFFCURVE",
"114 -298 OFFCURVE",
"143 -283 CURVE SMOOTH",
"178 -264 OFFCURVE",
"196 -239 OFFCURVE",
"196 -207 CURVE SMOOTH"
);
}
);
width = 516;
}
);
note = Ccedilla;
unicode = 00C7;
},
{
color = 3;
glyphname = Ccircumflex;
lastChange = "2021-04-20 18:52:15 +0000";
layers = (
{
hints = (
{
horizontal = 1;
place = "{-47, 34}";
type = Stem;
},
{
horizontal = 1;
place = "{282, 30}";
type = Stem;
},
{
horizontal = 1;
place = "{513, 27}";
type = Stem;
},
{
place = "{49, 53}";
type = Stem;
},
{
place = "{411, 23}";
type = Stem;
},
{
place = "{672, 28}";
type = Stem;
}
);
layerId = "57DEED6F-9A00-47D0-BD9B-6FE09716AB2D";
paths = (
{
closed = 1;
nodes = (
"700 514 OFFCURVE",
"662 540 OFFCURVE",
"587 540 CURVE SMOOTH",
"500 540 OFFCURVE",
"411 512 OFFCURVE",
"321 457 CURVE SMOOTH",
"200 383 OFFCURVE",
"49 234 OFFCURVE",
"49 87 CURVE SMOOTH",
"49 41 OFFCURVE",
"67 6 OFFCURVE",
"102 -17 CURVE SMOOTH",
"132 -37 OFFCURVE",
"171 -47 OFFCURVE",
"220 -47 CURVE SMOOTH",
"279 -47 OFFCURVE",
"346 -30 OFFCURVE",
"419 5 CURVE SMOOTH",
"486 36 OFFCURVE",
"543 74 OFFCURVE",
"592 119 CURVE SMOOTH",
"595 122 OFFCURVE",
"596 125 OFFCURVE",
"596 128 CURVE SMOOTH",
"596 137 OFFCURVE",
"597 135 OFFCURVE",
"589 135 CURVE SMOOTH",
"586 135 OFFCURVE",
"584 134 OFFCURVE",
"581 131 CURVE SMOOTH",
"467 35 OFFCURVE",
"350 -13 OFFCURVE",
"229 -13 CURVE SMOOTH",
"192 -13 OFFCURVE",
"162 -5 OFFCURVE",
"140 13 CURVE SMOOTH",
"115 33 OFFCURVE",
"102 69 OFFCURVE",
"102 106 CURVE SMOOTH",
"102 248 OFFCURVE",
"243 371 OFFCURVE",
"360 439 CURVE SMOOTH",
"433 481 OFFCURVE",
"499 505 OFFCURVE",
"556 511 CURVE SMOOTH",
"567 512 OFFCURVE",
"578 513 OFFCURVE",
"589 513 CURVE SMOOTH",
"644 513 OFFCURVE",
"672 497 OFFCURVE",
"672 464 CURVE SMOOTH",
"672 431 OFFCURVE",
"650 397 OFFCURVE",
"605 363 CURVE SMOOTH",
"560 329 OFFCURVE",
"520 312 OFFCURVE",
"485 312 CURVE SMOOTH",
"451 312 OFFCURVE",
"434 325 OFFCURVE",
"434 351 CURVE SMOOTH",
"434 353 OFFCURVE",
"434 356 OFFCURVE",
"435 360 CURVE SMOOTH",
"436 364 OFFCURVE",
"436 367 OFFCURVE",
"436 369 CURVE SMOOTH",
"436 375 OFFCURVE",
"434 378 OFFCURVE",
"429 378 CURVE SMOOTH",
"417 378 OFFCURVE",
"411 365 OFFCURVE",
"411 338 CURVE SMOOTH",
"411 301 OFFCURVE",
"435 282 OFFCURVE",
"484 282 CURVE SMOOTH",
"531 282 OFFCURVE",
"578 301 OFFCURVE",
"625 337 CURVE SMOOTH",
"675 375 OFFCURVE",
"700 417 OFFCURVE",
"700 462 CURVE SMOOTH"
);
},
{
closed = 1;
nodes = (
"681 601 LINE",
"650 632 OFFCURVE",
"625 659 OFFCURVE",
"618 673 CURVE SMOOTH",
"608 691 OFFCURVE",
"589 673 OFFCURVE",
"544 643 CURVE SMOOTH",
"507 618 OFFCURVE",
"488 604 OFFCURVE",
"487 599 CURVE SMOOTH",
"485 594 OFFCURVE",
"487 592 OFFCURVE",
"491 592 CURVE SMOOTH",
"497 592 OFFCURVE",
"531 612 OFFCURVE",
"592 653 CURVE",
"598 644 OFFCURVE",
"610 631 OFFCURVE",
"631 615 CURVE SMOOTH",
"632 614 OFFCURVE",
"651 597 OFFCURVE",
"665 591 CURVE SMOOTH",
"674 587 OFFCURVE",
"684 592 OFFCURVE",
"682 597 CURVE SMOOTH"
);
}
);
width = 568;
}
);
note = Ccircumflex;
unicode = 0108;
},
{
color = 3;
glyphname = Cdotaccent;
lastChange = "2021-04-20 18:52:15 +0000";
layers = (
{
hints = (
{
horizontal = 1;
place = "{-47, 34}";
type = Stem;
},
{
horizontal = 1;
place = "{282, 30}";
type = Stem;
},
{
horizontal = 1;
place = "{513, 27}";
type = Stem;
},
{
place = "{49, 53}";
type = Stem;
},
{
place = "{411, 23}";
type = Stem;
},
{
place = "{672, 28}";
type = Stem;
}
);
layerId = "57DEED6F-9A00-47D0-BD9B-6FE09716AB2D";
paths = (
{
closed = 1;
nodes = (
"700 514 OFFCURVE",
"662 540 OFFCURVE",
"587 540 CURVE SMOOTH",
"500 540 OFFCURVE",
"411 512 OFFCURVE",
"321 457 CURVE SMOOTH",
"200 383 OFFCURVE",
"49 234 OFFCURVE",
"49 87 CURVE SMOOTH",
"49 41 OFFCURVE",
"67 6 OFFCURVE",
"102 -17 CURVE SMOOTH",
"132 -37 OFFCURVE",
"171 -47 OFFCURVE",
"220 -47 CURVE SMOOTH",
"279 -47 OFFCURVE",
"346 -30 OFFCURVE",
"419 5 CURVE SMOOTH",
"486 36 OFFCURVE",
"543 74 OFFCURVE",
"592 119 CURVE SMOOTH",
"595 122 OFFCURVE",
"596 125 OFFCURVE",
"596 128 CURVE SMOOTH",
"596 137 OFFCURVE",
"597 135 OFFCURVE",
"589 135 CURVE SMOOTH",
"586 135 OFFCURVE",
"584 134 OFFCURVE",
"581 131 CURVE SMOOTH",
"467 35 OFFCURVE",
"350 -13 OFFCURVE",
"229 -13 CURVE SMOOTH",
"192 -13 OFFCURVE",
"162 -5 OFFCURVE",
"140 13 CURVE SMOOTH",
"115 33 OFFCURVE",
"102 69 OFFCURVE",
"102 106 CURVE SMOOTH",
"102 248 OFFCURVE",
"243 371 OFFCURVE",
"360 439 CURVE SMOOTH",
"433 481 OFFCURVE",
"499 505 OFFCURVE",
"556 511 CURVE SMOOTH",
"567 512 OFFCURVE",
"578 513 OFFCURVE",
"589 513 CURVE SMOOTH",
"644 513 OFFCURVE",
"672 497 OFFCURVE",
"672 464 CURVE SMOOTH",
"672 431 OFFCURVE",
"650 397 OFFCURVE",
"605 363 CURVE SMOOTH",
"560 329 OFFCURVE",
"520 312 OFFCURVE",
"485 312 CURVE SMOOTH",
"451 312 OFFCURVE",
"434 325 OFFCURVE",
"434 351 CURVE SMOOTH",
"434 353 OFFCURVE",
"434 356 OFFCURVE",
"435 360 CURVE SMOOTH",
"436 364 OFFCURVE",
"436 367 OFFCURVE",
"436 369 CURVE SMOOTH",
"436 375 OFFCURVE",
"434 378 OFFCURVE",
"429 378 CURVE SMOOTH",
"417 378 OFFCURVE",
"411 365 OFFCURVE",
"411 338 CURVE SMOOTH",
"411 301 OFFCURVE",
"435 282 OFFCURVE",
"484 282 CURVE SMOOTH",
"531 282 OFFCURVE",
"578 301 OFFCURVE",
"625 337 CURVE SMOOTH",
"675 375 OFFCURVE",
"700 417 OFFCURVE",
"700 462 CURVE SMOOTH"
);
},
{
closed = 1;
nodes = (
"603 603 OFFCURVE",
"613 594 OFFCURVE",
"629 594 CURVE SMOOTH",
"645 594 OFFCURVE",
"658 609 OFFCURVE",
"658 624 CURVE SMOOTH",
"658 637 OFFCURVE",
"649 648 OFFCURVE",
"634 648 CURVE SMOOTH",
"616 648 OFFCURVE",
"603 630 OFFCURVE",
"603 615 CURVE SMOOTH"
);
}
);
width = 568;
}
);
note = Cdotaccent;
unicode = 010A;
},
{
color = 3;
glyphname = D;
lastChange = "2021-04-20 18:52:15 +0000";
layers = (
{
hints = (
{
horizontal = 1;
place = "{-63, 23}";
type = Stem;
},
{
horizontal = 1;
place = "{534, 27}";
type = Stem;
},
{
place = "{-21, 44}";
type = Stem;
},
{
place = "{105, 25}";
type = Stem;
},
{
place = "{726, 39}";
type = Stem;
}
);
layerId = "57DEED6F-9A00-47D0-BD9B-6FE09716AB2D";
paths = (
{
closed = 1;
nodes = (
"786 398 OFFCURVE",
"737 464 OFFCURVE",
"640 509 CURVE SMOOTH",
"565 543 OFFCURVE",
"479 561 OFFCURVE",
"380 561 CURVE SMOOTH",
"336 561 OFFCURVE",
"288 557 OFFCURVE",
"237 549 CURVE SMOOTH",
"176 539 OFFCURVE",
"130 526 OFFCURVE",
"100 510 CURVE SMOOTH",
"79 499 OFFCURVE",
"69 486 OFFCURVE",
"69 471 CURVE SMOOTH",
"69 461 OFFCURVE",
"73 456 OFFCURVE",
"82 456 CURVE SMOOTH",
"85 456 OFFCURVE",
"90 457 OFFCURVE",
"95 460 CURVE SMOOTH",
"182 509 OFFCURVE",
"282 534 OFFCURVE",
"395 534 CURVE SMOOTH",
"480 534 OFFCURVE",
"555 519 OFFCURVE",
"620 489 CURVE SMOOTH",
"705 449 OFFCURVE",
"747 391 OFFCURVE",
"747 316 CURVE SMOOTH",
"747 269 OFFCURVE",
"731 223 OFFCURVE",
"698 176 CURVE SMOOTH",
"670 136 OFFCURVE",
"634 101 OFFCURVE",
"590 70 CURVE",
"525 156 OFFCURVE",
"402 201 OFFCURVE",
"223 205 CURVE",
"276 312 OFFCURVE",
"334 408 OFFCURVE",
"397 493 CURVE",
"398 495 OFFCURVE",
"399 497 OFFCURVE",
"399 499 CURVE SMOOTH",
"399 504 OFFCURVE",
"394 507 OFFCURVE",
"385 507 CURVE SMOOTH",
"362 507 OFFCURVE",
"344 500 OFFCURVE",
"334 485 CURVE SMOOTH",
"312 454 OFFCURVE",
"298 426 OFFCURVE",
"287 406 CURVE SMOOTH",
"252 342 OFFCURVE",
"219 275 OFFCURVE",
"189 205 CURVE",
"142 202 OFFCURVE",
"99 189 OFFCURVE",
"63 165 CURVE SMOOTH",
"21 137 OFFCURVE",
"0 100 OFFCURVE",
"0 55 CURVE SMOOTH",
"0 18 OFFCURVE",
"26 -12 OFFCURVE",
"78 -34 CURVE SMOOTH",
"117 -51 OFFCURVE",
"159 -60 OFFCURVE",
"204 -62 CURVE SMOOTH",
"217 -63 OFFCURVE",
"230 -63 OFFCURVE",
"244 -63 CURVE SMOOTH",
"374 -63 OFFCURVE",
"489 -33 OFFCURVE",
"589 27 CURVE",
"596 16 OFFCURVE",
"600 11 OFFCURVE",
"603 11 CURVE SMOOTH",
"610 11 OFFCURVE",
"613 16 OFFCURVE",
"613 25 CURVE SMOOTH",
"613 28 OFFCURVE",
"612 33 OFFCURVE",
"609 39 CURVE",
"659 72 OFFCURVE",
"700 111 OFFCURVE",
"731 155 CURVE SMOOTH",
"768 206 OFFCURVE",
"786 258 OFFCURVE",
"786 311 CURVE SMOOTH"
);
},
{
closed = 1;
nodes = (
"469 -8 OFFCURVE",
"357 -40 OFFCURVE",
"230 -40 CURVE SMOOTH",
"205 -40 LINE SMOOTH",
"169 -39 OFFCURVE",
"136 -31 OFFCURVE",
"105 -18 CURVE SMOOTH",
"64 -1 OFFCURVE",
"44 23 OFFCURVE",
"44 53 CURVE SMOOTH",
"44 120 OFFCURVE",
"88 161 OFFCURVE",
"177 176 CURVE",
"143 93 OFFCURVE",
"126 37 OFFCURVE",
"126 7 CURVE SMOOTH",
"126 -11 OFFCURVE",
"131 -20 OFFCURVE",
"142 -20 CURVE SMOOTH",
"149 -20 OFFCURVE",
"153 -16 OFFCURVE",
"153 -7 CURVE SMOOTH",
"153 -5 OFFCURVE",
"153 -2 OFFCURVE",
"152 1 CURVE SMOOTH",
"151 4 OFFCURVE",
"151 7 OFFCURVE",
"151 9 CURVE SMOOTH",
"151 38 OFFCURVE",
"171 95 OFFCURVE",
"211 180 CURVE",
"220 181 OFFCURVE",
"228 181 OFFCURVE",
"237 181 CURVE SMOOTH",
"293 181 OFFCURVE",
"353 170 OFFCURVE",
"416 148 CURVE SMOOTH",
"487 124 OFFCURVE",
"537 93 OFFCURVE",
"568 55 CURVE"
);
}
);
width = 786;
}
);
note = D;
unicode = 0044;
},
{
color = 3;
glyphname = Eth;
lastChange = "2021-04-20 18:52:15 +0000";
layers = (
{
hints = (
{
horizontal = 1;
place = "{-60, 16}";
type = Stem;
},
{
horizontal = 1;
place = "{558, -20}";
target = down;
type = TopGhost;
},
{
place = "{-17, 36}";
type = Stem;
},
{
place = "{108, 18}";
type = Stem;
},
{
place = "{730, 32}";
type = Stem;
}
);
layerId = "57DEED6F-9A00-47D0-BD9B-6FE09716AB2D";
paths = (
{
closed = 1;
nodes = (
"403 358 OFFCURVE",
"395 358 OFFCURVE",
"378 358 CURVE",
"300 348 LINE",
"331 399 OFFCURVE",
"363 447 OFFCURVE",
"397 493 CURVE SMOOTH",
"398 495 OFFCURVE",
"399 497 OFFCURVE",
"399 499 CURVE SMOOTH",
"399 504 OFFCURVE",
"394 507 OFFCURVE",
"385 507 CURVE SMOOTH",
"362 507 OFFCURVE",
"344 500 OFFCURVE",
"334 485 CURVE SMOOTH",
"312 454 OFFCURVE",
"298 426 OFFCURVE",
"287 406 CURVE SMOOTH",
"275 384 OFFCURVE",
"263 362 OFFCURVE",
"252 339 CURVE",
"249 339 OFFCURVE",
"246 338 OFFCURVE",
"243 338 CURVE",
"211 331 OFFCURVE",
"191 324 OFFCURVE",
"178 318 CURVE SMOOTH",
"154 306 OFFCURVE",
"140 295 OFFCURVE",
"139 287 CURVE SMOOTH",
"138 282 OFFCURVE",
"145 282 OFFCURVE",
"157 284 CURVE",
"163 286 LINE",
"188 291 OFFCURVE",
"211 296 OFFCURVE",
"233 302 CURVE",
"217 270 OFFCURVE",
"203 238 OFFCURVE",
"189 205 CURVE",
"142 202 OFFCURVE",
"99 189 OFFCURVE",
"63 165 CURVE SMOOTH",
"21 137 OFFCURVE",
"0 100 OFFCURVE",
"0 55 CURVE SMOOTH",
"0 18 OFFCURVE",
"26 -12 OFFCURVE",
"78 -34 CURVE SMOOTH",
"117 -51 OFFCURVE",
"159 -60 OFFCURVE",
"204 -62 CURVE SMOOTH",
"217 -63 OFFCURVE",
"230 -63 OFFCURVE",
"244 -63 CURVE SMOOTH",
"374 -63 OFFCURVE",
"489 -33 OFFCURVE",
"589 27 CURVE",
"596 16 OFFCURVE",
"600 11 OFFCURVE",
"603 11 CURVE SMOOTH",
"610 11 OFFCURVE",
"613 16 OFFCURVE",
"613 25 CURVE SMOOTH",
"613 28 OFFCURVE",
"612 33 OFFCURVE",
"609 39 CURVE",
"659 72 OFFCURVE",
"700 111 OFFCURVE",
"731 155 CURVE SMOOTH",
"768 206 OFFCURVE",
"786 258 OFFCURVE",
"786 311 CURVE SMOOTH",
"786 398 OFFCURVE",
"737 464 OFFCURVE",
"640 509 CURVE SMOOTH",
"565 543 OFFCURVE",
"479 561 OFFCURVE",
"380 561 CURVE SMOOTH",
"336 561 OFFCURVE",
"288 557 OFFCURVE",
"237 549 CURVE SMOOTH",
"176 539 OFFCURVE",
"130 526 OFFCURVE",
"100 510 CURVE SMOOTH",
"79 499 OFFCURVE",
"69 486 OFFCURVE",
"69 471 CURVE SMOOTH",
"69 461 OFFCURVE",
"73 456 OFFCURVE",
"82 456 CURVE SMOOTH",
"85 456 OFFCURVE",
"90 457 OFFCURVE",
"95 460 CURVE SMOOTH",
"182 509 OFFCURVE",
"282 534 OFFCURVE",
"395 534 CURVE SMOOTH",
"480 534 OFFCURVE",
"555 519 OFFCURVE",
"620 489 CURVE SMOOTH",
"705 449 OFFCURVE",
"747 391 OFFCURVE",
"747 316 CURVE SMOOTH",
"747 269 OFFCURVE",
"731 223 OFFCURVE",
"698 176 CURVE SMOOTH",
"670 136 OFFCURVE",
"634 101 OFFCURVE",
"590 70 CURVE",
"525 156 OFFCURVE",
"402 201 OFFCURVE",
"223 205 CURVE",
"241 243 OFFCURVE",
"261 279 OFFCURVE",
"281 314 CURVE",
"319 324 OFFCURVE",
"351 334 OFFCURVE",
"375 341 CURVE",
"393 344 OFFCURVE",
"403 349 OFFCURVE",
"403 354 CURVE SMOOTH"
);
},
{
closed = 1;
nodes = (
"469 -8 OFFCURVE",
"357 -40 OFFCURVE",
"230 -40 CURVE SMOOTH",
"205 -40 LINE SMOOTH",
"169 -39 OFFCURVE",
"136 -31 OFFCURVE",
"105 -18 CURVE SMOOTH",
"64 -1 OFFCURVE",
"44 23 OFFCURVE",
"44 53 CURVE SMOOTH",
"44 120 OFFCURVE",
"88 161 OFFCURVE",
"177 176 CURVE",
"143 93 OFFCURVE",
"126 37 OFFCURVE",
"126 7 CURVE SMOOTH",
"126 -11 OFFCURVE",
"131 -20 OFFCURVE",
"142 -20 CURVE SMOOTH",
"149 -20 OFFCURVE",
"153 -16 OFFCURVE",
"153 -7 CURVE SMOOTH",
"153 -5 OFFCURVE",
"153 -2 OFFCURVE",
"152 1 CURVE SMOOTH",
"151 4 OFFCURVE",
"151 7 OFFCURVE",
"151 9 CURVE SMOOTH",
"151 38 OFFCURVE",
"171 95 OFFCURVE",
"211 180 CURVE",
"220 181 OFFCURVE",
"228 181 OFFCURVE",
"237 181 CURVE SMOOTH",
"293 181 OFFCURVE",
"353 170 OFFCURVE",
"416 148 CURVE SMOOTH",
"487 124 OFFCURVE",
"537 93 OFFCURVE",
"568 55 CURVE"
);
}
);
width = 786;
}
);
note = Eth;
unicode = 00D0;
},
{
color = 3;
glyphname = Dcaron;
lastChange = "2021-04-20 18:52:15 +0000";
layers = (
{
hints = (
{
horizontal = 1;
place = "{-63, 23}";
type = Stem;
},
{
horizontal = 1;
place = "{534, 27}";
type = Stem;
},
{
place = "{-21, 44}";
type = Stem;
},
{
place = "{105, 25}";
type = Stem;
},
{
place = "{726, 39}";
type = Stem;
}
);
layerId = "57DEED6F-9A00-47D0-BD9B-6FE09716AB2D";
paths = (
{
closed = 1;
nodes = (
"786 398 OFFCURVE",
"737 464 OFFCURVE",
"640 509 CURVE SMOOTH",
"565 543 OFFCURVE",
"479 561 OFFCURVE",
"380 561 CURVE SMOOTH",
"336 561 OFFCURVE",
"288 557 OFFCURVE",
"237 549 CURVE SMOOTH",
"176 539 OFFCURVE",
"130 526 OFFCURVE",
"100 510 CURVE SMOOTH",
"79 499 OFFCURVE",
"69 486 OFFCURVE",
"69 471 CURVE SMOOTH",
"69 461 OFFCURVE",
"73 456 OFFCURVE",
"82 456 CURVE SMOOTH",
"85 456 OFFCURVE",
"90 457 OFFCURVE",
"95 460 CURVE SMOOTH",
"182 509 OFFCURVE",
"282 534 OFFCURVE",
"395 534 CURVE SMOOTH",
"480 534 OFFCURVE",
"555 519 OFFCURVE",
"620 489 CURVE SMOOTH",
"705 449 OFFCURVE",
"747 391 OFFCURVE",
"747 316 CURVE SMOOTH",
"747 269 OFFCURVE",
"731 223 OFFCURVE",
"698 176 CURVE SMOOTH",
"670 136 OFFCURVE",
"634 101 OFFCURVE",
"590 70 CURVE",
"525 156 OFFCURVE",
"402 201 OFFCURVE",
"223 205 CURVE",
"276 312 OFFCURVE",
"334 408 OFFCURVE",
"397 493 CURVE",
"398 495 OFFCURVE",
"399 497 OFFCURVE",
"399 499 CURVE SMOOTH",
"399 504 OFFCURVE",
"394 507 OFFCURVE",
"385 507 CURVE SMOOTH",
"362 507 OFFCURVE",
"344 500 OFFCURVE",
"334 485 CURVE SMOOTH",
"312 454 OFFCURVE",
"298 426 OFFCURVE",
"287 406 CURVE SMOOTH",
"252 342 OFFCURVE",
"219 275 OFFCURVE",
"189 205 CURVE",
"142 202 OFFCURVE",
"99 189 OFFCURVE",
"63 165 CURVE SMOOTH",
"21 137 OFFCURVE",
"0 100 OFFCURVE",
"0 55 CURVE SMOOTH",
"0 18 OFFCURVE",
"26 -12 OFFCURVE",
"78 -34 CURVE SMOOTH",
"117 -51 OFFCURVE",
"159 -60 OFFCURVE",
"204 -62 CURVE SMOOTH",
"217 -63 OFFCURVE",
"230 -63 OFFCURVE",
"244 -63 CURVE SMOOTH",
"374 -63 OFFCURVE",
"489 -33 OFFCURVE",
"589 27 CURVE",
"596 16 OFFCURVE",
"600 11 OFFCURVE",
"603 11 CURVE SMOOTH",
"610 11 OFFCURVE",
"613 16 OFFCURVE",
"613 25 CURVE SMOOTH",
"613 28 OFFCURVE",
"612 33 OFFCURVE",
"609 39 CURVE",
"659 72 OFFCURVE",
"700 111 OFFCURVE",
"731 155 CURVE SMOOTH",
"768 206 OFFCURVE",
"786 258 OFFCURVE",
"786 311 CURVE SMOOTH"
);
},
{
closed = 1;
nodes = (
"469 -8 OFFCURVE",
"357 -40 OFFCURVE",
"230 -40 CURVE SMOOTH",
"205 -40 LINE SMOOTH",
"169 -39 OFFCURVE",
"136 -31 OFFCURVE",
"105 -18 CURVE SMOOTH",
"64 -1 OFFCURVE",
"44 23 OFFCURVE",
"44 53 CURVE SMOOTH",
"44 120 OFFCURVE",
"88 161 OFFCURVE",
"177 176 CURVE",
"143 93 OFFCURVE",
"126 37 OFFCURVE",
"126 7 CURVE SMOOTH",
"126 -11 OFFCURVE",
"131 -20 OFFCURVE",
"142 -20 CURVE SMOOTH",
"149 -20 OFFCURVE",
"153 -16 OFFCURVE",
"153 -7 CURVE SMOOTH",
"153 -5 OFFCURVE",
"153 -2 OFFCURVE",
"152 1 CURVE SMOOTH",
"151 4 OFFCURVE",
"151 7 OFFCURVE",
"151 9 CURVE SMOOTH",
"151 38 OFFCURVE",
"171 95 OFFCURVE",
"211 180 CURVE",
"220 181 OFFCURVE",
"228 181 OFFCURVE",
"237 181 CURVE SMOOTH",
"293 181 OFFCURVE",
"353 170 OFFCURVE",
"416 148 CURVE SMOOTH",
"487 124 OFFCURVE",
"537 93 OFFCURVE",
"568 55 CURVE"
);
},
{
closed = 1;
nodes = (
"511 657 OFFCURVE",
"531 636 OFFCURVE",
"537 625 CURVE SMOOTH",
"539 621 OFFCURVE",
"542 619 OFFCURVE",
"545 619 CURVE SMOOTH",
"554 619 OFFCURVE",
"569 631 OFFCURVE",
"595 648 CURVE SMOOTH",
"624 668 OFFCURVE",
"639 679 OFFCURVE",
"640 683 CURVE",
"641 684 OFFCURVE",
"641 685 OFFCURVE",
"641 686 CURVE SMOOTH",
"641 688 OFFCURVE",
"639 688 OFFCURVE",
"637 688 CURVE SMOOTH",
"632 688 OFFCURVE",
"605 673 OFFCURVE",
"557 640 CURVE",
"552 647 OFFCURVE",
"543 658 OFFCURVE",
"526 670 CURVE",
"526 671 OFFCURVE",
"511 685 OFFCURVE",
"500 689 CURVE SMOOTH",
"498 690 OFFCURVE",
"496 690 OFFCURVE",
"494 690 CURVE SMOOTH",
"490 690 OFFCURVE",
"486 688 OFFCURVE",
"486 686 CURVE",
"486 686 OFFCURVE",
"486 685 OFFCURVE",
"487 681 CURVE"
);
}
);
width = 786;
}
);
note = Dcaron;
unicode = 010E;
},
{
color = 3;
glyphname = Dcroat;
lastChange = "2021-04-20 18:52:15 +0000";
layers = (
{
hints = (
{
horizontal = 1;
place = "{-63, 23}";
type = Stem;
},
{
horizontal = 1;
place = "{534, 27}";
type = Stem;
},
{
place = "{-21, 44}";
type = Stem;
},
{
place = "{105, 25}";
type = Stem;
},
{
place = "{726, 39}";
type = Stem;
}
);
layerId = "57DEED6F-9A00-47D0-BD9B-6FE09716AB2D";
paths = (
{
closed = 1;
nodes = (
"340 268 OFFCURVE",
"331 272 OFFCURVE",
"314 274 CURVE SMOOTH",
"294 277 OFFCURVE",
"277 279 OFFCURVE",
"262 280 CURVE",
"304 357 OFFCURVE",
"349 428 OFFCURVE",
"397 493 CURVE SMOOTH",
"398 495 OFFCURVE",
"399 497 OFFCURVE",
"399 499 CURVE SMOOTH",
"399 504 OFFCURVE",
"394 507 OFFCURVE",
"385 507 CURVE SMOOTH",
"362 507 OFFCURVE",
"344 500 OFFCURVE",
"334 485 CURVE SMOOTH",
"312 454 OFFCURVE",
"298 426 OFFCURVE",
"287 406 CURVE SMOOTH",
"265 366 OFFCURVE",
"243 324 OFFCURVE",
"223 282 CURVE",
"221 282 LINE SMOOTH",
"202 282 OFFCURVE",
"187 280 OFFCURVE",
"176 276 CURVE SMOOTH",
"153 268 OFFCURVE",
"141 260 OFFCURVE",
"141 251 CURVE SMOOTH",
"141 246 OFFCURVE",
"148 244 OFFCURVE",
"161 244 CURVE SMOOTH",
"166 244 LINE SMOOTH",
"181 244 OFFCURVE",
"195 245 OFFCURVE",
"207 246 CURVE",
"189 205 LINE",
"142 202 OFFCURVE",
"99 189 OFFCURVE",
"63 165 CURVE SMOOTH",
"21 137 OFFCURVE",
"0 100 OFFCURVE",
"0 55 CURVE SMOOTH",
"0 18 OFFCURVE",
"26 -12 OFFCURVE",
"78 -34 CURVE SMOOTH",
"117 -51 OFFCURVE",
"159 -60 OFFCURVE",
"204 -62 CURVE SMOOTH",
"217 -63 OFFCURVE",
"230 -63 OFFCURVE",
"244 -63 CURVE SMOOTH",
"374 -63 OFFCURVE",
"489 -33 OFFCURVE",
"589 27 CURVE",
"596 16 OFFCURVE",
"600 11 OFFCURVE",
"603 11 CURVE SMOOTH",
"610 11 OFFCURVE",
"613 16 OFFCURVE",
"613 25 CURVE SMOOTH",
"613 28 OFFCURVE",
"612 33 OFFCURVE",
"609 39 CURVE",
"659 72 OFFCURVE",
"700 111 OFFCURVE",
"731 155 CURVE SMOOTH",
"768 206 OFFCURVE",
"786 258 OFFCURVE",
"786 311 CURVE SMOOTH",
"786 398 OFFCURVE",
"737 464 OFFCURVE",
"640 509 CURVE SMOOTH",
"565 543 OFFCURVE",
"479 561 OFFCURVE",
"380 561 CURVE SMOOTH",
"336 561 OFFCURVE",
"288 557 OFFCURVE",
"237 549 CURVE SMOOTH",
"176 539 OFFCURVE",
"130 526 OFFCURVE",
"100 510 CURVE SMOOTH",
"79 499 OFFCURVE",
"69 486 OFFCURVE",
"69 471 CURVE SMOOTH",
"69 461 OFFCURVE",
"73 456 OFFCURVE",
"82 456 CURVE SMOOTH",
"85 456 OFFCURVE",
"90 457 OFFCURVE",
"95 460 CURVE SMOOTH",
"182 509 OFFCURVE",
"282 534 OFFCURVE",
"395 534 CURVE SMOOTH",
"480 534 OFFCURVE",
"555 519 OFFCURVE",
"620 489 CURVE SMOOTH",
"705 449 OFFCURVE",
"747 391 OFFCURVE",
"747 316 CURVE SMOOTH",
"747 269 OFFCURVE",
"731 223 OFFCURVE",
"698 176 CURVE SMOOTH",
"670 136 OFFCURVE",
"634 101 OFFCURVE",
"590 70 CURVE",
"525 156 OFFCURVE",
"402 201 OFFCURVE",
"223 205 CURVE",
"246 251 LINE",
"260 253 LINE SMOOTH",
"284 256 OFFCURVE",
"302 256 OFFCURVE",
"314 256 CURVE SMOOTH",
"331 256 OFFCURVE",
"340 259 OFFCURVE",
"340 264 CURVE SMOOTH"
);
},
{
closed = 1;
nodes = (
"469 -8 OFFCURVE",
"357 -40 OFFCURVE",
"230 -40 CURVE SMOOTH",
"205 -40 LINE SMOOTH",
"169 -39 OFFCURVE",
"136 -31 OFFCURVE",
"105 -18 CURVE SMOOTH",
"64 -1 OFFCURVE",
"44 23 OFFCURVE",
"44 53 CURVE SMOOTH",
"44 120 OFFCURVE",
"88 161 OFFCURVE",
"177 176 CURVE",
"143 93 OFFCURVE",
"126 37 OFFCURVE",
"126 7 CURVE SMOOTH",
"126 -11 OFFCURVE",
"131 -20 OFFCURVE",
"142 -20 CURVE SMOOTH",
"149 -20 OFFCURVE",
"153 -16 OFFCURVE",
"153 -7 CURVE SMOOTH",
"153 -5 OFFCURVE",
"153 -2 OFFCURVE",
"152 1 CURVE SMOOTH",
"151 4 OFFCURVE",
"151 7 OFFCURVE",
"151 9 CURVE SMOOTH",
"151 38 OFFCURVE",
"171 95 OFFCURVE",
"211 180 CURVE",
"220 181 OFFCURVE",
"228 181 OFFCURVE",
"237 181 CURVE SMOOTH",
"293 181 OFFCURVE",
"353 170 OFFCURVE",
"416 148 CURVE SMOOTH",
"487 124 OFFCURVE",
"537 93 OFFCURVE",
"568 55 CURVE"
);
}
);
width = 786;
}
);
note = Dcroat;
unicode = 0110;
},
{
color = 3;
glyphname = E;
lastChange = "2021-04-20 18:52:15 +0000";
layers = (
{
hints = (
{
horizontal = 1;
place = "{-47, 35}";
type = Stem;
},
{
horizontal = 1;
place = "{264, 30}";
type = Stem;
},
{
horizontal = 1;
place = "{513, 27}";
type = Stem;
},
{
place = "{33, 46}";
type = Stem;
},
{
place = "{655, 28}";
type = Stem;
}
);
layerId = "57DEED6F-9A00-47D0-BD9B-6FE09716AB2D";
paths = (
{
closed = 1;
nodes = (
"683 514 OFFCURVE",
"646 540 OFFCURVE",
"571 540 CURVE SMOOTH",
"486 540 OFFCURVE",
"400 514 OFFCURVE",
"311 461 CURVE SMOOTH",
"229 412 OFFCURVE",
"161 352 OFFCURVE",
"108 279 CURVE",
"75 274 OFFCURVE",
"56 271 OFFCURVE",
"51 269 CURVE SMOOTH",
"37 264 OFFCURVE",
"30 254 OFFCURVE",
"30 237 CURVE SMOOTH",
"30 232 OFFCURVE",
"32 230 OFFCURVE",
"36 230 CURVE SMOOTH",
"35 230 OFFCURVE",
"50 233 OFFCURVE",
"82 239 CURVE",
"49 184 OFFCURVE",
"33 133 OFFCURVE",
"33 87 CURVE SMOOTH",
"33 41 OFFCURVE",
"50 6 OFFCURVE",
"85 -17 CURVE SMOOTH",
"115 -37 OFFCURVE",
"154 -47 OFFCURVE",
"203 -47 CURVE SMOOTH",
"263 -47 OFFCURVE",
"329 -29 OFFCURVE",
"402 5 CURVE SMOOTH",
"469 37 OFFCURVE",
"527 74 OFFCURVE",
"576 119 CURVE SMOOTH",
"579 122 OFFCURVE",
"580 125 OFFCURVE",
"580 128 CURVE SMOOTH",
"580 137 OFFCURVE",
"579 137 OFFCURVE",
"570 137 CURVE SMOOTH",
"568 137 OFFCURVE",
"566 136 OFFCURVE",
"563 134 CURVE SMOOTH",
"441 32 OFFCURVE",
"328 -19 OFFCURVE",
"225 -19 CURVE SMOOTH",
"182 -19 OFFCURVE",
"148 -9 OFFCURVE",
"122 10 CURVE SMOOTH",
"91 31 OFFCURVE",
"79 67 OFFCURVE",
"79 107 CURVE SMOOTH",
"79 150 OFFCURVE",
"101 196 OFFCURVE",
"134 246 CURVE",
"217 258 OFFCURVE",
"289 264 OFFCURVE",
"351 264 CURVE SMOOTH",
"364 264 OFFCURVE",
"383 262 OFFCURVE",
"408 258 CURVE SMOOTH",
"432 255 OFFCURVE",
"448 253 OFFCURVE",
"457 253 CURVE SMOOTH",
"466 253 OFFCURVE",
"471 257 OFFCURVE",
"471 266 CURVE SMOOTH",
"471 285 OFFCURVE",
"421 294 OFFCURVE",
"320 294 CURVE SMOOTH",
"271 294 OFFCURVE",
"219 291 OFFCURVE",
"162 284 CURVE",
"211 343 OFFCURVE",
"268 395 OFFCURVE",
"343 439 CURVE SMOOTH",
"427 488 OFFCURVE",
"503 513 OFFCURVE",
"572 513 CURVE SMOOTH",
"627 513 OFFCURVE",
"655 497 OFFCURVE",
"655 464 CURVE SMOOTH",
"655 432 OFFCURVE",
"624 392 OFFCURVE",
"562 344 CURVE SMOOTH",
"556 340 OFFCURVE",
"554 335 OFFCURVE",
"554 330 CURVE SMOOTH",
"554 319 OFFCURVE",
"560 314 OFFCURVE",
"571 314 CURVE SMOOTH",
"575 314 OFFCURVE",
"579 315 OFFCURVE",
"584 318 CURVE SMOOTH",
"609 333 OFFCURVE",
"632 353 OFFCURVE",
"651 379 CURVE SMOOTH",
"673 408 OFFCURVE",
"683 436 OFFCURVE",
"683 462 CURVE SMOOTH"
);
}
);
width = 583;
}
);
note = E;
unicode = 0045;
},
{
color = 3;
glyphname = Eacute;
lastChange = "2021-04-20 18:52:15 +0000";
layers = (
{
hints = (
{
horizontal = 1;
place = "{-47, 35}";
type = Stem;
},
{
horizontal = 1;
place = "{264, 30}";
type = Stem;
},
{
horizontal = 1;
place = "{513, 27}";
type = Stem;
},
{
place = "{33, 46}";
type = Stem;
},
{
place = "{655, 28}";
type = Stem;
}
);
layerId = "57DEED6F-9A00-47D0-BD9B-6FE09716AB2D";
paths = (
{
closed = 1;
nodes = (
"705 681 OFFCURVE",
"702 685 OFFCURVE",
"695 685 CURVE SMOOTH",
"691 685 OFFCURVE",
"685 683 OFFCURVE",
"678 677 CURVE SMOOTH",
"573 595 LINE SMOOTH",
"571 593 OFFCURVE",
"570 591 OFFCURVE",
"570 589 CURVE SMOOTH",
"570 585 OFFCURVE",
"572 583 OFFCURVE",
"576 583 CURVE SMOOTH",
"580 583 OFFCURVE",
"600 593 OFFCURVE",
"635 614 CURVE SMOOTH",
"669 634 OFFCURVE",
"688 648 OFFCURVE",
"695 653 CURVE SMOOTH",
"702 658 OFFCURVE",
"705 665 OFFCURVE",
"705 673 CURVE SMOOTH"
);
},
{
closed = 1;
nodes = (
"683 514 OFFCURVE",
"646 540 OFFCURVE",
"571 540 CURVE SMOOTH",
"486 540 OFFCURVE",
"400 514 OFFCURVE",
"311 461 CURVE SMOOTH",
"229 412 OFFCURVE",
"161 352 OFFCURVE",
"108 279 CURVE",
"75 274 OFFCURVE",
"56 271 OFFCURVE",
"51 269 CURVE SMOOTH",
"37 264 OFFCURVE",
"30 254 OFFCURVE",
"30 237 CURVE SMOOTH",
"30 232 OFFCURVE",
"32 230 OFFCURVE",
"36 230 CURVE SMOOTH",
"35 230 OFFCURVE",
"50 233 OFFCURVE",
"82 239 CURVE",
"49 184 OFFCURVE",
"33 133 OFFCURVE",
"33 87 CURVE SMOOTH",
"33 41 OFFCURVE",
"50 6 OFFCURVE",
"85 -17 CURVE SMOOTH",
"115 -37 OFFCURVE",
"154 -47 OFFCURVE",
"203 -47 CURVE SMOOTH",
"263 -47 OFFCURVE",
"329 -29 OFFCURVE",
"402 5 CURVE SMOOTH",
"469 37 OFFCURVE",
"527 74 OFFCURVE",
"576 119 CURVE SMOOTH",
"579 122 OFFCURVE",
"580 125 OFFCURVE",
"580 128 CURVE SMOOTH",
"580 137 OFFCURVE",
"579 137 OFFCURVE",
"570 137 CURVE SMOOTH",
"568 137 OFFCURVE",
"566 136 OFFCURVE",
"563 134 CURVE SMOOTH",
"441 32 OFFCURVE",
"328 -19 OFFCURVE",
"225 -19 CURVE SMOOTH",
"182 -19 OFFCURVE",
"148 -9 OFFCURVE",
"122 10 CURVE SMOOTH",
"91 31 OFFCURVE",
"79 67 OFFCURVE",
"79 107 CURVE SMOOTH",
"79 150 OFFCURVE",
"101 196 OFFCURVE",
"134 246 CURVE",
"217 258 OFFCURVE",
"289 264 OFFCURVE",
"351 264 CURVE SMOOTH",
"364 264 OFFCURVE",
"383 262 OFFCURVE",
"408 258 CURVE SMOOTH",
"432 255 OFFCURVE",
"448 253 OFFCURVE",
"457 253 CURVE SMOOTH",
"466 253 OFFCURVE",
"471 257 OFFCURVE",
"471 266 CURVE SMOOTH",
"471 285 OFFCURVE",
"421 294 OFFCURVE",
"320 294 CURVE SMOOTH",
"271 294 OFFCURVE",
"219 291 OFFCURVE",
"162 284 CURVE",
"211 343 OFFCURVE",
"268 395 OFFCURVE",
"343 439 CURVE SMOOTH",
"427 488 OFFCURVE",
"503 513 OFFCURVE",
"572 513 CURVE SMOOTH",
"627 513 OFFCURVE",
"655 497 OFFCURVE",
"655 464 CURVE SMOOTH",
"655 432 OFFCURVE",
"624 392 OFFCURVE",
"562 344 CURVE SMOOTH",
"556 340 OFFCURVE",
"554 335 OFFCURVE",
"554 330 CURVE SMOOTH",
"554 319 OFFCURVE",
"560 314 OFFCURVE",
"571 314 CURVE SMOOTH",
"575 314 OFFCURVE",
"579 315 OFFCURVE",
"584 318 CURVE SMOOTH",
"609 333 OFFCURVE",
"632 353 OFFCURVE",
"651 379 CURVE SMOOTH",
"673 408 OFFCURVE",
"683 436 OFFCURVE",
"683 462 CURVE SMOOTH"
);
}
);
width = 583;
}
);
note = Eacute;
unicode = 00C9;
},
{
color = 3;
glyphname = Ebreve;
lastChange = "2021-04-20 18:52:15 +0000";
layers = (
{
hints = (
{
horizontal = 1;
place = "{-47, 35}";
type = Stem;
},
{
horizontal = 1;
place = "{264, 30}";
type = Stem;
},
{
horizontal = 1;
place = "{513, 27}";
type = Stem;
},
{
horizontal = 1;
place = "{591, 22}";
type = Stem;
},
{
place = "{33, 46}";
type = Stem;
},
{
place = "{655, 28}";
type = Stem;
}
);
layerId = "57DEED6F-9A00-47D0-BD9B-6FE09716AB2D";
paths = (
{
closed = 1;
nodes = (
"683 514 OFFCURVE",
"646 540 OFFCURVE",
"571 540 CURVE SMOOTH",
"486 540 OFFCURVE",
"400 514 OFFCURVE",
"311 461 CURVE SMOOTH",
"229 412 OFFCURVE",
"161 352 OFFCURVE",
"108 279 CURVE",
"75 274 OFFCURVE",
"56 271 OFFCURVE",
"51 269 CURVE SMOOTH",
"37 264 OFFCURVE",
"30 254 OFFCURVE",
"30 237 CURVE SMOOTH",
"30 232 OFFCURVE",
"32 230 OFFCURVE",
"36 230 CURVE SMOOTH",
"35 230 OFFCURVE",
"50 233 OFFCURVE",
"82 239 CURVE",
"49 184 OFFCURVE",
"33 133 OFFCURVE",
"33 87 CURVE SMOOTH",
"33 41 OFFCURVE",
"50 6 OFFCURVE",
"85 -17 CURVE SMOOTH",
"115 -37 OFFCURVE",
"154 -47 OFFCURVE",
"203 -47 CURVE SMOOTH",
"263 -47 OFFCURVE",
"329 -29 OFFCURVE",
"402 5 CURVE SMOOTH",
"469 37 OFFCURVE",
"527 74 OFFCURVE",
"576 119 CURVE SMOOTH",
"579 122 OFFCURVE",
"580 125 OFFCURVE",
"580 128 CURVE SMOOTH",
"580 137 OFFCURVE",
"579 137 OFFCURVE",
"570 137 CURVE SMOOTH",
"568 137 OFFCURVE",
"566 136 OFFCURVE",
"563 134 CURVE SMOOTH",
"441 32 OFFCURVE",
"328 -19 OFFCURVE",
"225 -19 CURVE SMOOTH",
"182 -19 OFFCURVE",
"148 -9 OFFCURVE",
"122 10 CURVE SMOOTH",
"91 31 OFFCURVE",
"79 67 OFFCURVE",
"79 107 CURVE SMOOTH",
"79 150 OFFCURVE",
"101 196 OFFCURVE",
"134 246 CURVE",
"217 258 OFFCURVE",
"289 264 OFFCURVE",
"351 264 CURVE SMOOTH",
"364 264 OFFCURVE",
"383 262 OFFCURVE",
"408 258 CURVE SMOOTH",
"432 255 OFFCURVE",
"448 253 OFFCURVE",
"457 253 CURVE SMOOTH",
"466 253 OFFCURVE",
"471 257 OFFCURVE",
"471 266 CURVE SMOOTH",
"471 285 OFFCURVE",
"421 294 OFFCURVE",
"320 294 CURVE SMOOTH",
"271 294 OFFCURVE",
"219 291 OFFCURVE",
"162 284 CURVE",
"211 343 OFFCURVE",
"268 395 OFFCURVE",
"343 439 CURVE SMOOTH",
"427 488 OFFCURVE",
"503 513 OFFCURVE",
"572 513 CURVE SMOOTH",
"627 513 OFFCURVE",
"655 497 OFFCURVE",
"655 464 CURVE SMOOTH",
"655 432 OFFCURVE",
"624 392 OFFCURVE",
"562 344 CURVE SMOOTH",
"556 340 OFFCURVE",
"554 335 OFFCURVE",
"554 330 CURVE SMOOTH",
"554 319 OFFCURVE",
"560 314 OFFCURVE",
"571 314 CURVE SMOOTH",
"575 314 OFFCURVE",
"579 315 OFFCURVE",
"584 318 CURVE SMOOTH",
"609 333 OFFCURVE",
"632 353 OFFCURVE",
"651 379 CURVE SMOOTH",
"673 408 OFFCURVE",
"683 436 OFFCURVE",
"683 462 CURVE SMOOTH"
);
},
{
closed = 1;
nodes = (
"697 701 OFFCURVE",
"696 701 OFFCURVE",
"693 701 CURVE SMOOTH",
"691 701 OFFCURVE",
"686 700 OFFCURVE",
"683 694 CURVE",
"650 658 OFFCURVE",
"620 643 OFFCURVE",
"591 645 CURVE SMOOTH",
"575 647 OFFCURVE",
"563 652 OFFCURVE",
"556 662 CURVE",
"550 668 OFFCURVE",
"546 676 OFFCURVE",
"543 687 CURVE SMOOTH",
"540 696 OFFCURVE",
"537 701 OFFCURVE",
"535 701 CURVE SMOOTH",
"532 701 OFFCURVE",
"529 700 OFFCURVE",
"528 694 CURVE SMOOTH",
"527 689 OFFCURVE",
"527 684 OFFCURVE",
"527 678 CURVE SMOOTH",
"529 646 OFFCURVE",
"547 630 OFFCURVE",
"579 627 CURVE SMOOTH",
"618 623 OFFCURVE",
"656 644 OFFCURVE",
"693 693 CURVE",
"694 695 OFFCURVE",
"696 697 OFFCURVE",
"696 698 CURVE SMOOTH"
);
}
);
width = 583;
}
);
note = Ebreve;
unicode = 0114;
},
{
color = 3;
glyphname = Ecaron;
lastChange = "2021-04-20 18:52:15 +0000";
layers = (
{
hints = (
{
horizontal = 1;
place = "{-47, 35}";
type = Stem;
},
{
horizontal = 1;
place = "{264, 30}";
type = Stem;
},
{
horizontal = 1;
place = "{513, 27}";
type = Stem;
},
{
place = "{33, 46}";
type = Stem;
},
{
place = "{655, 28}";
type = Stem;
}
);
layerId = "57DEED6F-9A00-47D0-BD9B-6FE09716AB2D";
paths = (
{
closed = 1;
nodes = (
"683 514 OFFCURVE",
"646 540 OFFCURVE",
"571 540 CURVE SMOOTH",
"486 540 OFFCURVE",
"400 514 OFFCURVE",
"311 461 CURVE SMOOTH",
"229 412 OFFCURVE",
"161 352 OFFCURVE",
"108 279 CURVE",
"75 274 OFFCURVE",
"56 271 OFFCURVE",
"51 269 CURVE SMOOTH",
"37 264 OFFCURVE",
"30 254 OFFCURVE",
"30 237 CURVE SMOOTH",
"30 232 OFFCURVE",
"32 230 OFFCURVE",
"36 230 CURVE SMOOTH",
"35 230 OFFCURVE",
"50 233 OFFCURVE",
"82 239 CURVE",
"49 184 OFFCURVE",
"33 133 OFFCURVE",
"33 87 CURVE SMOOTH",
"33 41 OFFCURVE",
"50 6 OFFCURVE",
"85 -17 CURVE SMOOTH",
"115 -37 OFFCURVE",
"154 -47 OFFCURVE",
"203 -47 CURVE SMOOTH",
"263 -47 OFFCURVE",
"329 -29 OFFCURVE",
"402 5 CURVE SMOOTH",
"469 37 OFFCURVE",
"527 74 OFFCURVE",
"576 119 CURVE SMOOTH",
"579 122 OFFCURVE",
"580 125 OFFCURVE",
"580 128 CURVE SMOOTH",
"580 137 OFFCURVE",
"579 137 OFFCURVE",
"570 137 CURVE SMOOTH",
"568 137 OFFCURVE",
"566 136 OFFCURVE",
"563 134 CURVE SMOOTH",
"441 32 OFFCURVE",
"328 -19 OFFCURVE",
"225 -19 CURVE SMOOTH",
"182 -19 OFFCURVE",
"148 -9 OFFCURVE",
"122 10 CURVE SMOOTH",
"91 31 OFFCURVE",
"79 67 OFFCURVE",
"79 107 CURVE SMOOTH",
"79 150 OFFCURVE",
"101 196 OFFCURVE",
"134 246 CURVE",
"217 258 OFFCURVE",
"289 264 OFFCURVE",
"351 264 CURVE SMOOTH",
"364 264 OFFCURVE",
"383 262 OFFCURVE",
"408 258 CURVE SMOOTH",
"432 255 OFFCURVE",
"448 253 OFFCURVE",
"457 253 CURVE SMOOTH",
"466 253 OFFCURVE",
"471 257 OFFCURVE",
"471 266 CURVE SMOOTH",
"471 285 OFFCURVE",
"421 294 OFFCURVE",
"320 294 CURVE SMOOTH",
"271 294 OFFCURVE",
"219 291 OFFCURVE",
"162 284 CURVE",
"211 343 OFFCURVE",
"268 395 OFFCURVE",
"343 439 CURVE SMOOTH",
"427 488 OFFCURVE",
"503 513 OFFCURVE",
"572 513 CURVE SMOOTH",
"627 513 OFFCURVE",
"655 497 OFFCURVE",
"655 464 CURVE SMOOTH",
"655 432 OFFCURVE",
"624 392 OFFCURVE",
"562 344 CURVE SMOOTH",
"556 340 OFFCURVE",
"554 335 OFFCURVE",
"554 330 CURVE SMOOTH",
"554 319 OFFCURVE",
"560 314 OFFCURVE",
"571 314 CURVE SMOOTH",
"575 314 OFFCURVE",
"579 315 OFFCURVE",
"584 318 CURVE SMOOTH",
"609 333 OFFCURVE",
"632 353 OFFCURVE",
"651 379 CURVE SMOOTH",
"673 408 OFFCURVE",
"683 436 OFFCURVE",
"683 462 CURVE SMOOTH"
);
},
{
closed = 1;
nodes = (
"565 635 OFFCURVE",
"585 614 OFFCURVE",
"591 603 CURVE SMOOTH",
"593 599 OFFCURVE",
"596 597 OFFCURVE",
"599 597 CURVE SMOOTH",
"608 597 OFFCURVE",
"623 609 OFFCURVE",
"649 626 CURVE SMOOTH",
"678 646 OFFCURVE",
"693 657 OFFCURVE",
"694 661 CURVE",
"695 662 OFFCURVE",
"695 663 OFFCURVE",
"695 664 CURVE SMOOTH",
"695 666 OFFCURVE",
"693 666 OFFCURVE",
"691 666 CURVE SMOOTH",
"686 666 OFFCURVE",
"659 651 OFFCURVE",
"611 618 CURVE",
"606 625 OFFCURVE",
"597 636 OFFCURVE",
"580 648 CURVE",
"580 649 OFFCURVE",
"565 663 OFFCURVE",
"554 667 CURVE SMOOTH",
"552 668 OFFCURVE",
"550 668 OFFCURVE",
"548 668 CURVE SMOOTH",
"544 668 OFFCURVE",
"540 666 OFFCURVE",
"540 664 CURVE",
"540 664 OFFCURVE",
"540 663 OFFCURVE",
"541 659 CURVE"
);
}
);
width = 583;
}
);
note = Ecaron;
unicode = 011A;
},
{
color = 3;
glyphname = Ecircumflex;
lastChange = "2021-04-20 18:52:15 +0000";
layers = (
{
hints = (
{
horizontal = 1;
place = "{-47, 35}";
type = Stem;
},
{
horizontal = 1;
place = "{264, 30}";
type = Stem;
},
{
horizontal = 1;
place = "{513, 27}";
type = Stem;
},
{
place = "{33, 46}";
type = Stem;
},
{
place = "{655, 28}";
type = Stem;
}
);
layerId = "57DEED6F-9A00-47D0-BD9B-6FE09716AB2D";
paths = (
{
closed = 1;
nodes = (
"683 572 LINE",
"652 603 OFFCURVE",
"627 630 OFFCURVE",
"620 644 CURVE SMOOTH",
"610 662 OFFCURVE",
"591 644 OFFCURVE",
"546 614 CURVE SMOOTH",
"509 589 OFFCURVE",
"490 575 OFFCURVE",
"489 570 CURVE SMOOTH",
"487 565 OFFCURVE",
"489 563 OFFCURVE",
"493 563 CURVE SMOOTH",
"499 563 OFFCURVE",
"533 583 OFFCURVE",
"594 624 CURVE",
"600 615 OFFCURVE",
"612 602 OFFCURVE",
"633 586 CURVE SMOOTH",
"634 585 OFFCURVE",
"653 568 OFFCURVE",
"667 562 CURVE SMOOTH",
"676 558 OFFCURVE",
"686 563 OFFCURVE",
"684 568 CURVE SMOOTH"
);
},
{
closed = 1;
nodes = (
"683 514 OFFCURVE",
"646 540 OFFCURVE",
"571 540 CURVE SMOOTH",
"486 540 OFFCURVE",
"400 514 OFFCURVE",
"311 461 CURVE SMOOTH",
"229 412 OFFCURVE",
"161 352 OFFCURVE",
"108 279 CURVE",
"75 274 OFFCURVE",
"56 271 OFFCURVE",
"51 269 CURVE SMOOTH",
"37 264 OFFCURVE",
"30 254 OFFCURVE",
"30 237 CURVE SMOOTH",
"30 232 OFFCURVE",
"32 230 OFFCURVE",
"36 230 CURVE SMOOTH",
"35 230 OFFCURVE",
"50 233 OFFCURVE",
"82 239 CURVE",
"49 184 OFFCURVE",
"33 133 OFFCURVE",
"33 87 CURVE SMOOTH",
"33 41 OFFCURVE",
"50 6 OFFCURVE",
"85 -17 CURVE SMOOTH",
"115 -37 OFFCURVE",
"154 -47 OFFCURVE",
"203 -47 CURVE SMOOTH",
"263 -47 OFFCURVE",
"329 -29 OFFCURVE",
"402 5 CURVE SMOOTH",
"469 37 OFFCURVE",
"527 74 OFFCURVE",
"576 119 CURVE SMOOTH",
"579 122 OFFCURVE",
"580 125 OFFCURVE",
"580 128 CURVE SMOOTH",
"580 137 OFFCURVE",
"579 137 OFFCURVE",
"570 137 CURVE SMOOTH",
"568 137 OFFCURVE",
"566 136 OFFCURVE",
"563 134 CURVE SMOOTH",
"441 32 OFFCURVE",
"328 -19 OFFCURVE",
"225 -19 CURVE SMOOTH",
"182 -19 OFFCURVE",
"148 -9 OFFCURVE",
"122 10 CURVE SMOOTH",
"91 31 OFFCURVE",
"79 67 OFFCURVE",
"79 107 CURVE SMOOTH",
"79 150 OFFCURVE",
"101 196 OFFCURVE",
"134 246 CURVE",
"217 258 OFFCURVE",
"289 264 OFFCURVE",
"351 264 CURVE SMOOTH",
"364 264 OFFCURVE",
"383 262 OFFCURVE",
"408 258 CURVE SMOOTH",
"432 255 OFFCURVE",
"448 253 OFFCURVE",
"457 253 CURVE SMOOTH",
"466 253 OFFCURVE",
"471 257 OFFCURVE",
"471 266 CURVE SMOOTH",
"471 285 OFFCURVE",
"421 294 OFFCURVE",
"320 294 CURVE SMOOTH",
"271 294 OFFCURVE",
"219 291 OFFCURVE",
"162 284 CURVE",
"211 343 OFFCURVE",
"268 395 OFFCURVE",
"343 439 CURVE SMOOTH",
"427 488 OFFCURVE",
"503 513 OFFCURVE",
"572 513 CURVE SMOOTH",
"627 513 OFFCURVE",
"655 497 OFFCURVE",
"655 464 CURVE SMOOTH",
"655 432 OFFCURVE",
"624 392 OFFCURVE",
"562 344 CURVE SMOOTH",
"556 340 OFFCURVE",
"554 335 OFFCURVE",
"554 330 CURVE SMOOTH",
"554 319 OFFCURVE",
"560 314 OFFCURVE",
"571 314 CURVE SMOOTH",
"575 314 OFFCURVE",
"579 315 OFFCURVE",
"584 318 CURVE SMOOTH",
"609 333 OFFCURVE",
"632 353 OFFCURVE",
"651 379 CURVE SMOOTH",
"673 408 OFFCURVE",
"683 436 OFFCURVE",
"683 462 CURVE SMOOTH"
);
}
);
width = 583;
}
);
note = Ecircumflex;
unicode = 00CA;
},
{
color = 3;
glyphname = Edieresis;
lastChange = "2021-04-20 18:52:15 +0000";
layers = (
{
hints = (
{
horizontal = 1;
place = "{-47, 35}";
type = Stem;
},
{
horizontal = 1;
place = "{264, 30}";
type = Stem;
},
{
horizontal = 1;
place = "{513, 27}";
type = Stem;
},
{
place = "{33, 46}";
type = Stem;
},
{
place = "{655, 28}";
type = Stem;
}
);
layerId = "57DEED6F-9A00-47D0-BD9B-6FE09716AB2D";
paths = (
{
closed = 1;
nodes = (
"683 514 OFFCURVE",
"646 540 OFFCURVE",
"571 540 CURVE SMOOTH",
"486 540 OFFCURVE",
"400 514 OFFCURVE",
"311 461 CURVE SMOOTH",
"229 412 OFFCURVE",
"161 352 OFFCURVE",
"108 279 CURVE",
"75 274 OFFCURVE",
"56 271 OFFCURVE",
"51 269 CURVE SMOOTH",
"37 264 OFFCURVE",
"30 254 OFFCURVE",
"30 237 CURVE SMOOTH",
"30 232 OFFCURVE",
"32 230 OFFCURVE",
"36 230 CURVE SMOOTH",
"35 230 OFFCURVE",
"50 233 OFFCURVE",
"82 239 CURVE",
"49 184 OFFCURVE",
"33 133 OFFCURVE",
"33 87 CURVE SMOOTH",
"33 41 OFFCURVE",
"50 6 OFFCURVE",
"85 -17 CURVE SMOOTH",
"115 -37 OFFCURVE",
"154 -47 OFFCURVE",
"203 -47 CURVE SMOOTH",
"263 -47 OFFCURVE",
"329 -29 OFFCURVE",
"402 5 CURVE SMOOTH",
"469 37 OFFCURVE",
"527 74 OFFCURVE",
"576 119 CURVE SMOOTH",
"579 122 OFFCURVE",
"580 125 OFFCURVE",
"580 128 CURVE SMOOTH",
"580 137 OFFCURVE",
"579 137 OFFCURVE",
"570 137 CURVE SMOOTH",
"568 137 OFFCURVE",
"566 136 OFFCURVE",
"563 134 CURVE SMOOTH",
"441 32 OFFCURVE",
"328 -19 OFFCURVE",
"225 -19 CURVE SMOOTH",
"182 -19 OFFCURVE",
"148 -9 OFFCURVE",
"122 10 CURVE SMOOTH",
"91 31 OFFCURVE",
"79 67 OFFCURVE",
"79 107 CURVE SMOOTH",
"79 150 OFFCURVE",
"101 196 OFFCURVE",
"134 246 CURVE",
"217 258 OFFCURVE",
"289 264 OFFCURVE",
"351 264 CURVE SMOOTH",
"364 264 OFFCURVE",
"383 262 OFFCURVE",
"408 258 CURVE SMOOTH",
"432 255 OFFCURVE",
"448 253 OFFCURVE",
"457 253 CURVE SMOOTH",
"466 253 OFFCURVE",
"471 257 OFFCURVE",
"471 266 CURVE SMOOTH",
"471 285 OFFCURVE",
"421 294 OFFCURVE",
"320 294 CURVE SMOOTH",
"271 294 OFFCURVE",
"219 291 OFFCURVE",
"162 284 CURVE",
"211 343 OFFCURVE",
"268 395 OFFCURVE",
"343 439 CURVE SMOOTH",
"427 488 OFFCURVE",
"503 513 OFFCURVE",
"572 513 CURVE SMOOTH",
"627 513 OFFCURVE",
"655 497 OFFCURVE",
"655 464 CURVE SMOOTH",
"655 432 OFFCURVE",
"624 392 OFFCURVE",
"562 344 CURVE SMOOTH",
"556 340 OFFCURVE",
"554 335 OFFCURVE",
"554 330 CURVE SMOOTH",
"554 319 OFFCURVE",
"560 314 OFFCURVE",
"571 314 CURVE SMOOTH",
"575 314 OFFCURVE",
"579 315 OFFCURVE",
"584 318 CURVE SMOOTH",
"609 333 OFFCURVE",
"632 353 OFFCURVE",
"651 379 CURVE SMOOTH",
"673 408 OFFCURVE",
"683 436 OFFCURVE",
"683 462 CURVE SMOOTH"
);
},
{
closed = 1;
nodes = (
"623 593 OFFCURVE",
"633 582 OFFCURVE",
"648 582 CURVE SMOOTH",
"665 582 OFFCURVE",
"678 599 OFFCURVE",
"678 617 CURVE SMOOTH",
"678 631 OFFCURVE",
"669 643 OFFCURVE",
"654 643 CURVE SMOOTH",
"636 643 OFFCURVE",
"623 623 OFFCURVE",
"623 607 CURVE SMOOTH"
);
},
{
closed = 1;
nodes = (
"501 593 OFFCURVE",
"511 582 OFFCURVE",
"526 582 CURVE SMOOTH",
"543 582 OFFCURVE",
"556 599 OFFCURVE",
"556 617 CURVE SMOOTH",
"556 631 OFFCURVE",
"547 643 OFFCURVE",
"532 643 CURVE SMOOTH",
"514 643 OFFCURVE",
"501 623 OFFCURVE",
"501 607 CURVE SMOOTH"
);
}
);
width = 583;
}
);
note = Edieresis;
unicode = 00CB;
},
{
color = 3;
glyphname = Edotaccent;
lastChange = "2021-04-20 18:52:15 +0000";
layers = (
{
hints = (
{
horizontal = 1;
place = "{-47, 35}";
type = Stem;
},
{
horizontal = 1;
place = "{264, 30}";
type = Stem;
},
{
horizontal = 1;
place = "{513, 27}";
type = Stem;
},
{
place = "{33, 46}";
type = Stem;
},
{
place = "{655, 28}";
type = Stem;
}
);
layerId = "57DEED6F-9A00-47D0-BD9B-6FE09716AB2D";
paths = (
{
closed = 1;
nodes = (
"683 514 OFFCURVE",
"646 540 OFFCURVE",
"571 540 CURVE SMOOTH",
"486 540 OFFCURVE",
"400 514 OFFCURVE",
"311 461 CURVE SMOOTH",
"229 412 OFFCURVE",
"161 352 OFFCURVE",
"108 279 CURVE",
"75 274 OFFCURVE",
"56 271 OFFCURVE",
"51 269 CURVE SMOOTH",
"37 264 OFFCURVE",
"30 254 OFFCURVE",
"30 237 CURVE SMOOTH",
"30 232 OFFCURVE",
"32 230 OFFCURVE",
"36 230 CURVE SMOOTH",
"35 230 OFFCURVE",
"50 233 OFFCURVE",
"82 239 CURVE",
"49 184 OFFCURVE",
"33 133 OFFCURVE",
"33 87 CURVE SMOOTH",
"33 41 OFFCURVE",
"50 6 OFFCURVE",
"85 -17 CURVE SMOOTH",
"115 -37 OFFCURVE",
"154 -47 OFFCURVE",
"203 -47 CURVE SMOOTH",
"263 -47 OFFCURVE",
"329 -29 OFFCURVE",
"402 5 CURVE SMOOTH",
"469 37 OFFCURVE",
"527 74 OFFCURVE",
"576 119 CURVE SMOOTH",
"579 122 OFFCURVE",
"580 125 OFFCURVE",
"580 128 CURVE SMOOTH",
"580 137 OFFCURVE",
"579 137 OFFCURVE",
"570 137 CURVE SMOOTH",
"568 137 OFFCURVE",
"566 136 OFFCURVE",
"563 134 CURVE SMOOTH",
"441 32 OFFCURVE",
"328 -19 OFFCURVE",
"225 -19 CURVE SMOOTH",
"182 -19 OFFCURVE",
"148 -9 OFFCURVE",
"122 10 CURVE SMOOTH",
"91 31 OFFCURVE",
"79 67 OFFCURVE",
"79 107 CURVE SMOOTH",
"79 150 OFFCURVE",
"101 196 OFFCURVE",
"134 246 CURVE",
"217 258 OFFCURVE",
"289 264 OFFCURVE",
"351 264 CURVE SMOOTH",
"364 264 OFFCURVE",
"383 262 OFFCURVE",
"408 258 CURVE SMOOTH",
"432 255 OFFCURVE",
"448 253 OFFCURVE",
"457 253 CURVE SMOOTH",
"466 253 OFFCURVE",
"471 257 OFFCURVE",
"471 266 CURVE SMOOTH",
"471 285 OFFCURVE",
"421 294 OFFCURVE",
"320 294 CURVE SMOOTH",
"271 294 OFFCURVE",
"219 291 OFFCURVE",
"162 284 CURVE",
"211 343 OFFCURVE",
"268 395 OFFCURVE",
"343 439 CURVE SMOOTH",
"427 488 OFFCURVE",
"503 513 OFFCURVE",
"572 513 CURVE SMOOTH",
"627 513 OFFCURVE",
"655 497 OFFCURVE",
"655 464 CURVE SMOOTH",
"655 432 OFFCURVE",
"624 392 OFFCURVE",
"562 344 CURVE SMOOTH",
"556 340 OFFCURVE",
"554 335 OFFCURVE",
"554 330 CURVE SMOOTH",
"554 319 OFFCURVE",
"560 314 OFFCURVE",
"571 314 CURVE SMOOTH",
"575 314 OFFCURVE",
"579 315 OFFCURVE",
"584 318 CURVE SMOOTH",
"609 333 OFFCURVE",
"632 353 OFFCURVE",
"651 379 CURVE SMOOTH",
"673 408 OFFCURVE",
"683 436 OFFCURVE",
"683 462 CURVE SMOOTH"
);
},
{
closed = 1;
nodes = (
"593 616 OFFCURVE",
"603 607 OFFCURVE",
"619 607 CURVE SMOOTH",
"635 607 OFFCURVE",
"648 622 OFFCURVE",
"648 637 CURVE SMOOTH",
"648 650 OFFCURVE",
"639 661 OFFCURVE",
"624 661 CURVE SMOOTH",
"606 661 OFFCURVE",
"593 643 OFFCURVE",
"593 628 CURVE SMOOTH"
);
}
);
width = 583;
}
);
note = Edotaccent;
unicode = 0116;
},
{
color = 3;
glyphname = Egrave;
lastChange = "2021-04-20 18:52:15 +0000";
layers = (
{
hints = (
{
horizontal = 1;
place = "{-47, 35}";
type = Stem;
},
{
horizontal = 1;
place = "{264, 30}";
type = Stem;
},
{
horizontal = 1;
place = "{513, 27}";
type = Stem;
},
{
place = "{33, 46}";
type = Stem;
},
{
place = "{655, 28}";
type = Stem;
}
);
layerId = "57DEED6F-9A00-47D0-BD9B-6FE09716AB2D";
paths = (
{
closed = 1;
nodes = (
"606 586 OFFCURVE",
"605 588 OFFCURVE",
"603 591 CURVE",
"559 627 OFFCURVE",
"523 654 OFFCURVE",
"497 672 CURVE SMOOTH",
"490 677 OFFCURVE",
"485 680 OFFCURVE",
"481 680 CURVE SMOOTH",
"474 680 OFFCURVE",
"471 676 OFFCURVE",
"471 668 CURVE SMOOTH",
"471 660 OFFCURVE",
"474 653 OFFCURVE",
"481 648 CURVE SMOOTH",
"487 643 OFFCURVE",
"508 630 OFFCURVE",
"543 609 CURVE SMOOTH",
"578 588 OFFCURVE",
"597 578 OFFCURVE",
"600 578 CURVE SMOOTH",
"604 578 OFFCURVE",
"606 580 OFFCURVE",
"606 584 CURVE SMOOTH"
);
},
{
closed = 1;
nodes = (
"683 514 OFFCURVE",
"646 540 OFFCURVE",
"571 540 CURVE SMOOTH",
"486 540 OFFCURVE",
"400 514 OFFCURVE",
"311 461 CURVE SMOOTH",
"229 412 OFFCURVE",
"161 352 OFFCURVE",
"108 279 CURVE",
"75 274 OFFCURVE",
"56 271 OFFCURVE",
"51 269 CURVE SMOOTH",
"37 264 OFFCURVE",
"30 254 OFFCURVE",
"30 237 CURVE SMOOTH",
"30 232 OFFCURVE",
"32 230 OFFCURVE",
"36 230 CURVE SMOOTH",
"35 230 OFFCURVE",
"50 233 OFFCURVE",
"82 239 CURVE",
"49 184 OFFCURVE",
"33 133 OFFCURVE",
"33 87 CURVE SMOOTH",
"33 41 OFFCURVE",
"50 6 OFFCURVE",
"85 -17 CURVE SMOOTH",
"115 -37 OFFCURVE",
"154 -47 OFFCURVE",
"203 -47 CURVE SMOOTH",
"263 -47 OFFCURVE",
"329 -29 OFFCURVE",
"402 5 CURVE SMOOTH",
"469 37 OFFCURVE",
"527 74 OFFCURVE",
"576 119 CURVE SMOOTH",
"579 122 OFFCURVE",
"580 125 OFFCURVE",
"580 128 CURVE SMOOTH",
"580 137 OFFCURVE",
"579 137 OFFCURVE",
"570 137 CURVE SMOOTH",
"568 137 OFFCURVE",
"566 136 OFFCURVE",
"563 134 CURVE SMOOTH",
"441 32 OFFCURVE",
"328 -19 OFFCURVE",
"225 -19 CURVE SMOOTH",
"182 -19 OFFCURVE",
"148 -9 OFFCURVE",
"122 10 CURVE SMOOTH",
"91 31 OFFCURVE",
"79 67 OFFCURVE",
"79 107 CURVE SMOOTH",
"79 150 OFFCURVE",
"101 196 OFFCURVE",
"134 246 CURVE",
"217 258 OFFCURVE",
"289 264 OFFCURVE",
"351 264 CURVE SMOOTH",
"364 264 OFFCURVE",
"383 262 OFFCURVE",
"408 258 CURVE SMOOTH",
"432 255 OFFCURVE",
"448 253 OFFCURVE",
"457 253 CURVE SMOOTH",
"466 253 OFFCURVE",
"471 257 OFFCURVE",
"471 266 CURVE SMOOTH",
"471 285 OFFCURVE",
"421 294 OFFCURVE",
"320 294 CURVE SMOOTH",
"271 294 OFFCURVE",
"219 291 OFFCURVE",
"162 284 CURVE",
"211 343 OFFCURVE",
"268 395 OFFCURVE",
"343 439 CURVE SMOOTH",
"427 488 OFFCURVE",
"503 513 OFFCURVE",
"572 513 CURVE SMOOTH",
"627 513 OFFCURVE",
"655 497 OFFCURVE",
"655 464 CURVE SMOOTH",
"655 432 OFFCURVE",
"624 392 OFFCURVE",
"562 344 CURVE SMOOTH",
"556 340 OFFCURVE",
"554 335 OFFCURVE",
"554 330 CURVE SMOOTH",
"554 319 OFFCURVE",
"560 314 OFFCURVE",
"571 314 CURVE SMOOTH",
"575 314 OFFCURVE",
"579 315 OFFCURVE",
"584 318 CURVE SMOOTH",
"609 333 OFFCURVE",
"632 353 OFFCURVE",
"651 379 CURVE SMOOTH",
"673 408 OFFCURVE",
"683 436 OFFCURVE",
"683 462 CURVE SMOOTH"
);
}
);
width = 583;
}
);
note = Egrave;
unicode = 00C8;
},
{
color = 3;
glyphname = Emacron;
lastChange = "2021-04-20 18:52:15 +0000";
layers = (
{
hints = (
{
horizontal = 1;
place = "{-47, 35}";
type = Stem;
},
{
horizontal = 1;
place = "{264, 30}";
type = Stem;
},
{
horizontal = 1;
place = "{513, 27}";
type = Stem;
},
{
place = "{33, 46}";
type = Stem;
},
{
place = "{655, 28}";
type = Stem;
}
);
layerId = "57DEED6F-9A00-47D0-BD9B-6FE09716AB2D";
paths = (
{
closed = 1;
nodes = (
"683 514 OFFCURVE",
"646 540 OFFCURVE",
"571 540 CURVE SMOOTH",
"486 540 OFFCURVE",
"400 514 OFFCURVE",
"311 461 CURVE SMOOTH",
"229 412 OFFCURVE",
"161 352 OFFCURVE",
"108 279 CURVE",
"75 274 OFFCURVE",
"56 271 OFFCURVE",
"51 269 CURVE SMOOTH",
"37 264 OFFCURVE",
"30 254 OFFCURVE",
"30 237 CURVE SMOOTH",
"30 232 OFFCURVE",
"32 230 OFFCURVE",
"36 230 CURVE SMOOTH",
"35 230 OFFCURVE",
"50 233 OFFCURVE",
"82 239 CURVE",
"49 184 OFFCURVE",
"33 133 OFFCURVE",
"33 87 CURVE SMOOTH",
"33 41 OFFCURVE",
"50 6 OFFCURVE",
"85 -17 CURVE SMOOTH",
"115 -37 OFFCURVE",
"154 -47 OFFCURVE",
"203 -47 CURVE SMOOTH",
"263 -47 OFFCURVE",
"329 -29 OFFCURVE",
"402 5 CURVE SMOOTH",
"469 37 OFFCURVE",
"527 74 OFFCURVE",
"576 119 CURVE SMOOTH",
"579 122 OFFCURVE",
"580 125 OFFCURVE",
"580 128 CURVE SMOOTH",
"580 137 OFFCURVE",
"579 137 OFFCURVE",
"570 137 CURVE SMOOTH",
"568 137 OFFCURVE",
"566 136 OFFCURVE",
"563 134 CURVE SMOOTH",
"441 32 OFFCURVE",
"328 -19 OFFCURVE",
"225 -19 CURVE SMOOTH",
"182 -19 OFFCURVE",
"148 -9 OFFCURVE",
"122 10 CURVE SMOOTH",
"91 31 OFFCURVE",
"79 67 OFFCURVE",
"79 107 CURVE SMOOTH",
"79 150 OFFCURVE",
"101 196 OFFCURVE",
"134 246 CURVE",
"217 258 OFFCURVE",
"289 264 OFFCURVE",
"351 264 CURVE SMOOTH",
"364 264 OFFCURVE",
"383 262 OFFCURVE",
"408 258 CURVE SMOOTH",
"432 255 OFFCURVE",
"448 253 OFFCURVE",
"457 253 CURVE SMOOTH",
"466 253 OFFCURVE",
"471 257 OFFCURVE",
"471 266 CURVE SMOOTH",
"471 285 OFFCURVE",
"421 294 OFFCURVE",
"320 294 CURVE SMOOTH",
"271 294 OFFCURVE",
"219 291 OFFCURVE",
"162 284 CURVE",
"211 343 OFFCURVE",
"268 395 OFFCURVE",
"343 439 CURVE SMOOTH",
"427 488 OFFCURVE",
"503 513 OFFCURVE",
"572 513 CURVE SMOOTH",
"627 513 OFFCURVE",
"655 497 OFFCURVE",
"655 464 CURVE SMOOTH",
"655 432 OFFCURVE",
"624 392 OFFCURVE",
"562 344 CURVE SMOOTH",
"556 340 OFFCURVE",
"554 335 OFFCURVE",
"554 330 CURVE SMOOTH",
"554 319 OFFCURVE",
"560 314 OFFCURVE",
"571 314 CURVE SMOOTH",
"575 314 OFFCURVE",
"579 315 OFFCURVE",
"584 318 CURVE SMOOTH",
"609 333 OFFCURVE",
"632 353 OFFCURVE",
"651 379 CURVE SMOOTH",
"673 408 OFFCURVE",
"683 436 OFFCURVE",
"683 462 CURVE SMOOTH"
);
},
{
closed = 1;
nodes = (
"693 628 OFFCURVE",
"684 632 OFFCURVE",
"667 634 CURVE SMOOTH",
"628 640 OFFCURVE",
"597 642 OFFCURVE",
"574 642 CURVE SMOOTH",
"555 642 OFFCURVE",
"540 640 OFFCURVE",
"529 636 CURVE SMOOTH",
"506 628 OFFCURVE",
"494 620 OFFCURVE",
"494 611 CURVE SMOOTH",
"494 606 OFFCURVE",
"501 604 OFFCURVE",
"514 604 CURVE SMOOTH",
"519 604 LINE SMOOTH",
"562 604 OFFCURVE",
"593 611 OFFCURVE",
"613 613 CURVE SMOOTH",
"637 616 OFFCURVE",
"655 616 OFFCURVE",
"667 616 CURVE SMOOTH",
"684 616 OFFCURVE",
"693 619 OFFCURVE",
"693 624 CURVE SMOOTH"
);
}
);
width = 583;
}
);
note = Emacron;
unicode = 0112;
},
{
color = 3;
glyphname = Eogonek;
lastChange = "2021-04-20 18:52:15 +0000";
layers = (
{
hints = (
{
horizontal = 1;
place = "{-133, 28}";
type = Stem;
},
{
horizontal = 1;
place = "{-122, 34}";
type = Stem;
},
{
horizontal = 1;
place = "{-47, 35}";
type = Stem;
},
{
horizontal = 1;
place = "{264, 30}";
type = Stem;
},
{
horizontal = 1;
place = "{513, 27}";
type = Stem;
},
{
place = "{33, 46}";
type = Stem;
},
{
place = "{374, 32}";
type = Stem;
},
{
place = "{403, 38}";
type = Stem;
},
{
place = "{655, 28}";
type = Stem;
}
);
layerId = "57DEED6F-9A00-47D0-BD9B-6FE09716AB2D";
paths = (
{
closed = 1;
nodes = (
"683 514 OFFCURVE",
"646 540 OFFCURVE",
"571 540 CURVE SMOOTH",
"486 540 OFFCURVE",
"400 514 OFFCURVE",
"311 461 CURVE SMOOTH",
"229 412 OFFCURVE",
"161 352 OFFCURVE",
"108 279 CURVE",
"75 274 OFFCURVE",
"56 271 OFFCURVE",
"51 269 CURVE SMOOTH",
"37 264 OFFCURVE",
"30 254 OFFCURVE",
"30 237 CURVE SMOOTH",
"30 232 OFFCURVE",
"32 230 OFFCURVE",
"36 230 CURVE SMOOTH",
"35 230 OFFCURVE",
"50 233 OFFCURVE",
"82 239 CURVE",
"49 184 OFFCURVE",
"33 133 OFFCURVE",
"33 87 CURVE SMOOTH",
"33 41 OFFCURVE",
"50 6 OFFCURVE",
"85 -17 CURVE SMOOTH",
"115 -37 OFFCURVE",
"154 -47 OFFCURVE",
"203 -47 CURVE SMOOTH",
"263 -47 OFFCURVE",
"329 -29 OFFCURVE",
"402 5 CURVE SMOOTH",
"435 21 OFFCURVE",
"466 38 OFFCURVE",
"495 56 CURVE",
"476 38 OFFCURVE",
"455 16 OFFCURVE",
"432 -15 CURVE SMOOTH",
"415 -38 OFFCURVE",
"405 -61 OFFCURVE",
"401 -81 CURVE SMOOTH",
"391 -143 OFFCURVE",
"428 -163 OFFCURVE",
"478 -142 CURVE SMOOTH",
"498 -133 OFFCURVE",
"518 -118 OFFCURVE",
"533 -98 CURVE SMOOTH",
"537 -92 OFFCURVE",
"535 -84 OFFCURVE",
"528 -87 CURVE",
"510 -107 OFFCURVE",
"493 -116 OFFCURVE",
"479 -117 CURVE SMOOTH",
"463 -118 OFFCURVE",
"451 -113 OFFCURVE",
"444 -104 CURVE SMOOTH",
"432 -86 OFFCURVE",
"440 -44 OFFCURVE",
"463 -12 CURVE SMOOTH",
"516 62 OFFCURVE",
"553 98 OFFCURVE",
"562 106 CURVE SMOOTH",
"576 119 LINE SMOOTH",
"579 122 OFFCURVE",
"580 125 OFFCURVE",
"580 128 CURVE SMOOTH",
"580 137 OFFCURVE",
"579 137 OFFCURVE",
"570 137 CURVE SMOOTH",
"568 137 OFFCURVE",
"566 136 OFFCURVE",
"563 134 CURVE SMOOTH",
"441 32 OFFCURVE",
"328 -19 OFFCURVE",
"225 -19 CURVE SMOOTH",
"182 -19 OFFCURVE",
"148 -9 OFFCURVE",
"122 10 CURVE SMOOTH",
"91 31 OFFCURVE",
"79 67 OFFCURVE",
"79 107 CURVE SMOOTH",
"79 150 OFFCURVE",
"101 196 OFFCURVE",
"134 246 CURVE",
"217 258 OFFCURVE",
"289 264 OFFCURVE",
"351 264 CURVE SMOOTH",
"364 264 OFFCURVE",
"383 262 OFFCURVE",
"408 258 CURVE SMOOTH",
"432 255 OFFCURVE",
"448 253 OFFCURVE",
"457 253 CURVE SMOOTH",
"466 253 OFFCURVE",
"471 257 OFFCURVE",
"471 266 CURVE SMOOTH",
"471 285 OFFCURVE",
"421 294 OFFCURVE",
"320 294 CURVE SMOOTH",
"271 294 OFFCURVE",
"219 291 OFFCURVE",
"162 284 CURVE",
"211 343 OFFCURVE",
"268 395 OFFCURVE",
"343 439 CURVE SMOOTH",
"427 488 OFFCURVE",
"503 513 OFFCURVE",
"572 513 CURVE SMOOTH",
"627 513 OFFCURVE",
"655 497 OFFCURVE",
"655 464 CURVE SMOOTH",
"655 432 OFFCURVE",
"624 392 OFFCURVE",
"562 344 CURVE SMOOTH",
"556 340 OFFCURVE",
"554 335 OFFCURVE",
"554 330 CURVE SMOOTH",
"554 319 OFFCURVE",
"560 314 OFFCURVE",
"571 314 CURVE SMOOTH",
"575 314 OFFCURVE",
"579 315 OFFCURVE",
"584 318 CURVE SMOOTH",
"609 333 OFFCURVE",
"632 353 OFFCURVE",
"651 379 CURVE SMOOTH",
"673 408 OFFCURVE",
"683 436 OFFCURVE",
"683 462 CURVE SMOOTH"
);
}
);
width = 583;
}
);
note = Eogonek;
unicode = 0118;
},
{
color = 3;
glyphname = F;
lastChange = "2021-04-20 18:52:15 +0000";
layers = (
{
hints = (
{
horizontal = 1;
place = "{-53, 20}";
type = Stem;
},
{
horizontal = 1;
place = "{209, 27}";
type = Stem;
},
{
horizontal = 1;
place = "{452, 36}";
type = Stem;
},
{
horizontal = 1;
place = "{535, -20}";
target = down;
type = TopGhost;
},
{
place = "{-10, 45}";
type = Stem;
},
{
place = "{344, 26}";
type = Stem;
}
);
layerId = "57DEED6F-9A00-47D0-BD9B-6FE09716AB2D";
paths = (
{
closed = 1;
nodes = (
"845 472 OFFCURVE",
"842 475 OFFCURVE",
"836 475 CURVE SMOOTH",
"833 475 OFFCURVE",
"829 474 OFFCURVE",
"824 471 CURVE SMOOTH",
"809 464 OFFCURVE",
"780 460 OFFCURVE",
"738 460 CURVE SMOOTH",
"698 460 OFFCURVE",
"646 463 OFFCURVE",
"582 469 CURVE",
"611 510 OFFCURVE",
"625 530 OFFCURVE",
"625 530 CURVE",
"625 533 OFFCURVE",
"621 535 OFFCURVE",
"612 535 CURVE SMOOTH",
"589 535 OFFCURVE",
"572 530 OFFCURVE",
"564 520 CURVE SMOOTH",
"549 500 OFFCURVE",
"539 485 OFFCURVE",
"532 474 CURVE",
"445 483 OFFCURVE",
"380 488 OFFCURVE",
"338 488 CURVE SMOOTH",
"223 488 OFFCURVE",
"125 464 OFFCURVE",
"45 416 CURVE SMOOTH",
"8 394 OFFCURVE",
"-10 367 OFFCURVE",
"-10 336 CURVE SMOOTH",
"-10 321 OFFCURVE",
"-2 306 OFFCURVE",
"15 291 CURVE SMOOTH",
"75 236 OFFCURVE",
"188 208 OFFCURVE",
"355 208 CURVE SMOOTH",
"370 208 OFFCURVE",
"384 208 OFFCURVE",
"399 209 CURVE",
"362 118 OFFCURVE",
"344 51 OFFCURVE",
"344 8 CURVE SMOOTH",
"344 -33 OFFCURVE",
"359 -53 OFFCURVE",
"390 -53 CURVE SMOOTH",
"398 -53 OFFCURVE",
"409 -49 OFFCURVE",
"423 -41 CURVE SMOOTH",
"436 -34 OFFCURVE",
"443 -26 OFFCURVE",
"443 -19 CURVE SMOOTH",
"443 -13 OFFCURVE",
"440 -10 OFFCURVE",
"435 -10 CURVE SMOOTH",
"433 -10 OFFCURVE",
"427 -14 OFFCURVE",
"416 -22 CURVE SMOOTH",
"405 -29 OFFCURVE",
"397 -33 OFFCURVE",
"391 -33 CURVE SMOOTH",
"377 -33 OFFCURVE",
"370 -21 OFFCURVE",
"370 3 CURVE SMOOTH",
"370 47 OFFCURVE",
"391 116 OFFCURVE",
"433 210 CURVE",
"484 213 OFFCURVE",
"538 219 OFFCURVE",
"595 228 CURVE SMOOTH",
"657 239 LINE",
"668 242 OFFCURVE",
"674 248 OFFCURVE",
"674 256 CURVE SMOOTH",
"674 260 OFFCURVE",
"671 262 OFFCURVE",
"665 262 CURVE SMOOTH",
"640 262 OFFCURVE",
"604 258 OFFCURVE",
"556 251 CURVE SMOOTH",
"503 243 OFFCURVE",
"466 238 OFFCURVE",
"445 237 CURVE",
"476 305 OFFCURVE",
"515 373 OFFCURVE",
"561 440 CURVE",
"621 434 OFFCURVE",
"673 431 OFFCURVE",
"717 431 CURVE SMOOTH",
"802 431 OFFCURVE",
"845 442 OFFCURVE",
"845 465 CURVE SMOOTH"
);
},
{
closed = 1;
nodes = (
"479 385 OFFCURVE",
"444 315 OFFCURVE",
"410 236 CURVE",
"397 235 OFFCURVE",
"383 235 OFFCURVE",
"370 235 CURVE SMOOTH",
"303 235 OFFCURVE",
"240 240 OFFCURVE",
"182 250 CURVE SMOOTH",
"84 266 OFFCURVE",
"35 293 OFFCURVE",
"35 331 CURVE SMOOTH",
"35 412 OFFCURVE",
"141 452 OFFCURVE",
"353 452 CURVE SMOOTH",
"405 452 OFFCURVE",
"459 450 OFFCURVE",
"514 445 CURVE"
);
}
);
width = 632;
}
);
note = F;
unicode = 0046;
},
{
color = 3;
glyphname = G;
lastChange = "2021-04-20 18:52:15 +0000";
layers = (
{
hints = (
{
horizontal = 1;
place = "{-271, 33}";
type = Stem;
},
{
horizontal = 1;
place = "{108, 33}";
type = Stem;
},
{
horizontal = 1;
place = "{234, 25}";
type = Stem;
},
{
place = "{-131, 40}";
type = Stem;
},
{
place = "{175, 41}";
type = Stem;
},
{
place = "{654, 33}";
type = Stem;
}
);
layerId = "57DEED6F-9A00-47D0-BD9B-6FE09716AB2D";
paths = (
{
closed = 1;
nodes = (
"687 504 OFFCURVE",
"661 520 OFFCURVE",
"609 525 CURVE",
"602 540 OFFCURVE",
"592 547 OFFCURVE",
"580 547 CURVE SMOOTH",
"572 547 OFFCURVE",
"567 541 OFFCURVE",
"565 529 CURVE",
"476 502 OFFCURVE",
"393 460 OFFCURVE",
"317 403 CURVE SMOOTH",
"222 332 OFFCURVE",
"175 258 OFFCURVE",
"175 181 CURVE SMOOTH",
"175 171 OFFCURVE",
"179 159 OFFCURVE",
"187 146 CURVE",
"-25 59 OFFCURVE",
"-131 -39 OFFCURVE",
"-131 -149 CURVE SMOOTH",
"-131 -230 OFFCURVE",
"-82 -271 OFFCURVE",
"17 -271 CURVE SMOOTH",
"90 -271 OFFCURVE",
"157 -255 OFFCURVE",
"220 -223 CURVE SMOOTH",
"388 -138 OFFCURVE",
"500 13 OFFCURVE",
"556 232 CURVE",
"565 233 OFFCURVE",
"576 234 OFFCURVE",
"589 234 CURVE SMOOTH",
"593 234 OFFCURVE",
"599 234 OFFCURVE",
"606 233 CURVE SMOOTH",
"613 232 OFFCURVE",
"618 232 OFFCURVE",
"621 232 CURVE SMOOTH",
"632 232 OFFCURVE",
"637 235 OFFCURVE",
"637 242 CURVE SMOOTH",
"637 253 OFFCURVE",
"620 259 OFFCURVE",
"586 259 CURVE SMOOTH",
"579 259 OFFCURVE",
"571 259 OFFCURVE",
"563 258 CURVE",
"576 315 OFFCURVE",
"586 364 OFFCURVE",
"594 405 CURVE SMOOTH",
"603 451 OFFCURVE",
"609 483 OFFCURVE",
"610 500 CURVE",
"613 501 OFFCURVE",
"616 501 OFFCURVE",
"619 501 CURVE SMOOTH",
"642 501 OFFCURVE",
"654 492 OFFCURVE",
"654 473 CURVE SMOOTH",
"654 466 OFFCURVE",
"652 457 OFFCURVE",
"647 447 CURVE SMOOTH",
"642 437 OFFCURVE",
"640 432 OFFCURVE",
"640 431 CURVE SMOOTH",
"640 426 OFFCURVE",
"642 424 OFFCURVE",
"647 424 CURVE SMOOTH",
"656 424 OFFCURVE",
"665 430 OFFCURVE",
"674 443 CURVE SMOOTH",
"683 456 OFFCURVE",
"687 466 OFFCURVE",
"687 475 CURVE SMOOTH"
);
},
{
closed = 1;
nodes = (
"517 249 LINE",
"494 244 OFFCURVE",
"472 238 OFFCURVE",
"451 233 CURVE",
"483 269 OFFCURVE",
"512 308 OFFCURVE",
"537 351 CURVE"
);
},
{
closed = 1;
nodes = (
"559 456 OFFCURVE",
"540 404 OFFCURVE",
"507 349 CURVE SMOOTH",
"478 300 OFFCURVE",
"443 257 OFFCURVE",
"404 220 CURVE",
"337 201 OFFCURVE",
"276 180 OFFCURVE",
"220 159 CURVE",
"217 165 OFFCURVE",
"216 172 OFFCURVE",
"216 179 CURVE SMOOTH",
"216 204 OFFCURVE",
"226 234 OFFCURVE",
"246 269 CURVE SMOOTH",
"262 298 OFFCURVE",
"280 324 OFFCURVE",
"301 347 CURVE SMOOTH",
"367 420 OFFCURVE",
"456 472 OFFCURVE",
"565 503 CURVE"
);
},
{
closed = 1;
nodes = (
"318 154 OFFCURVE",
"284 141 OFFCURVE",
"253 141 CURVE SMOOTH",
"249 141 OFFCURVE",
"245 141 OFFCURVE",
"242 142 CURVE",
"277 155 OFFCURVE",
"315 168 OFFCURVE",
"356 180 CURVE"
);
},
{
closed = 1;
nodes = (
"457 1 OFFCURVE",
"358 -142 OFFCURVE",
"213 -204 CURVE SMOOTH",
"160 -227 OFFCURVE",
"103 -238 OFFCURVE",
"44 -238 CURVE SMOOTH",
"-46 -238 OFFCURVE",
"-91 -204 OFFCURVE",
"-91 -136 CURVE SMOOTH",
"-91 -39 OFFCURVE",
"7 48 OFFCURVE",
"202 126 CURVE",
"214 114 OFFCURVE",
"230 108 OFFCURVE",
"249 108 CURVE SMOOTH",
"300 108 OFFCURVE",
"357 138 OFFCURVE",
"418 198 CURVE",
"443 205 OFFCURVE",
"474 214 OFFCURVE",
"510 223 CURVE"
);
}
);
width = 548;
}
);
note = G;
unicode = 0047;
},
{
color = 3;
glyphname = Gbreve;
lastChange = "2021-04-20 18:52:15 +0000";
layers = (
{
hints = (
{
horizontal = 1;
place = "{-271, 33}";
type = Stem;
},
{
horizontal = 1;
place = "{108, 33}";
type = Stem;
},
{
horizontal = 1;
place = "{234, 25}";
type = Stem;
},
{
place = "{-131, 40}";
type = Stem;
},
{
place = "{175, 41}";
type = Stem;
},
{
place = "{654, 33}";
type = Stem;
},
{
horizontal = 1;
place = "{595, 22}";
type = Stem;
}
);
layerId = "57DEED6F-9A00-47D0-BD9B-6FE09716AB2D";
paths = (
{
closed = 1;
nodes = (
"687 504 OFFCURVE",
"661 520 OFFCURVE",
"609 525 CURVE",
"602 540 OFFCURVE",
"592 547 OFFCURVE",
"580 547 CURVE SMOOTH",
"572 547 OFFCURVE",
"567 541 OFFCURVE",
"565 529 CURVE",
"476 502 OFFCURVE",
"393 460 OFFCURVE",
"317 403 CURVE SMOOTH",
"222 332 OFFCURVE",
"175 258 OFFCURVE",
"175 181 CURVE SMOOTH",
"175 171 OFFCURVE",
"179 159 OFFCURVE",
"187 146 CURVE",
"-25 59 OFFCURVE",
"-131 -39 OFFCURVE",
"-131 -149 CURVE SMOOTH",
"-131 -230 OFFCURVE",
"-82 -271 OFFCURVE",
"17 -271 CURVE SMOOTH",
"90 -271 OFFCURVE",
"157 -255 OFFCURVE",
"220 -223 CURVE SMOOTH",
"388 -138 OFFCURVE",
"500 13 OFFCURVE",
"556 232 CURVE",
"565 233 OFFCURVE",
"576 234 OFFCURVE",
"589 234 CURVE SMOOTH",
"593 234 OFFCURVE",
"599 234 OFFCURVE",
"606 233 CURVE SMOOTH",
"613 232 OFFCURVE",
"618 232 OFFCURVE",
"621 232 CURVE SMOOTH",
"632 232 OFFCURVE",
"637 235 OFFCURVE",
"637 242 CURVE SMOOTH",
"637 253 OFFCURVE",
"620 259 OFFCURVE",
"586 259 CURVE SMOOTH",
"579 259 OFFCURVE",
"571 259 OFFCURVE",
"563 258 CURVE",
"576 315 OFFCURVE",
"586 364 OFFCURVE",
"594 405 CURVE SMOOTH",
"603 451 OFFCURVE",
"609 483 OFFCURVE",
"610 500 CURVE",
"613 501 OFFCURVE",
"616 501 OFFCURVE",
"619 501 CURVE SMOOTH",
"642 501 OFFCURVE",
"654 492 OFFCURVE",
"654 473 CURVE SMOOTH",
"654 466 OFFCURVE",
"652 457 OFFCURVE",
"647 447 CURVE SMOOTH",
"642 437 OFFCURVE",
"640 432 OFFCURVE",
"640 431 CURVE SMOOTH",
"640 426 OFFCURVE",
"642 424 OFFCURVE",
"647 424 CURVE SMOOTH",
"656 424 OFFCURVE",
"665 430 OFFCURVE",
"674 443 CURVE SMOOTH",
"683 456 OFFCURVE",
"687 466 OFFCURVE",
"687 475 CURVE SMOOTH"
);
},
{
closed = 1;
nodes = (
"517 249 LINE",
"494 244 OFFCURVE",
"472 238 OFFCURVE",
"451 233 CURVE",
"483 269 OFFCURVE",
"512 308 OFFCURVE",
"537 351 CURVE"
);
},
{
closed = 1;
nodes = (
"559 456 OFFCURVE",
"540 404 OFFCURVE",
"507 349 CURVE SMOOTH",
"478 300 OFFCURVE",
"443 257 OFFCURVE",
"404 220 CURVE",
"337 201 OFFCURVE",
"276 180 OFFCURVE",
"220 159 CURVE",
"217 165 OFFCURVE",
"216 172 OFFCURVE",
"216 179 CURVE SMOOTH",
"216 204 OFFCURVE",
"226 234 OFFCURVE",
"246 269 CURVE SMOOTH",
"262 298 OFFCURVE",
"280 324 OFFCURVE",
"301 347 CURVE SMOOTH",
"367 420 OFFCURVE",
"456 472 OFFCURVE",
"565 503 CURVE"
);
},
{
closed = 1;
nodes = (
"318 154 OFFCURVE",
"284 141 OFFCURVE",
"253 141 CURVE SMOOTH",
"249 141 OFFCURVE",
"245 141 OFFCURVE",
"242 142 CURVE",
"277 155 OFFCURVE",
"315 168 OFFCURVE",
"356 180 CURVE"
);
},
{
closed = 1;
nodes = (
"457 1 OFFCURVE",
"358 -142 OFFCURVE",
"213 -204 CURVE SMOOTH",
"160 -227 OFFCURVE",
"103 -238 OFFCURVE",
"44 -238 CURVE SMOOTH",
"-46 -238 OFFCURVE",
"-91 -204 OFFCURVE",
"-91 -136 CURVE SMOOTH",
"-91 -39 OFFCURVE",
"7 48 OFFCURVE",
"202 126 CURVE",
"214 114 OFFCURVE",
"230 108 OFFCURVE",
"249 108 CURVE SMOOTH",
"300 108 OFFCURVE",
"357 138 OFFCURVE",
"418 198 CURVE",
"443 205 OFFCURVE",
"474 214 OFFCURVE",
"510 223 CURVE"
);
},
{
closed = 1;
nodes = (
"711 705 OFFCURVE",
"710 705 OFFCURVE",
"707 705 CURVE SMOOTH",
"705 705 OFFCURVE",
"700 704 OFFCURVE",
"697 698 CURVE",
"664 662 OFFCURVE",
"634 647 OFFCURVE",
"605 649 CURVE SMOOTH",
"589 651 OFFCURVE",
"577 656 OFFCURVE",
"570 666 CURVE",
"564 672 OFFCURVE",
"560 680 OFFCURVE",
"557 691 CURVE SMOOTH",
"554 700 OFFCURVE",
"551 705 OFFCURVE",
"549 705 CURVE SMOOTH",
"546 705 OFFCURVE",
"543 704 OFFCURVE",
"542 698 CURVE SMOOTH",
"541 693 OFFCURVE",
"541 688 OFFCURVE",
"541 682 CURVE SMOOTH",
"543 650 OFFCURVE",
"561 634 OFFCURVE",
"593 631 CURVE SMOOTH",
"632 627 OFFCURVE",
"670 648 OFFCURVE",
"707 697 CURVE",
"708 699 OFFCURVE",
"710 701 OFFCURVE",
"710 702 CURVE SMOOTH"
);
}
);
width = 548;
}
);
note = Gbreve;
unicode = 011E;
},
{
color = 3;
glyphname = Gcircumflex;
lastChange = "2021-04-20 18:52:15 +0000";
layers = (
{
hints = (
{
horizontal = 1;
place = "{-271, 33}";
type = Stem;
},
{
horizontal = 1;
place = "{108, 33}";
type = Stem;
},
{
horizontal = 1;
place = "{234, 25}";
type = Stem;
},
{
place = "{-131, 40}";
type = Stem;
},
{
place = "{175, 41}";
type = Stem;
},
{
place = "{654, 33}";
type = Stem;
}
);
layerId = "57DEED6F-9A00-47D0-BD9B-6FE09716AB2D";
paths = (
{
closed = 1;
nodes = (
"687 504 OFFCURVE",
"661 520 OFFCURVE",
"609 525 CURVE",
"602 540 OFFCURVE",
"592 547 OFFCURVE",
"580 547 CURVE SMOOTH",
"572 547 OFFCURVE",
"567 541 OFFCURVE",
"565 529 CURVE",
"476 502 OFFCURVE",
"393 460 OFFCURVE",
"317 403 CURVE SMOOTH",
"222 332 OFFCURVE",
"175 258 OFFCURVE",
"175 181 CURVE SMOOTH",
"175 171 OFFCURVE",
"179 159 OFFCURVE",
"187 146 CURVE",
"-25 59 OFFCURVE",
"-131 -39 OFFCURVE",
"-131 -149 CURVE SMOOTH",
"-131 -230 OFFCURVE",
"-82 -271 OFFCURVE",
"17 -271 CURVE SMOOTH",
"90 -271 OFFCURVE",
"157 -255 OFFCURVE",
"220 -223 CURVE SMOOTH",
"388 -138 OFFCURVE",
"500 13 OFFCURVE",
"556 232 CURVE",
"565 233 OFFCURVE",
"576 234 OFFCURVE",
"589 234 CURVE SMOOTH",
"593 234 OFFCURVE",
"599 234 OFFCURVE",
"606 233 CURVE SMOOTH",
"613 232 OFFCURVE",
"618 232 OFFCURVE",
"621 232 CURVE SMOOTH",
"632 232 OFFCURVE",
"637 235 OFFCURVE",
"637 242 CURVE SMOOTH",
"637 253 OFFCURVE",
"620 259 OFFCURVE",
"586 259 CURVE SMOOTH",
"579 259 OFFCURVE",
"571 259 OFFCURVE",
"563 258 CURVE",
"576 315 OFFCURVE",
"586 364 OFFCURVE",
"594 405 CURVE SMOOTH",
"603 451 OFFCURVE",
"609 483 OFFCURVE",
"610 500 CURVE",
"613 501 OFFCURVE",
"616 501 OFFCURVE",
"619 501 CURVE SMOOTH",
"642 501 OFFCURVE",
"654 492 OFFCURVE",
"654 473 CURVE SMOOTH",
"654 466 OFFCURVE",
"652 457 OFFCURVE",
"647 447 CURVE SMOOTH",
"642 437 OFFCURVE",
"640 432 OFFCURVE",
"640 431 CURVE SMOOTH",
"640 426 OFFCURVE",
"642 424 OFFCURVE",
"647 424 CURVE SMOOTH",
"656 424 OFFCURVE",
"665 430 OFFCURVE",
"674 443 CURVE SMOOTH",
"683 456 OFFCURVE",
"687 466 OFFCURVE",
"687 475 CURVE SMOOTH"
);
},
{
closed = 1;
nodes = (
"517 249 LINE",
"494 244 OFFCURVE",
"472 238 OFFCURVE",
"451 233 CURVE",
"483 269 OFFCURVE",
"512 308 OFFCURVE",
"537 351 CURVE"
);
},
{
closed = 1;
nodes = (
"559 456 OFFCURVE",
"540 404 OFFCURVE",
"507 349 CURVE SMOOTH",
"478 300 OFFCURVE",
"443 257 OFFCURVE",
"404 220 CURVE",
"337 201 OFFCURVE",
"276 180 OFFCURVE",
"220 159 CURVE",
"217 165 OFFCURVE",
"216 172 OFFCURVE",
"216 179 CURVE SMOOTH",
"216 204 OFFCURVE",
"226 234 OFFCURVE",
"246 269 CURVE SMOOTH",
"262 298 OFFCURVE",
"280 324 OFFCURVE",
"301 347 CURVE SMOOTH",
"367 420 OFFCURVE",
"456 472 OFFCURVE",
"565 503 CURVE"
);
},
{
closed = 1;
nodes = (
"318 154 OFFCURVE",
"284 141 OFFCURVE",
"253 141 CURVE SMOOTH",
"249 141 OFFCURVE",
"245 141 OFFCURVE",
"242 142 CURVE",
"277 155 OFFCURVE",
"315 168 OFFCURVE",
"356 180 CURVE"
);
},
{
closed = 1;
nodes = (
"457 1 OFFCURVE",
"358 -142 OFFCURVE",
"213 -204 CURVE SMOOTH",
"160 -227 OFFCURVE",
"103 -238 OFFCURVE",
"44 -238 CURVE SMOOTH",
"-46 -238 OFFCURVE",
"-91 -204 OFFCURVE",
"-91 -136 CURVE SMOOTH",
"-91 -39 OFFCURVE",
"7 48 OFFCURVE",
"202 126 CURVE",
"214 114 OFFCURVE",
"230 108 OFFCURVE",
"249 108 CURVE SMOOTH",
"300 108 OFFCURVE",
"357 138 OFFCURVE",
"418 198 CURVE",
"443 205 OFFCURVE",
"474 214 OFFCURVE",
"510 223 CURVE"
);
},
{
closed = 1;
nodes = (
"715 601 LINE",
"684 632 OFFCURVE",
"659 659 OFFCURVE",
"652 673 CURVE SMOOTH",
"642 691 OFFCURVE",
"623 673 OFFCURVE",
"578 643 CURVE SMOOTH",
"541 618 OFFCURVE",
"522 604 OFFCURVE",
"521 599 CURVE SMOOTH",
"519 594 OFFCURVE",
"521 592 OFFCURVE",
"525 592 CURVE SMOOTH",
"531 592 OFFCURVE",
"565 612 OFFCURVE",
"626 653 CURVE",
"632 644 OFFCURVE",
"644 631 OFFCURVE",
"665 615 CURVE SMOOTH",
"666 614 OFFCURVE",
"685 597 OFFCURVE",
"699 591 CURVE SMOOTH",
"708 587 OFFCURVE",
"718 592 OFFCURVE",
"716 597 CURVE SMOOTH"
);
}
);
width = 548;
}
);
note = Gcircumflex;
unicode = 011C;
},
{
color = 3;
glyphname = Gcommaaccent;
lastChange = "2021-04-20 18:52:15 +0000";
layers = (
{
hints = (
{
horizontal = 1;
place = "{-271, 33}";
type = Stem;
},
{
horizontal = 1;
place = "{108, 33}";
type = Stem;
},
{
horizontal = 1;
place = "{234, 25}";
type = Stem;
},
{
place = "{-131, 40}";
type = Stem;
},
{
place = "{175, 41}";
type = Stem;
},
{
place = "{654, 33}";
type = Stem;
},
{
place = "{141, 54}";
type = Stem;
}
);
layerId = "57DEED6F-9A00-47D0-BD9B-6FE09716AB2D";
paths = (
{
closed = 1;
nodes = (
"687 504 OFFCURVE",
"661 520 OFFCURVE",
"609 525 CURVE",
"602 540 OFFCURVE",
"592 547 OFFCURVE",
"580 547 CURVE SMOOTH",
"572 547 OFFCURVE",
"567 541 OFFCURVE",
"565 529 CURVE",
"476 502 OFFCURVE",
"393 460 OFFCURVE",
"317 403 CURVE SMOOTH",
"222 332 OFFCURVE",
"175 258 OFFCURVE",
"175 181 CURVE SMOOTH",
"175 171 OFFCURVE",
"179 159 OFFCURVE",
"187 146 CURVE",
"-25 59 OFFCURVE",
"-131 -39 OFFCURVE",
"-131 -149 CURVE SMOOTH",
"-131 -230 OFFCURVE",
"-82 -271 OFFCURVE",
"17 -271 CURVE SMOOTH",
"90 -271 OFFCURVE",
"157 -255 OFFCURVE",
"220 -223 CURVE SMOOTH",
"388 -138 OFFCURVE",
"500 13 OFFCURVE",
"556 232 CURVE",
"565 233 OFFCURVE",
"576 234 OFFCURVE",
"589 234 CURVE SMOOTH",
"593 234 OFFCURVE",
"599 234 OFFCURVE",
"606 233 CURVE SMOOTH",
"613 232 OFFCURVE",
"618 232 OFFCURVE",
"621 232 CURVE SMOOTH",
"632 232 OFFCURVE",
"637 235 OFFCURVE",
"637 242 CURVE SMOOTH",
"637 253 OFFCURVE",
"620 259 OFFCURVE",
"586 259 CURVE SMOOTH",
"579 259 OFFCURVE",
"571 259 OFFCURVE",
"563 258 CURVE",
"576 315 OFFCURVE",
"586 364 OFFCURVE",
"594 405 CURVE SMOOTH",
"603 451 OFFCURVE",
"609 483 OFFCURVE",
"610 500 CURVE",
"613 501 OFFCURVE",
"616 501 OFFCURVE",
"619 501 CURVE SMOOTH",
"642 501 OFFCURVE",
"654 492 OFFCURVE",
"654 473 CURVE SMOOTH",
"654 466 OFFCURVE",
"652 457 OFFCURVE",
"647 447 CURVE SMOOTH",
"642 437 OFFCURVE",
"640 432 OFFCURVE",
"640 431 CURVE SMOOTH",
"640 426 OFFCURVE",
"642 424 OFFCURVE",
"647 424 CURVE SMOOTH",
"656 424 OFFCURVE",
"665 430 OFFCURVE",
"674 443 CURVE SMOOTH",
"683 456 OFFCURVE",
"687 466 OFFCURVE",
"687 475 CURVE SMOOTH"
);
},
{
closed = 1;
nodes = (
"517 249 LINE",
"494 244 OFFCURVE",
"472 238 OFFCURVE",
"451 233 CURVE",
"483 269 OFFCURVE",
"512 308 OFFCURVE",
"537 351 CURVE"
);
},
{
closed = 1;
nodes = (
"559 456 OFFCURVE",
"540 404 OFFCURVE",
"507 349 CURVE SMOOTH",
"478 300 OFFCURVE",
"443 257 OFFCURVE",
"404 220 CURVE",
"337 201 OFFCURVE",
"276 180 OFFCURVE",
"220 159 CURVE",
"217 165 OFFCURVE",
"216 172 OFFCURVE",
"216 179 CURVE SMOOTH",
"216 204 OFFCURVE",
"226 234 OFFCURVE",
"246 269 CURVE SMOOTH",
"262 298 OFFCURVE",
"280 324 OFFCURVE",
"301 347 CURVE SMOOTH",
"367 420 OFFCURVE",
"456 472 OFFCURVE",
"565 503 CURVE"
);
},
{
closed = 1;
nodes = (
"318 154 OFFCURVE",
"284 141 OFFCURVE",
"253 141 CURVE SMOOTH",
"249 141 OFFCURVE",
"245 141 OFFCURVE",
"242 142 CURVE",
"277 155 OFFCURVE",
"315 168 OFFCURVE",
"356 180 CURVE"
);
},
{
closed = 1;
nodes = (
"457 1 OFFCURVE",
"358 -142 OFFCURVE",
"213 -204 CURVE SMOOTH",
"160 -227 OFFCURVE",
"103 -238 OFFCURVE",
"44 -238 CURVE SMOOTH",
"-46 -238 OFFCURVE",
"-91 -204 OFFCURVE",
"-91 -136 CURVE SMOOTH",
"-91 -39 OFFCURVE",
"7 48 OFFCURVE",
"202 126 CURVE",
"214 114 OFFCURVE",
"230 108 OFFCURVE",
"249 108 CURVE SMOOTH",
"300 108 OFFCURVE",
"357 138 OFFCURVE",
"418 198 CURVE",
"443 205 OFFCURVE",
"474 214 OFFCURVE",
"510 223 CURVE"
);
},
{
closed = 1;
nodes = (
"191 22 OFFCURVE",
"200 36 OFFCURVE",
"213 36 CURVE SMOOTH",
"224 36 OFFCURVE",
"231 28 OFFCURVE",
"231 18 CURVE SMOOTH",
"231 6 OFFCURVE",
"221 -9 OFFCURVE",
"205 -30 CURVE SMOOTH",
"192 -47 OFFCURVE",
"180 -57 OFFCURVE",
"172 -60 CURVE SMOOTH",
"169 -61 OFFCURVE",
"167 -62 OFFCURVE",
"164 -62 CURVE",
"164 -62 OFFCURVE",
"163 -62 OFFCURVE",
"163 -61 CURVE SMOOTH",
"163 -59 OFFCURVE",
"167 -54 OFFCURVE",
"168 -53 CURVE",
"167 -54 OFFCURVE",
"200 -23 OFFCURVE",
"204 -3 CURVE",
"196 -2 OFFCURVE",
"191 4 OFFCURVE",
"191 11 CURVE SMOOTH"
);
}
);
width = 548;
}
);
note = Gcommaaccent;
unicode = 0122;
},
{
color = 3;
glyphname = Gdotaccent;
lastChange = "2021-04-20 18:52:15 +0000";
layers = (
{
hints = (
{
horizontal = 1;
place = "{-271, 33}";
type = Stem;
},
{
horizontal = 1;
place = "{108, 33}";
type = Stem;
},
{
horizontal = 1;
place = "{234, 25}";
type = Stem;
},
{
place = "{-131, 40}";
type = Stem;
},
{
place = "{175, 41}";
type = Stem;
},
{
place = "{654, 33}";
type = Stem;
}
);
layerId = "57DEED6F-9A00-47D0-BD9B-6FE09716AB2D";
paths = (
{
closed = 1;
nodes = (
"687 504 OFFCURVE",
"661 520 OFFCURVE",
"609 525 CURVE",
"602 540 OFFCURVE",
"592 547 OFFCURVE",
"580 547 CURVE SMOOTH",
"572 547 OFFCURVE",
"567 541 OFFCURVE",
"565 529 CURVE",
"476 502 OFFCURVE",
"393 460 OFFCURVE",
"317 403 CURVE SMOOTH",
"222 332 OFFCURVE",
"175 258 OFFCURVE",
"175 181 CURVE SMOOTH",
"175 171 OFFCURVE",
"179 159 OFFCURVE",
"187 146 CURVE",
"-25 59 OFFCURVE",
"-131 -39 OFFCURVE",
"-131 -149 CURVE SMOOTH",
"-131 -230 OFFCURVE",
"-82 -271 OFFCURVE",
"17 -271 CURVE SMOOTH",
"90 -271 OFFCURVE",
"157 -255 OFFCURVE",
"220 -223 CURVE SMOOTH",
"388 -138 OFFCURVE",
"500 13 OFFCURVE",
"556 232 CURVE",
"565 233 OFFCURVE",
"576 234 OFFCURVE",
"589 234 CURVE SMOOTH",
"593 234 OFFCURVE",
"599 234 OFFCURVE",
"606 233 CURVE SMOOTH",
"613 232 OFFCURVE",
"618 232 OFFCURVE",
"621 232 CURVE SMOOTH",
"632 232 OFFCURVE",
"637 235 OFFCURVE",
"637 242 CURVE SMOOTH",
"637 253 OFFCURVE",
"620 259 OFFCURVE",
"586 259 CURVE SMOOTH",
"579 259 OFFCURVE",
"571 259 OFFCURVE",
"563 258 CURVE",
"576 315 OFFCURVE",
"586 364 OFFCURVE",
"594 405 CURVE SMOOTH",
"603 451 OFFCURVE",
"609 483 OFFCURVE",
"610 500 CURVE",
"613 501 OFFCURVE",
"616 501 OFFCURVE",
"619 501 CURVE SMOOTH",
"642 501 OFFCURVE",
"654 492 OFFCURVE",
"654 473 CURVE SMOOTH",
"654 466 OFFCURVE",
"652 457 OFFCURVE",
"647 447 CURVE SMOOTH",
"642 437 OFFCURVE",
"640 432 OFFCURVE",
"640 431 CURVE SMOOTH",
"640 426 OFFCURVE",
"642 424 OFFCURVE",
"647 424 CURVE SMOOTH",
"656 424 OFFCURVE",
"665 430 OFFCURVE",
"674 443 CURVE SMOOTH",
"683 456 OFFCURVE",
"687 466 OFFCURVE",
"687 475 CURVE SMOOTH"
);
},
{
closed = 1;
nodes = (
"517 249 LINE",
"494 244 OFFCURVE",
"472 238 OFFCURVE",
"451 233 CURVE",
"483 269 OFFCURVE",
"512 308 OFFCURVE",
"537 351 CURVE"
);
},
{
closed = 1;
nodes = (
"559 456 OFFCURVE",
"540 404 OFFCURVE",
"507 349 CURVE SMOOTH",
"478 300 OFFCURVE",
"443 257 OFFCURVE",
"404 220 CURVE",
"337 201 OFFCURVE",
"276 180 OFFCURVE",
"220 159 CURVE",
"217 165 OFFCURVE",
"216 172 OFFCURVE",
"216 179 CURVE SMOOTH",
"216 204 OFFCURVE",
"226 234 OFFCURVE",
"246 269 CURVE SMOOTH",
"262 298 OFFCURVE",
"280 324 OFFCURVE",
"301 347 CURVE SMOOTH",
"367 420 OFFCURVE",
"456 472 OFFCURVE",
"565 503 CURVE"
);
},
{
closed = 1;
nodes = (
"318 154 OFFCURVE",
"284 141 OFFCURVE",
"253 141 CURVE SMOOTH",
"249 141 OFFCURVE",
"245 141 OFFCURVE",
"242 142 CURVE",
"277 155 OFFCURVE",
"315 168 OFFCURVE",
"356 180 CURVE"
);
},
{
closed = 1;
nodes = (
"457 1 OFFCURVE",
"358 -142 OFFCURVE",
"213 -204 CURVE SMOOTH",
"160 -227 OFFCURVE",
"103 -238 OFFCURVE",
"44 -238 CURVE SMOOTH",
"-46 -238 OFFCURVE",
"-91 -204 OFFCURVE",
"-91 -136 CURVE SMOOTH",
"-91 -39 OFFCURVE",
"7 48 OFFCURVE",
"202 126 CURVE",
"214 114 OFFCURVE",
"230 108 OFFCURVE",
"249 108 CURVE SMOOTH",
"300 108 OFFCURVE",
"357 138 OFFCURVE",
"418 198 CURVE",
"443 205 OFFCURVE",
"474 214 OFFCURVE",
"510 223 CURVE"
);
},
{
closed = 1;
nodes = (
"579 621 OFFCURVE",
"589 612 OFFCURVE",
"605 612 CURVE SMOOTH",
"621 612 OFFCURVE",
"634 627 OFFCURVE",
"634 642 CURVE SMOOTH",
"634 655 OFFCURVE",
"625 666 OFFCURVE",
"610 666 CURVE SMOOTH",
"592 666 OFFCURVE",
"579 648 OFFCURVE",
"579 633 CURVE SMOOTH"
);
}
);
width = 548;
}
);
note = Gdotaccent;
unicode = 0120;
},
{
color = 3;
glyphname = H;
lastChange = "2021-04-20 18:52:15 +0000";
layers = (
{
hints = (
{
horizontal = 1;
place = "{-96, 24}";
type = Stem;
},
{
horizontal = 1;
place = "{-53, 20}";
type = Stem;
},
{
horizontal = 1;
place = "{233, 24}";
type = Stem;
},
{
horizontal = 1;
place = "{487, 25}";
type = Stem;
},
{
horizontal = 1;
place = "{535, -20}";
target = down;
type = TopGhost;
},
{
place = "{-18, 35}";
type = Stem;
},
{
place = "{604, 41}";
type = Stem;
},
{
place = "{671, 27}";
type = Stem;
},
{
place = "{724, 38}";
type = Stem;
},
{
place = "{802, 24}";
type = Stem;
}
);
layerId = "57DEED6F-9A00-47D0-BD9B-6FE09716AB2D";
paths = (
{
closed = 1;
nodes = (
"953 533 OFFCURVE",
"949 535 OFFCURVE",
"940 535 CURVE SMOOTH",
"917 535 OFFCURVE",
"901 530 OFFCURVE",
"892 520 CURVE SMOOTH",
"857 479 OFFCURVE",
"814 405 OFFCURVE",
"765 297 CURVE SMOOTH",
"733 225 LINE",
"701 236 OFFCURVE",
"656 245 OFFCURVE",
"597 253 CURVE",
"629 336 OFFCURVE",
"645 401 OFFCURVE",
"645 447 CURVE SMOOTH",
"645 490 OFFCURVE",
"630 512 OFFCURVE",
"599 512 CURVE SMOOTH",
"587 512 OFFCURVE",
"571 508 OFFCURVE",
"551 500 CURVE SMOOTH",
"529 491 OFFCURVE",
"518 483 OFFCURVE",
"518 474 CURVE SMOOTH",
"518 468 OFFCURVE",
"520 465 OFFCURVE",
"524 465 CURVE SMOOTH",
"525 465 OFFCURVE",
"533 469 OFFCURVE",
"546 476 CURVE SMOOTH",
"559 483 OFFCURVE",
"570 487 OFFCURVE",
"579 487 CURVE SMOOTH",
"596 487 OFFCURVE",
"604 474 OFFCURVE",
"604 448 CURVE SMOOTH",
"604 407 OFFCURVE",
"587 343 OFFCURVE",
"552 257 CURVE",
"534 258 OFFCURVE",
"513 259 OFFCURVE",
"489 259 CURVE SMOOTH",
"378 259 OFFCURVE",
"276 247 OFFCURVE",
"185 221 CURVE SMOOTH",
"50 183 OFFCURVE",
"-18 123 OFFCURVE",
"-18 41 CURVE SMOOTH",
"-18 -3 OFFCURVE",
"1 -38 OFFCURVE",
"38 -63 CURVE SMOOTH",
"71 -85 OFFCURVE",
"110 -96 OFFCURVE",
"156 -96 CURVE SMOOTH",
"235 -96 OFFCURVE",
"319 -60 OFFCURVE",
"406 13 CURVE SMOOTH",
"483 76 OFFCURVE",
"542 148 OFFCURVE",
"585 228 CURVE",
"642 222 OFFCURVE",
"689 213 OFFCURVE",
"724 202 CURVE",
"689 115 OFFCURVE",
"671 50 OFFCURVE",
"671 8 CURVE SMOOTH",
"671 -33 OFFCURVE",
"686 -53 OFFCURVE",
"717 -53 CURVE SMOOTH",
"726 -53 OFFCURVE",
"737 -49 OFFCURVE",
"751 -41 CURVE SMOOTH",
"764 -34 OFFCURVE",
"771 -26 OFFCURVE",
"771 -19 CURVE SMOOTH",
"771 -13 OFFCURVE",
"768 -10 OFFCURVE",
"762 -10 CURVE SMOOTH",
"761 -10 OFFCURVE",
"755 -14 OFFCURVE",
"744 -22 CURVE SMOOTH",
"733 -29 OFFCURVE",
"725 -33 OFFCURVE",
"719 -33 CURVE SMOOTH",
"705 -33 OFFCURVE",
"698 -21 OFFCURVE",
"698 3 CURVE SMOOTH",
"698 44 OFFCURVE",
"716 106 OFFCURVE",
"752 191 CURVE",
"785 176 OFFCURVE",
"802 161 OFFCURVE",
"802 148 CURVE SMOOTH",
"802 145 OFFCURVE",
"801 143 OFFCURVE",
"799 140 CURVE SMOOTH",
"797 137 OFFCURVE",
"796 135 OFFCURVE",
"796 133 CURVE SMOOTH",
"796 125 OFFCURVE",
"800 121 OFFCURVE",
"808 121 CURVE SMOOTH",
"813 121 OFFCURVE",
"817 124 OFFCURVE",
"821 130 CURVE SMOOTH",
"824 136 OFFCURVE",
"826 142 OFFCURVE",
"826 147 CURVE SMOOTH",
"826 170 OFFCURVE",
"805 192 OFFCURVE",
"762 213 CURVE",
"805 310 OFFCURVE",
"868 414 OFFCURVE",
"951 525 CURVE",
"952 527 OFFCURVE",
"953 529 OFFCURVE",
"953 530 CURVE SMOOTH"
);
},
{
closed = 1;
nodes = (
"501 156 OFFCURVE",
"449 90 OFFCURVE",
"382 31 CURVE SMOOTH",
"303 -38 OFFCURVE",
"228 -72 OFFCURVE",
"156 -72 CURVE SMOOTH",
"120 -72 OFFCURVE",
"89 -64 OFFCURVE",
"63 -47 CURVE SMOOTH",
"32 -28 OFFCURVE",
"17 -1 OFFCURVE",
"17 34 CURVE SMOOTH",
"17 107 OFFCURVE",
"80 162 OFFCURVE",
"207 197 CURVE SMOOTH",
"293 221 OFFCURVE",
"386 233 OFFCURVE",
"487 233 CURVE SMOOTH",
"506 233 OFFCURVE",
"524 232 OFFCURVE",
"539 231 CURVE"
);
}
);
width = 811;
}
);
note = H;
unicode = 0048;
},
{
color = 3;
glyphname = Hbar;
lastChange = "2021-04-20 18:52:15 +0000";
layers = (
{
hints = (
{
horizontal = 1;
place = "{-96, 24}";
type = Stem;
},
{
horizontal = 1;
place = "{-53, 20}";
type = Stem;
},
{
horizontal = 1;
place = "{233, 24}";
type = Stem;
},
{
horizontal = 1;
place = "{487, 25}";
type = Stem;
},
{
horizontal = 1;
place = "{535, -20}";
target = down;
type = TopGhost;
},
{
place = "{-18, 35}";
type = Stem;
},
{
place = "{604, 41}";
type = Stem;
},
{
place = "{671, 27}";
type = Stem;
},
{
place = "{724, 38}";
type = Stem;
},
{
place = "{802, 24}";
type = Stem;
}
);
layerId = "57DEED6F-9A00-47D0-BD9B-6FE09716AB2D";
paths = (
{
closed = 1;
nodes = (
"915 404 OFFCURVE",
"900 409 OFFCURVE",
"872 412 CURVE",
"896 449 OFFCURVE",
"922 486 OFFCURVE",
"951 525 CURVE",
"952 527 OFFCURVE",
"953 529 OFFCURVE",
"953 530 CURVE SMOOTH",
"953 533 OFFCURVE",
"949 535 OFFCURVE",
"940 535 CURVE SMOOTH",
"917 535 OFFCURVE",
"901 530 OFFCURVE",
"892 520 CURVE SMOOTH",
"872 496 OFFCURVE",
"849 462 OFFCURVE",
"824 416 CURVE",
"769 420 OFFCURVE",
"724 422 OFFCURVE",
"689 422 CURVE SMOOTH",
"672 422 OFFCURVE",
"657 421 OFFCURVE",
"643 420 CURVE",
"644 430 OFFCURVE",
"645 439 OFFCURVE",
"645 447 CURVE SMOOTH",
"645 490 OFFCURVE",
"630 512 OFFCURVE",
"599 512 CURVE SMOOTH",
"587 512 OFFCURVE",
"571 508 OFFCURVE",
"551 500 CURVE SMOOTH",
"529 491 OFFCURVE",
"518 483 OFFCURVE",
"518 474 CURVE SMOOTH",
"518 468 OFFCURVE",
"520 465 OFFCURVE",
"524 465 CURVE SMOOTH",
"525 465 OFFCURVE",
"533 469 OFFCURVE",
"546 476 CURVE SMOOTH",
"559 483 OFFCURVE",
"570 487 OFFCURVE",
"579 487 CURVE SMOOTH",
"596 487 OFFCURVE",
"604 474 OFFCURVE",
"604 448 CURVE SMOOTH",
"604 438 OFFCURVE",
"603 427 OFFCURVE",
"601 414 CURVE",
"559 405 OFFCURVE",
"537 396 OFFCURVE",
"537 385 CURVE SMOOTH",
"537 379 OFFCURVE",
"550 376 OFFCURVE",
"575 376 CURVE SMOOTH",
"585 376 LINE",
"593 376 LINE",
"584 342 OFFCURVE",
"570 303 OFFCURVE",
"552 257 CURVE",
"534 258 OFFCURVE",
"513 259 OFFCURVE",
"489 259 CURVE SMOOTH",
"378 259 OFFCURVE",
"276 247 OFFCURVE",
"185 221 CURVE SMOOTH",
"50 183 OFFCURVE",
"-18 123 OFFCURVE",
"-18 41 CURVE SMOOTH",
"-18 -3 OFFCURVE",
"1 -38 OFFCURVE",
"38 -63 CURVE SMOOTH",
"71 -85 OFFCURVE",
"110 -96 OFFCURVE",
"156 -96 CURVE SMOOTH",
"235 -96 OFFCURVE",
"319 -60 OFFCURVE",
"406 13 CURVE SMOOTH",
"483 76 OFFCURVE",
"542 148 OFFCURVE",
"585 228 CURVE",
"642 222 OFFCURVE",
"689 213 OFFCURVE",
"724 202 CURVE",
"689 115 OFFCURVE",
"671 50 OFFCURVE",
"671 8 CURVE SMOOTH",
"671 -33 OFFCURVE",
"686 -53 OFFCURVE",
"717 -53 CURVE SMOOTH",
"726 -53 OFFCURVE",
"737 -49 OFFCURVE",
"751 -41 CURVE SMOOTH",
"764 -34 OFFCURVE",
"771 -26 OFFCURVE",
"771 -19 CURVE SMOOTH",
"771 -13 OFFCURVE",
"768 -10 OFFCURVE",
"762 -10 CURVE SMOOTH",
"761 -10 OFFCURVE",
"755 -14 OFFCURVE",
"744 -22 CURVE SMOOTH",
"733 -29 OFFCURVE",
"725 -33 OFFCURVE",
"719 -33 CURVE SMOOTH",
"705 -33 OFFCURVE",
"698 -21 OFFCURVE",
"698 3 CURVE SMOOTH",
"698 44 OFFCURVE",
"716 106 OFFCURVE",
"752 191 CURVE",
"785 176 OFFCURVE",
"802 161 OFFCURVE",
"802 148 CURVE SMOOTH",
"802 145 OFFCURVE",
"801 143 OFFCURVE",
"799 140 CURVE SMOOTH",
"797 137 OFFCURVE",
"796 135 OFFCURVE",
"796 133 CURVE SMOOTH",
"796 125 OFFCURVE",
"800 121 OFFCURVE",
"808 121 CURVE SMOOTH",
"813 121 OFFCURVE",
"817 124 OFFCURVE",
"821 130 CURVE SMOOTH",
"824 136 OFFCURVE",
"826 142 OFFCURVE",
"826 147 CURVE SMOOTH",
"826 170 OFFCURVE",
"805 192 OFFCURVE",
"762 213 CURVE",
"787 270 OFFCURVE",
"819 329 OFFCURVE",
"858 391 CURVE",
"866 391 LINE SMOOTH",
"898 391 OFFCURVE",
"915 394 OFFCURVE",
"915 401 CURVE SMOOTH"
);
},
{
closed = 1;
nodes = (
"501 156 OFFCURVE",
"449 90 OFFCURVE",
"382 31 CURVE SMOOTH",
"303 -38 OFFCURVE",
"228 -72 OFFCURVE",
"156 -72 CURVE SMOOTH",
"120 -72 OFFCURVE",
"89 -64 OFFCURVE",
"63 -47 CURVE SMOOTH",
"32 -28 OFFCURVE",
"17 -1 OFFCURVE",
"17 34 CURVE SMOOTH",
"17 107 OFFCURVE",
"80 162 OFFCURVE",
"207 197 CURVE SMOOTH",
"293 221 OFFCURVE",
"386 233 OFFCURVE",
"487 233 CURVE SMOOTH",
"506 233 OFFCURVE",
"524 232 OFFCURVE",
"539 231 CURVE"
);
},
{
closed = 1;
nodes = (
"733 225 LINE",
"701 236 OFFCURVE",
"656 245 OFFCURVE",
"597 253 CURVE",
"615 300 OFFCURVE",
"628 341 OFFCURVE",
"636 377 CURVE",
"691 379 OFFCURVE",
"733 385 OFFCURVE",
"763 387 CURVE SMOOTH",
"810 390 LINE",
"795 362 OFFCURVE",
"780 331 OFFCURVE",
"765 297 CURVE SMOOTH"
);
}
);
width = 811;
}
);
note = Hbar;
unicode = 0126;
},
{
color = 3;
glyphname = Hcircumflex;
lastChange = "2021-04-20 18:52:15 +0000";
layers = (
{
hints = (
{
horizontal = 1;
place = "{-96, 24}";
type = Stem;
},
{
horizontal = 1;
place = "{-53, 20}";
type = Stem;
},
{
horizontal = 1;
place = "{233, 24}";
type = Stem;
},
{
horizontal = 1;
place = "{487, 25}";
type = Stem;
},
{
horizontal = 1;
place = "{535, -20}";
target = down;
type = TopGhost;
},
{
place = "{-18, 35}";
type = Stem;
},
{
place = "{604, 41}";
type = Stem;
},
{
place = "{671, 27}";
type = Stem;
},
{
place = "{724, 38}";
type = Stem;
},
{
place = "{802, 24}";
type = Stem;
}
);
layerId = "57DEED6F-9A00-47D0-BD9B-6FE09716AB2D";
paths = (
{
closed = 1;
nodes = (
"953 533 OFFCURVE",
"949 535 OFFCURVE",
"940 535 CURVE SMOOTH",
"917 535 OFFCURVE",
"901 530 OFFCURVE",
"892 520 CURVE SMOOTH",
"857 479 OFFCURVE",
"814 405 OFFCURVE",
"765 297 CURVE SMOOTH",
"733 225 LINE",
"701 236 OFFCURVE",
"656 245 OFFCURVE",
"597 253 CURVE",
"629 336 OFFCURVE",
"645 401 OFFCURVE",
"645 447 CURVE SMOOTH",
"645 490 OFFCURVE",
"630 512 OFFCURVE",
"599 512 CURVE SMOOTH",
"587 512 OFFCURVE",
"571 508 OFFCURVE",
"551 500 CURVE SMOOTH",
"529 491 OFFCURVE",
"518 483 OFFCURVE",
"518 474 CURVE SMOOTH",
"518 468 OFFCURVE",
"520 465 OFFCURVE",
"524 465 CURVE SMOOTH",
"525 465 OFFCURVE",
"533 469 OFFCURVE",
"546 476 CURVE SMOOTH",
"559 483 OFFCURVE",
"570 487 OFFCURVE",
"579 487 CURVE SMOOTH",
"596 487 OFFCURVE",
"604 474 OFFCURVE",
"604 448 CURVE SMOOTH",
"604 407 OFFCURVE",
"587 343 OFFCURVE",
"552 257 CURVE",
"534 258 OFFCURVE",
"513 259 OFFCURVE",
"489 259 CURVE SMOOTH",
"378 259 OFFCURVE",
"276 247 OFFCURVE",
"185 221 CURVE SMOOTH",
"50 183 OFFCURVE",
"-18 123 OFFCURVE",
"-18 41 CURVE SMOOTH",
"-18 -3 OFFCURVE",
"1 -38 OFFCURVE",
"38 -63 CURVE SMOOTH",
"71 -85 OFFCURVE",
"110 -96 OFFCURVE",
"156 -96 CURVE SMOOTH",
"235 -96 OFFCURVE",
"319 -60 OFFCURVE",
"406 13 CURVE SMOOTH",
"483 76 OFFCURVE",
"542 148 OFFCURVE",
"585 228 CURVE",
"642 222 OFFCURVE",
"689 213 OFFCURVE",
"724 202 CURVE",
"689 115 OFFCURVE",
"671 50 OFFCURVE",
"671 8 CURVE SMOOTH",
"671 -33 OFFCURVE",
"686 -53 OFFCURVE",
"717 -53 CURVE SMOOTH",
"726 -53 OFFCURVE",
"737 -49 OFFCURVE",
"751 -41 CURVE SMOOTH",
"764 -34 OFFCURVE",
"771 -26 OFFCURVE",
"771 -19 CURVE SMOOTH",
"771 -13 OFFCURVE",
"768 -10 OFFCURVE",
"762 -10 CURVE SMOOTH",
"761 -10 OFFCURVE",
"755 -14 OFFCURVE",
"744 -22 CURVE SMOOTH",
"733 -29 OFFCURVE",
"725 -33 OFFCURVE",
"719 -33 CURVE SMOOTH",
"705 -33 OFFCURVE",
"698 -21 OFFCURVE",
"698 3 CURVE SMOOTH",
"698 44 OFFCURVE",
"716 106 OFFCURVE",
"752 191 CURVE",
"785 176 OFFCURVE",
"802 161 OFFCURVE",
"802 148 CURVE SMOOTH",
"802 145 OFFCURVE",
"801 143 OFFCURVE",
"799 140 CURVE SMOOTH",
"797 137 OFFCURVE",
"796 135 OFFCURVE",
"796 133 CURVE SMOOTH",
"796 125 OFFCURVE",
"800 121 OFFCURVE",
"808 121 CURVE SMOOTH",
"813 121 OFFCURVE",
"817 124 OFFCURVE",
"821 130 CURVE SMOOTH",
"824 136 OFFCURVE",
"826 142 OFFCURVE",
"826 147 CURVE SMOOTH",
"826 170 OFFCURVE",
"805 192 OFFCURVE",
"762 213 CURVE",
"805 310 OFFCURVE",
"868 414 OFFCURVE",
"951 525 CURVE",
"952 527 OFFCURVE",
"953 529 OFFCURVE",
"953 530 CURVE SMOOTH"
);
},
{
closed = 1;
nodes = (
"501 156 OFFCURVE",
"449 90 OFFCURVE",
"382 31 CURVE SMOOTH",
"303 -38 OFFCURVE",
"228 -72 OFFCURVE",
"156 -72 CURVE SMOOTH",
"120 -72 OFFCURVE",
"89 -64 OFFCURVE",
"63 -47 CURVE SMOOTH",
"32 -28 OFFCURVE",
"17 -1 OFFCURVE",
"17 34 CURVE SMOOTH",
"17 107 OFFCURVE",
"80 162 OFFCURVE",
"207 197 CURVE SMOOTH",
"293 221 OFFCURVE",
"386 233 OFFCURVE",
"487 233 CURVE SMOOTH",
"506 233 OFFCURVE",
"524 232 OFFCURVE",
"539 231 CURVE"
);
},
{
closed = 1;
nodes = (
"855 565 LINE",
"824 596 OFFCURVE",
"799 623 OFFCURVE",
"792 637 CURVE SMOOTH",
"782 655 OFFCURVE",
"763 637 OFFCURVE",
"718 607 CURVE SMOOTH",
"681 582 OFFCURVE",
"662 568 OFFCURVE",
"661 563 CURVE SMOOTH",
"659 558 OFFCURVE",
"661 556 OFFCURVE",
"665 556 CURVE SMOOTH",
"671 556 OFFCURVE",
"705 576 OFFCURVE",
"766 617 CURVE",
"772 608 OFFCURVE",
"784 595 OFFCURVE",
"805 579 CURVE SMOOTH",
"806 578 OFFCURVE",
"825 561 OFFCURVE",
"839 555 CURVE SMOOTH",
"848 551 OFFCURVE",
"858 556 OFFCURVE",
"856 561 CURVE SMOOTH"
);
}
);
width = 811;
}
);
note = Hcircumflex;
unicode = 0124;
},
{
color = 3;
glyphname = I;
lastChange = "2021-04-20 18:52:15 +0000";
layers = (
{
hints = (
{
horizontal = 1;
place = "{-40, 20}";
type = Stem;
},
{
horizontal = 1;
place = "{13, 39}";
type = Stem;
},
{
horizontal = 1;
place = "{541, -20}";
target = down;
type = TopGhost;
},
{
place = "{159, 41}";
type = Stem;
}
);
layerId = "57DEED6F-9A00-47D0-BD9B-6FE09716AB2D";
paths = (
{
closed = 1;
nodes = (
"675 497 OFFCURVE",
"671 501 OFFCURVE",
"664 503 CURVE SMOOTH",
"649 506 OFFCURVE",
"637 507 OFFCURVE",
"629 508 CURVE SMOOTH",
"590 513 OFFCURVE",
"552 517 OFFCURVE",
"514 520 CURVE",
"521 529 OFFCURVE",
"524 534 OFFCURVE",
"524 535 CURVE SMOOTH",
"524 539 OFFCURVE",
"519 541 OFFCURVE",
"509 541 CURVE SMOOTH",
"484 541 OFFCURVE",
"468 535 OFFCURVE",
"460 524 CURVE",
"435 525 OFFCURVE",
"411 526 OFFCURVE",
"388 526 CURVE SMOOTH",
"302 526 OFFCURVE",
"240 517 OFFCURVE",
"202 499 CURVE SMOOTH",
"173 485 OFFCURVE",
"159 471 OFFCURVE",
"159 456 CURVE SMOOTH",
"159 437 OFFCURVE",
"186 414 OFFCURVE",
"239 389 CURVE SMOOTH",
"242 388 OFFCURVE",
"244 388 OFFCURVE",
"246 388 CURVE SMOOTH",
"253 388 OFFCURVE",
"256 391 OFFCURVE",
"256 396 CURVE SMOOTH",
"256 400 OFFCURVE",
"247 407 OFFCURVE",
"228 418 CURVE SMOOTH",
"209 429 OFFCURVE",
"200 439 OFFCURVE",
"200 448 CURVE SMOOTH",
"200 470 OFFCURVE",
"242 486 OFFCURVE",
"325 496 CURVE SMOOTH",
"353 499 OFFCURVE",
"386 500 OFFCURVE",
"425 500 CURVE SMOOTH",
"442 500 LINE",
"401 443 OFFCURVE",
"358 368 OFFCURVE",
"314 277 CURVE SMOOTH",
"265 176 OFFCURVE",
"237 98 OFFCURVE",
"230 42 CURVE",
"181 35 OFFCURVE",
"130 25 OFFCURVE",
"76 11 CURVE SMOOTH",
"40 2 OFFCURVE",
"20 -4 OFFCURVE",
"15 -6 CURVE SMOOTH",
"8 -9 OFFCURVE",
"5 -13 OFFCURVE",
"5 -18 CURVE SMOOTH",
"5 -27 OFFCURVE",
"9 -31 OFFCURVE",
"17 -31 CURVE SMOOTH",
"33 -31 OFFCURVE",
"67 -25 OFFCURVE",
"118 -14 CURVE SMOOTH",
"175 -2 OFFCURVE",
"212 5 OFFCURVE",
"229 7 CURVE",
"232 -24 OFFCURVE",
"246 -40 OFFCURVE",
"273 -40 CURVE SMOOTH",
"282 -40 OFFCURVE",
"293 -36 OFFCURVE",
"307 -29 CURVE SMOOTH",
"320 -23 OFFCURVE",
"327 -15 OFFCURVE",
"327 -7 CURVE SMOOTH",
"327 -1 OFFCURVE",
"324 2 OFFCURVE",
"319 2 CURVE SMOOTH",
"317 2 OFFCURVE",
"313 -5 OFFCURVE",
"302 -12 CURVE SMOOTH",
"291 -19 OFFCURVE",
"281 -20 OFFCURVE",
"275 -20 CURVE SMOOTH",
"262 -20 OFFCURVE",
"256 -10 OFFCURVE",
"255 9 CURVE",
"283 12 OFFCURVE",
"309 13 OFFCURVE",
"333 13 CURVE SMOOTH",
"362 13 OFFCURVE",
"432 8 OFFCURVE",
"456 -6 CURVE SMOOTH",
"462 -10 OFFCURVE",
"466 0 OFFCURVE",
"466 11 CURVE SMOOTH",
"466 20 OFFCURVE",
"464 26 OFFCURVE",
"460 31 CURVE SMOOTH",
"447 45 OFFCURVE",
"411 52 OFFCURVE",
"350 52 CURVE SMOOTH",
"323 52 OFFCURVE",
"292 50 OFFCURVE",
"258 46 CURVE",
"269 105 OFFCURVE",
"301 184 OFFCURVE",
"353 283 CURVE SMOOTH",
"389 351 OFFCURVE",
"437 423 OFFCURVE",
"497 499 CURVE",
"570 494 OFFCURVE",
"625 489 OFFCURVE",
"661 485 CURVE",
"664 484 LINE",
"671 484 OFFCURVE",
"675 487 OFFCURVE",
"675 492 CURVE SMOOTH"
);
}
);
width = 457;
}
);
leftKerningGroup = I;
note = I;
rightKerningGroup = I;
unicode = 0049;
},
{
color = 3;
glyphname = IJ;
lastChange = "2021-04-20 18:52:15 +0000";
layers = (
{
hints = (
{
horizontal = 1;
place = "{-301, 28}";
type = Stem;
},
{
horizontal = 1;
place = "{-40, 20}";
type = Stem;
},
{
horizontal = 1;
place = "{13, 39}";
type = Stem;
},
{
horizontal = 1;
place = "{82, 23}";
type = Stem;
},
{
horizontal = 1;
place = "{151, 21}";
target = up;
type = BottomGhost;
},
{
horizontal = 1;
place = "{519, 21}";
target = up;
type = BottomGhost;
},
{
place = "{159, 41}";
type = Stem;
},
{
place = "{358, 37}";
type = Stem;
},
{
place = "{459, 28}";
type = Stem;
},
{
place = "{953, 40}";
type = Stem;
},
{
place = "{357, 37}";
type = Stem;
},
{
horizontal = 1;
place = "{541, -20}";
target = down;
type = TopGhost;
},
{
place = "{460, 28}";
type = Stem;
}
);
layerId = "57DEED6F-9A00-47D0-BD9B-6FE09716AB2D";
paths = (
{
closed = 1;
nodes = (
"778 77 OFFCURVE",
"660 36 OFFCURVE",
"555 -26 CURVE SMOOTH",
"433 -97 OFFCURVE",
"366 -173 OFFCURVE",
"357 -250 CURVE",
"357 -262 LINE SMOOTH",
"357 -290 OFFCURVE",
"366 -311 OFFCURVE",
"387 -329 CURVE SMOOTH",
"408 -347 OFFCURVE",
"437 -356 OFFCURVE",
"471 -356 CURVE SMOOTH",
"477 -356 LINE SMOOTH",
"649 -346 OFFCURVE",
"836 -154 OFFCURVE",
"915 74 CURVE",
"924 76 OFFCURVE",
"931 76 OFFCURVE",
"940 76 CURVE SMOOTH",
"950 76 OFFCURVE",
"969 76 OFFCURVE",
"974 74 CURVE",
"983 67 LINE",
"986 67 OFFCURVE",
"988 70 OFFCURVE",
"988 77 CURVE SMOOTH",
"988 93 OFFCURVE",
"972 97 OFFCURVE",
"932 97 CURVE SMOOTH",
"923 97 LINE",
"935 134 OFFCURVE",
"943 170 OFFCURVE",
"948 205 CURVE SMOOTH",
"950 215 LINE SMOOTH",
"955 254 OFFCURVE",
"961 302 OFFCURVE",
"961 349 CURVE SMOOTH",
"961 410 OFFCURVE",
"952 468 OFFCURVE",
"917 499 CURVE SMOOTH",
"892 522 OFFCURVE",
"857 533 OFFCURVE",
"821 534 CURVE SMOOTH",
"817 534 LINE SMOOTH",
"767 534 OFFCURVE",
"715 518 OFFCURVE",
"674 495 CURVE",
"673 499 OFFCURVE",
"669 501 OFFCURVE",
"664 503 CURVE",
"649 506 OFFCURVE",
"637 507 OFFCURVE",
"629 508 CURVE SMOOTH",
"590 513 OFFCURVE",
"552 517 OFFCURVE",
"514 520 CURVE",
"521 529 OFFCURVE",
"524 534 OFFCURVE",
"524 535 CURVE SMOOTH",
"524 539 OFFCURVE",
"519 541 OFFCURVE",
"509 541 CURVE SMOOTH",
"484 541 OFFCURVE",
"468 535 OFFCURVE",
"460 524 CURVE",
"435 525 OFFCURVE",
"411 526 OFFCURVE",
"388 526 CURVE SMOOTH",
"302 526 OFFCURVE",
"240 517 OFFCURVE",
"202 499 CURVE SMOOTH",
"173 485 OFFCURVE",
"159 471 OFFCURVE",
"159 456 CURVE SMOOTH",
"159 437 OFFCURVE",
"186 414 OFFCURVE",
"239 389 CURVE SMOOTH",
"242 388 OFFCURVE",
"244 388 OFFCURVE",
"246 388 CURVE SMOOTH",
"253 388 OFFCURVE",
"256 391 OFFCURVE",
"256 396 CURVE SMOOTH",
"256 400 OFFCURVE",
"247 407 OFFCURVE",
"228 418 CURVE SMOOTH",
"209 429 OFFCURVE",
"200 439 OFFCURVE",
"200 448 CURVE SMOOTH",
"200 470 OFFCURVE",
"242 486 OFFCURVE",
"325 496 CURVE SMOOTH",
"353 499 OFFCURVE",
"386 500 OFFCURVE",
"425 500 CURVE SMOOTH",
"442 500 LINE",
"401 443 OFFCURVE",
"358 368 OFFCURVE",
"314 277 CURVE SMOOTH",
"265 176 OFFCURVE",
"237 98 OFFCURVE",
"230 42 CURVE",
"181 35 OFFCURVE",
"130 25 OFFCURVE",
"76 11 CURVE SMOOTH",
"40 2 OFFCURVE",
"20 -4 OFFCURVE",
"15 -6 CURVE SMOOTH",
"8 -9 OFFCURVE",
"5 -13 OFFCURVE",
"5 -18 CURVE SMOOTH",
"5 -27 OFFCURVE",
"9 -31 OFFCURVE",
"17 -31 CURVE SMOOTH",
"33 -31 OFFCURVE",
"67 -25 OFFCURVE",
"118 -14 CURVE SMOOTH",
"175 -2 OFFCURVE",
"212 5 OFFCURVE",
"229 7 CURVE",
"232 -24 OFFCURVE",
"246 -40 OFFCURVE",
"273 -40 CURVE SMOOTH",
"282 -40 OFFCURVE",
"293 -36 OFFCURVE",
"307 -29 CURVE SMOOTH",
"320 -23 OFFCURVE",
"327 -15 OFFCURVE",
"327 -7 CURVE SMOOTH",
"327 -1 OFFCURVE",
"324 2 OFFCURVE",
"319 2 CURVE SMOOTH",
"317 2 OFFCURVE",
"313 -5 OFFCURVE",
"302 -12 CURVE SMOOTH",
"291 -19 OFFCURVE",
"281 -20 OFFCURVE",
"275 -20 CURVE SMOOTH",
"262 -20 OFFCURVE",
"256 -10 OFFCURVE",
"255 9 CURVE",
"283 12 OFFCURVE",
"309 13 OFFCURVE",
"333 13 CURVE SMOOTH",
"362 13 OFFCURVE",
"432 8 OFFCURVE",
"456 -6 CURVE SMOOTH",
"462 -10 OFFCURVE",
"466 0 OFFCURVE",
"466 11 CURVE SMOOTH",
"466 20 OFFCURVE",
"464 26 OFFCURVE",
"460 31 CURVE SMOOTH",
"447 45 OFFCURVE",
"411 52 OFFCURVE",
"350 52 CURVE SMOOTH",
"323 52 OFFCURVE",
"292 50 OFFCURVE",
"258 46 CURVE",
"269 105 OFFCURVE",
"301 184 OFFCURVE",
"353 283 CURVE SMOOTH",
"389 351 OFFCURVE",
"437 423 OFFCURVE",
"497 499 CURVE",
"568 494 OFFCURVE",
"622 489 OFFCURVE",
"658 485 CURVE",
"570 428 OFFCURVE",
"476 315 OFFCURVE",
"476 235 CURVE SMOOTH",
"476 194 OFFCURVE",
"494 162 OFFCURVE",
"535 149 CURVE SMOOTH",
"545 145 OFFCURVE",
"556 144 OFFCURVE",
"568 144 CURVE SMOOTH",
"586 144 OFFCURVE",
"606 147 OFFCURVE",
"624 152 CURVE SMOOTH",
"648 161 OFFCURVE",
"694 187 OFFCURVE",
"718 215 CURVE SMOOTH",
"724 223 OFFCURVE",
"728 228 OFFCURVE",
"728 234 CURVE SMOOTH",
"728 238 OFFCURVE",
"727 239 OFFCURVE",
"725 239 CURVE SMOOTH",
"720 239 LINE SMOOTH",
"719 239 OFFCURVE",
"679 206 OFFCURVE",
"646 187 CURVE SMOOTH",
"622 173 OFFCURVE",
"598 165 OFFCURVE",
"572 165 CURVE SMOOTH",
"562 165 OFFCURVE",
"553 166 OFFCURVE",
"542 168 CURVE SMOOTH",
"513 174 OFFCURVE",
"502 196 OFFCURVE",
"502 223 CURVE SMOOTH",
"502 292 OFFCURVE",
"605 412 OFFCURVE",
"688 470 CURVE SMOOTH",
"726 495 OFFCURVE",
"775 515 OFFCURVE",
"821 515 CURVE SMOOTH",
"849 515 OFFCURVE",
"876 505 OFFCURVE",
"894 482 CURVE SMOOTH",
"916 455 OFFCURVE",
"923 412 OFFCURVE",
"923 367 CURVE SMOOTH",
"923 315 OFFCURVE",
"913 257 OFFCURVE",
"906 215 CURVE SMOOTH",
"899 175 OFFCURVE",
"889 134 OFFCURVE",
"876 94 CURVE"
);
},
{
closed = 1;
nodes = (
"823 -70 OFFCURVE",
"736 -196 OFFCURVE",
"628 -280 CURVE SMOOTH",
"576 -320 OFFCURVE",
"529 -338 OFFCURVE",
"482 -341 CURVE SMOOTH",
"452 -341 OFFCURVE",
"429 -333 OFFCURVE",
"412 -316 CURVE SMOOTH",
"397 -303 OFFCURVE",
"389 -286 OFFCURVE",
"389 -264 CURVE SMOOTH",
"389 -261 OFFCURVE",
"389 -257 OFFCURVE",
"390 -252 CURVE SMOOTH",
"396 -201 OFFCURVE",
"431 -149 OFFCURVE",
"493 -95 CURVE SMOOTH",
"533 -60 OFFCURVE",
"580 -27 OFFCURVE",
"657 7 CURVE SMOOTH",
"734 42 OFFCURVE",
"817 66 OFFCURVE",
"870 74 CURVE"
);
}
);
width = 1009;
}
);
note = IJ;
unicode = 0132;
},
{
color = 3;
glyphname = Iacute;
lastChange = "2021-04-20 18:52:15 +0000";
layers = (
{
hints = (
{
horizontal = 1;
place = "{-40, 20}";
type = Stem;
},
{
horizontal = 1;
place = "{13, 39}";
type = Stem;
},
{
horizontal = 1;
place = "{541, -20}";
target = down;
type = TopGhost;
},
{
horizontal = 1;
place = "{596, 20}";
type = Stem;
},
{
place = "{159, 41}";
type = Stem;
}
);
layerId = "57DEED6F-9A00-47D0-BD9B-6FE09716AB2D";
paths = (
{
closed = 1;
nodes = (
"675 497 OFFCURVE",
"671 501 OFFCURVE",
"664 503 CURVE SMOOTH",
"649 506 OFFCURVE",
"637 507 OFFCURVE",
"629 508 CURVE SMOOTH",
"590 513 OFFCURVE",
"552 517 OFFCURVE",
"514 520 CURVE",
"521 529 OFFCURVE",
"524 534 OFFCURVE",
"524 535 CURVE SMOOTH",
"524 539 OFFCURVE",
"519 541 OFFCURVE",
"509 541 CURVE SMOOTH",
"484 541 OFFCURVE",
"468 535 OFFCURVE",
"460 524 CURVE",
"435 525 OFFCURVE",
"411 526 OFFCURVE",
"388 526 CURVE SMOOTH",
"302 526 OFFCURVE",
"240 517 OFFCURVE",
"202 499 CURVE SMOOTH",
"173 485 OFFCURVE",
"159 471 OFFCURVE",
"159 456 CURVE SMOOTH",
"159 437 OFFCURVE",
"186 414 OFFCURVE",
"239 389 CURVE SMOOTH",
"242 388 OFFCURVE",
"244 388 OFFCURVE",
"246 388 CURVE SMOOTH",
"253 388 OFFCURVE",
"256 391 OFFCURVE",
"256 396 CURVE SMOOTH",
"256 400 OFFCURVE",
"247 407 OFFCURVE",
"228 418 CURVE SMOOTH",
"209 429 OFFCURVE",
"200 439 OFFCURVE",
"200 448 CURVE SMOOTH",
"200 470 OFFCURVE",
"242 486 OFFCURVE",
"325 496 CURVE SMOOTH",
"353 499 OFFCURVE",
"386 500 OFFCURVE",
"425 500 CURVE SMOOTH",
"442 500 LINE",
"401 443 OFFCURVE",
"358 368 OFFCURVE",
"314 277 CURVE SMOOTH",
"265 176 OFFCURVE",
"237 98 OFFCURVE",
"230 42 CURVE",
"181 35 OFFCURVE",
"130 25 OFFCURVE",
"76 11 CURVE SMOOTH",
"40 2 OFFCURVE",
"20 -4 OFFCURVE",
"15 -6 CURVE SMOOTH",
"8 -9 OFFCURVE",
"5 -13 OFFCURVE",
"5 -18 CURVE SMOOTH",
"5 -27 OFFCURVE",
"9 -31 OFFCURVE",
"17 -31 CURVE SMOOTH",
"33 -31 OFFCURVE",
"67 -25 OFFCURVE",
"118 -14 CURVE SMOOTH",
"175 -2 OFFCURVE",
"212 5 OFFCURVE",
"229 7 CURVE",
"232 -24 OFFCURVE",
"246 -40 OFFCURVE",
"273 -40 CURVE SMOOTH",
"282 -40 OFFCURVE",
"293 -36 OFFCURVE",
"307 -29 CURVE SMOOTH",
"320 -23 OFFCURVE",
"327 -15 OFFCURVE",
"327 -7 CURVE SMOOTH",
"327 -1 OFFCURVE",
"324 2 OFFCURVE",
"319 2 CURVE SMOOTH",
"317 2 OFFCURVE",
"313 -5 OFFCURVE",
"302 -12 CURVE SMOOTH",
"291 -19 OFFCURVE",
"281 -20 OFFCURVE",
"275 -20 CURVE SMOOTH",
"262 -20 OFFCURVE",
"256 -10 OFFCURVE",
"255 9 CURVE",
"283 12 OFFCURVE",
"309 13 OFFCURVE",
"333 13 CURVE SMOOTH",
"362 13 OFFCURVE",
"432 8 OFFCURVE",
"456 -6 CURVE SMOOTH",
"462 -10 OFFCURVE",
"466 0 OFFCURVE",
"466 11 CURVE SMOOTH",
"466 20 OFFCURVE",
"464 26 OFFCURVE",
"460 31 CURVE SMOOTH",
"447 45 OFFCURVE",
"411 52 OFFCURVE",
"350 52 CURVE SMOOTH",
"323 52 OFFCURVE",
"292 50 OFFCURVE",
"258 46 CURVE",
"269 105 OFFCURVE",
"301 184 OFFCURVE",
"353 283 CURVE SMOOTH",
"389 351 OFFCURVE",
"437 423 OFFCURVE",
"497 499 CURVE",
"570 494 OFFCURVE",
"625 489 OFFCURVE",
"661 485 CURVE",
"664 484 LINE",
"671 484 OFFCURVE",
"675 487 OFFCURVE",
"675 492 CURVE SMOOTH"
);
},
{
closed = 1;
nodes = (
"658 695 OFFCURVE",
"655 699 OFFCURVE",
"649 699 CURVE SMOOTH",
"645 699 OFFCURVE",
"639 696 OFFCURVE",
"632 690 CURVE SMOOTH",
"527 609 LINE SMOOTH",
"524 607 OFFCURVE",
"523 605 OFFCURVE",
"523 602 CURVE SMOOTH",
"523 598 OFFCURVE",
"525 596 OFFCURVE",
"530 596 CURVE SMOOTH",
"534 596 OFFCURVE",
"553 606 OFFCURVE",
"588 627 CURVE SMOOTH",
"622 648 OFFCURVE",
"643 661 OFFCURVE",
"650 667 CURVE SMOOTH",
"655 672 OFFCURVE",
"658 678 OFFCURVE",
"658 686 CURVE SMOOTH"
);
}
);
width = 457;
}
);
leftKerningGroup = Igrave;
note = Iacute;
rightKerningGroup = Igrave;
unicode = 00CD;
},
{
color = 3;
glyphname = Ibreve;
lastChange = "2021-04-20 18:52:15 +0000";
layers = (
{
hints = (
{
horizontal = 1;
place = "{-40, 20}";
type = Stem;
},
{
horizontal = 1;
place = "{13, 39}";
type = Stem;
},
{
horizontal = 1;
place = "{541, -20}";
target = down;
type = TopGhost;
},
{
place = "{159, 41}";
type = Stem;
},
{
horizontal = 1;
place = "{608, 22}";
type = Stem;
}
);
layerId = "57DEED6F-9A00-47D0-BD9B-6FE09716AB2D";
paths = (
{
closed = 1;
nodes = (
"675 497 OFFCURVE",
"671 501 OFFCURVE",
"664 503 CURVE SMOOTH",
"649 506 OFFCURVE",
"637 507 OFFCURVE",
"629 508 CURVE SMOOTH",
"590 513 OFFCURVE",
"552 517 OFFCURVE",
"514 520 CURVE",
"521 529 OFFCURVE",
"524 534 OFFCURVE",
"524 535 CURVE SMOOTH",
"524 539 OFFCURVE",
"519 541 OFFCURVE",
"509 541 CURVE SMOOTH",
"484 541 OFFCURVE",
"468 535 OFFCURVE",
"460 524 CURVE",
"435 525 OFFCURVE",
"411 526 OFFCURVE",
"388 526 CURVE SMOOTH",
"302 526 OFFCURVE",
"240 517 OFFCURVE",
"202 499 CURVE SMOOTH",
"173 485 OFFCURVE",
"159 471 OFFCURVE",
"159 456 CURVE SMOOTH",
"159 437 OFFCURVE",
"186 414 OFFCURVE",
"239 389 CURVE SMOOTH",
"242 388 OFFCURVE",
"244 388 OFFCURVE",
"246 388 CURVE SMOOTH",
"253 388 OFFCURVE",
"256 391 OFFCURVE",
"256 396 CURVE SMOOTH",
"256 400 OFFCURVE",
"247 407 OFFCURVE",
"228 418 CURVE SMOOTH",
"209 429 OFFCURVE",
"200 439 OFFCURVE",
"200 448 CURVE SMOOTH",
"200 470 OFFCURVE",
"242 486 OFFCURVE",
"325 496 CURVE SMOOTH",
"353 499 OFFCURVE",
"386 500 OFFCURVE",
"425 500 CURVE SMOOTH",
"442 500 LINE",
"401 443 OFFCURVE",
"358 368 OFFCURVE",
"314 277 CURVE SMOOTH",
"265 176 OFFCURVE",
"237 98 OFFCURVE",
"230 42 CURVE",
"181 35 OFFCURVE",
"130 25 OFFCURVE",
"76 11 CURVE SMOOTH",
"40 2 OFFCURVE",
"20 -4 OFFCURVE",
"15 -6 CURVE SMOOTH",
"8 -9 OFFCURVE",
"5 -13 OFFCURVE",
"5 -18 CURVE SMOOTH",
"5 -27 OFFCURVE",
"9 -31 OFFCURVE",
"17 -31 CURVE SMOOTH",
"33 -31 OFFCURVE",
"67 -25 OFFCURVE",
"118 -14 CURVE SMOOTH",
"175 -2 OFFCURVE",
"212 5 OFFCURVE",
"229 7 CURVE",
"232 -24 OFFCURVE",
"246 -40 OFFCURVE",
"273 -40 CURVE SMOOTH",
"282 -40 OFFCURVE",
"293 -36 OFFCURVE",
"307 -29 CURVE SMOOTH",
"320 -23 OFFCURVE",
"327 -15 OFFCURVE",
"327 -7 CURVE SMOOTH",
"327 -1 OFFCURVE",
"324 2 OFFCURVE",
"319 2 CURVE SMOOTH",
"317 2 OFFCURVE",
"313 -5 OFFCURVE",
"302 -12 CURVE SMOOTH",
"291 -19 OFFCURVE",
"281 -20 OFFCURVE",
"275 -20 CURVE SMOOTH",
"262 -20 OFFCURVE",
"256 -10 OFFCURVE",
"255 9 CURVE",
"283 12 OFFCURVE",
"309 13 OFFCURVE",
"333 13 CURVE SMOOTH",
"362 13 OFFCURVE",
"432 8 OFFCURVE",
"456 -6 CURVE SMOOTH",
"462 -10 OFFCURVE",
"466 0 OFFCURVE",
"466 11 CURVE SMOOTH",
"466 20 OFFCURVE",
"464 26 OFFCURVE",
"460 31 CURVE SMOOTH",
"447 45 OFFCURVE",
"411 52 OFFCURVE",
"350 52 CURVE SMOOTH",
"323 52 OFFCURVE",
"292 50 OFFCURVE",
"258 46 CURVE",
"269 105 OFFCURVE",
"301 184 OFFCURVE",
"353 283 CURVE SMOOTH",
"389 351 OFFCURVE",
"437 423 OFFCURVE",
"497 499 CURVE",
"570 494 OFFCURVE",
"625 489 OFFCURVE",
"661 485 CURVE",
"664 484 LINE",
"671 484 OFFCURVE",
"675 487 OFFCURVE",
"675 492 CURVE SMOOTH"
);
},
{
closed = 1;
nodes = (
"643 718 OFFCURVE",
"642 718 OFFCURVE",
"639 718 CURVE SMOOTH",
"637 718 OFFCURVE",
"632 717 OFFCURVE",
"629 711 CURVE",
"596 675 OFFCURVE",
"566 660 OFFCURVE",
"537 662 CURVE SMOOTH",
"521 664 OFFCURVE",
"509 669 OFFCURVE",
"502 679 CURVE",
"496 685 OFFCURVE",
"492 693 OFFCURVE",
"489 704 CURVE SMOOTH",
"486 713 OFFCURVE",
"483 718 OFFCURVE",
"481 718 CURVE SMOOTH",
"478 718 OFFCURVE",
"475 717 OFFCURVE",
"474 711 CURVE SMOOTH",
"473 706 OFFCURVE",
"473 701 OFFCURVE",
"473 695 CURVE SMOOTH",
"475 663 OFFCURVE",
"493 647 OFFCURVE",
"525 644 CURVE SMOOTH",
"564 640 OFFCURVE",
"602 661 OFFCURVE",
"639 710 CURVE",
"640 712 OFFCURVE",
"642 714 OFFCURVE",
"642 715 CURVE SMOOTH"
);
}
);
width = 457;
}
);
leftKerningGroup = Igrave;
note = Ibreve;
rightKerningGroup = Igrave;
unicode = 012C;
},
{
color = 3;
glyphname = Icircumflex;
lastChange = "2021-04-20 18:52:15 +0000";
layers = (
{
hints = (
{
horizontal = 1;
place = "{-40, 20}";
type = Stem;
},
{
horizontal = 1;
place = "{13, 39}";
type = Stem;
},
{
horizontal = 1;
place = "{500, 24}";
type = Stem;
},
{
place = "{159, 41}";
type = Stem;
}
);
layerId = "57DEED6F-9A00-47D0-BD9B-6FE09716AB2D";
paths = (
{
closed = 1;
nodes = (
"614 589 LINE",
"583 620 OFFCURVE",
"558 647 OFFCURVE",
"551 661 CURVE SMOOTH",
"541 679 OFFCURVE",
"522 661 OFFCURVE",
"477 631 CURVE SMOOTH",
"440 606 OFFCURVE",
"421 592 OFFCURVE",
"420 587 CURVE SMOOTH",
"418 582 OFFCURVE",
"420 580 OFFCURVE",
"424 580 CURVE SMOOTH",
"430 580 OFFCURVE",
"464 600 OFFCURVE",
"525 641 CURVE",
"531 632 OFFCURVE",
"543 619 OFFCURVE",
"564 603 CURVE SMOOTH",
"565 602 OFFCURVE",
"584 585 OFFCURVE",
"598 579 CURVE SMOOTH",
"607 575 OFFCURVE",
"617 580 OFFCURVE",
"615 585 CURVE SMOOTH"
);
},
{
closed = 1;
nodes = (
"675 497 OFFCURVE",
"671 501 OFFCURVE",
"664 503 CURVE SMOOTH",
"649 506 OFFCURVE",
"637 507 OFFCURVE",
"629 508 CURVE SMOOTH",
"590 513 OFFCURVE",
"552 517 OFFCURVE",
"514 520 CURVE",
"521 529 OFFCURVE",
"524 534 OFFCURVE",
"524 535 CURVE SMOOTH",
"524 539 OFFCURVE",
"519 541 OFFCURVE",
"509 541 CURVE SMOOTH",
"484 541 OFFCURVE",
"468 535 OFFCURVE",
"460 524 CURVE",
"435 525 OFFCURVE",
"411 526 OFFCURVE",
"388 526 CURVE SMOOTH",
"302 526 OFFCURVE",
"240 517 OFFCURVE",
"202 499 CURVE SMOOTH",
"173 485 OFFCURVE",
"159 471 OFFCURVE",
"159 456 CURVE SMOOTH",
"159 437 OFFCURVE",
"186 414 OFFCURVE",
"239 389 CURVE SMOOTH",
"242 388 OFFCURVE",
"244 388 OFFCURVE",
"246 388 CURVE SMOOTH",
"253 388 OFFCURVE",
"256 391 OFFCURVE",
"256 396 CURVE SMOOTH",
"256 400 OFFCURVE",
"247 407 OFFCURVE",
"228 418 CURVE SMOOTH",
"209 429 OFFCURVE",
"200 439 OFFCURVE",
"200 448 CURVE SMOOTH",
"200 470 OFFCURVE",
"242 486 OFFCURVE",
"325 496 CURVE SMOOTH",
"353 499 OFFCURVE",
"386 500 OFFCURVE",
"425 500 CURVE SMOOTH",
"442 500 LINE",
"401 443 OFFCURVE",
"358 368 OFFCURVE",
"314 277 CURVE SMOOTH",
"265 176 OFFCURVE",
"237 98 OFFCURVE",
"230 42 CURVE",
"181 35 OFFCURVE",
"130 25 OFFCURVE",
"76 11 CURVE SMOOTH",
"40 2 OFFCURVE",
"20 -4 OFFCURVE",
"15 -6 CURVE SMOOTH",
"8 -9 OFFCURVE",
"5 -13 OFFCURVE",
"5 -18 CURVE SMOOTH",
"5 -27 OFFCURVE",
"9 -31 OFFCURVE",
"17 -31 CURVE SMOOTH",
"33 -31 OFFCURVE",
"67 -25 OFFCURVE",
"118 -14 CURVE SMOOTH",
"175 -2 OFFCURVE",
"212 5 OFFCURVE",
"229 7 CURVE",
"232 -24 OFFCURVE",
"246 -40 OFFCURVE",
"273 -40 CURVE SMOOTH",
"282 -40 OFFCURVE",
"293 -36 OFFCURVE",
"307 -29 CURVE SMOOTH",
"320 -23 OFFCURVE",
"327 -15 OFFCURVE",
"327 -7 CURVE SMOOTH",
"327 -1 OFFCURVE",
"324 2 OFFCURVE",
"319 2 CURVE SMOOTH",
"317 2 OFFCURVE",
"313 -5 OFFCURVE",
"302 -12 CURVE SMOOTH",
"291 -19 OFFCURVE",
"281 -20 OFFCURVE",
"275 -20 CURVE SMOOTH",
"262 -20 OFFCURVE",
"256 -10 OFFCURVE",
"255 9 CURVE",
"283 12 OFFCURVE",
"309 13 OFFCURVE",
"333 13 CURVE SMOOTH",
"362 13 OFFCURVE",
"432 8 OFFCURVE",
"456 -6 CURVE SMOOTH",
"462 -10 OFFCURVE",
"466 0 OFFCURVE",
"466 11 CURVE SMOOTH",
"466 20 OFFCURVE",
"464 26 OFFCURVE",
"460 31 CURVE SMOOTH",
"447 45 OFFCURVE",
"411 52 OFFCURVE",
"350 52 CURVE SMOOTH",
"323 52 OFFCURVE",
"292 50 OFFCURVE",
"258 46 CURVE",
"269 105 OFFCURVE",
"301 184 OFFCURVE",
"353 283 CURVE SMOOTH",
"389 351 OFFCURVE",
"437 423 OFFCURVE",
"497 499 CURVE",
"570 494 OFFCURVE",
"625 489 OFFCURVE",
"661 485 CURVE",
"664 484 LINE",
"671 484 OFFCURVE",
"675 487 OFFCURVE",
"675 492 CURVE SMOOTH"
);
}
);
width = 457;
}
);
leftKerningGroup = Igrave;
note = Icircumflex;
rightKerningGroup = Igrave;
unicode = 00CE;
},
{
color = 3;
glyphname = Idieresis;
lastChange = "2021-04-20 18:52:15 +0000";
layers = (
{
hints = (
{
horizontal = 1;
place = "{-40, 20}";
type = Stem;
},
{
horizontal = 1;
place = "{13, 39}";
type = Stem;
},
{
horizontal = 1;
place = "{541, -20}";
target = down;
type = TopGhost;
},
{
place = "{159, 41}";
type = Stem;
}
);
layerId = "57DEED6F-9A00-47D0-BD9B-6FE09716AB2D";
paths = (
{
closed = 1;
nodes = (
"675 497 OFFCURVE",
"671 501 OFFCURVE",
"664 503 CURVE SMOOTH",
"649 506 OFFCURVE",
"637 507 OFFCURVE",
"629 508 CURVE SMOOTH",
"590 513 OFFCURVE",
"552 517 OFFCURVE",
"514 520 CURVE",
"521 529 OFFCURVE",
"524 534 OFFCURVE",
"524 535 CURVE SMOOTH",
"524 539 OFFCURVE",
"519 541 OFFCURVE",
"509 541 CURVE SMOOTH",
"484 541 OFFCURVE",
"468 535 OFFCURVE",
"460 524 CURVE",
"435 525 OFFCURVE",
"411 526 OFFCURVE",
"388 526 CURVE SMOOTH",
"302 526 OFFCURVE",
"240 517 OFFCURVE",
"202 499 CURVE SMOOTH",
"173 485 OFFCURVE",
"159 471 OFFCURVE",
"159 456 CURVE SMOOTH",
"159 437 OFFCURVE",
"186 414 OFFCURVE",
"239 389 CURVE SMOOTH",
"242 388 OFFCURVE",
"244 388 OFFCURVE",
"246 388 CURVE SMOOTH",
"253 388 OFFCURVE",
"256 391 OFFCURVE",
"256 396 CURVE SMOOTH",
"256 400 OFFCURVE",
"247 407 OFFCURVE",
"228 418 CURVE SMOOTH",
"209 429 OFFCURVE",
"200 439 OFFCURVE",
"200 448 CURVE SMOOTH",
"200 470 OFFCURVE",
"242 486 OFFCURVE",
"325 496 CURVE SMOOTH",
"353 499 OFFCURVE",
"386 500 OFFCURVE",
"425 500 CURVE SMOOTH",
"442 500 LINE",
"401 443 OFFCURVE",
"358 368 OFFCURVE",
"314 277 CURVE SMOOTH",
"265 176 OFFCURVE",
"237 98 OFFCURVE",
"230 42 CURVE",
"181 35 OFFCURVE",
"130 25 OFFCURVE",
"76 11 CURVE SMOOTH",
"40 2 OFFCURVE",
"20 -4 OFFCURVE",
"15 -6 CURVE SMOOTH",
"8 -9 OFFCURVE",
"5 -13 OFFCURVE",
"5 -18 CURVE SMOOTH",
"5 -27 OFFCURVE",
"9 -31 OFFCURVE",
"17 -31 CURVE SMOOTH",
"33 -31 OFFCURVE",
"67 -25 OFFCURVE",
"118 -14 CURVE SMOOTH",
"175 -2 OFFCURVE",
"212 5 OFFCURVE",
"229 7 CURVE",
"232 -24 OFFCURVE",
"246 -40 OFFCURVE",
"273 -40 CURVE SMOOTH",
"282 -40 OFFCURVE",
"293 -36 OFFCURVE",
"307 -29 CURVE SMOOTH",
"320 -23 OFFCURVE",
"327 -15 OFFCURVE",
"327 -7 CURVE SMOOTH",
"327 -1 OFFCURVE",
"324 2 OFFCURVE",
"319 2 CURVE SMOOTH",
"317 2 OFFCURVE",
"313 -5 OFFCURVE",
"302 -12 CURVE SMOOTH",
"291 -19 OFFCURVE",
"281 -20 OFFCURVE",
"275 -20 CURVE SMOOTH",
"262 -20 OFFCURVE",
"256 -10 OFFCURVE",
"255 9 CURVE",
"283 12 OFFCURVE",
"309 13 OFFCURVE",
"333 13 CURVE SMOOTH",
"362 13 OFFCURVE",
"432 8 OFFCURVE",
"456 -6 CURVE SMOOTH",
"462 -10 OFFCURVE",
"466 0 OFFCURVE",
"466 11 CURVE SMOOTH",
"466 20 OFFCURVE",
"464 26 OFFCURVE",
"460 31 CURVE SMOOTH",
"447 45 OFFCURVE",
"411 52 OFFCURVE",
"350 52 CURVE SMOOTH",
"323 52 OFFCURVE",
"292 50 OFFCURVE",
"258 46 CURVE",
"269 105 OFFCURVE",
"301 184 OFFCURVE",
"353 283 CURVE SMOOTH",
"389 351 OFFCURVE",
"437 423 OFFCURVE",
"497 499 CURVE",
"570 494 OFFCURVE",
"625 489 OFFCURVE",
"661 485 CURVE",
"664 484 LINE",
"671 484 OFFCURVE",
"675 487 OFFCURVE",
"675 492 CURVE SMOOTH"
);
},
{
closed = 1;
nodes = (
"424 592 OFFCURVE",
"434 581 OFFCURVE",
"449 581 CURVE SMOOTH",
"466 581 OFFCURVE",
"479 598 OFFCURVE",
"479 616 CURVE SMOOTH",
"479 630 OFFCURVE",
"470 642 OFFCURVE",
"455 642 CURVE SMOOTH",
"437 642 OFFCURVE",
"424 622 OFFCURVE",
"424 606 CURVE SMOOTH"
);
},
{
closed = 1;
nodes = (
"546 592 OFFCURVE",
"556 581 OFFCURVE",
"571 581 CURVE SMOOTH",
"588 581 OFFCURVE",
"601 598 OFFCURVE",
"601 616 CURVE SMOOTH",
"601 630 OFFCURVE",
"592 642 OFFCURVE",
"577 642 CURVE SMOOTH",
"559 642 OFFCURVE",
"546 622 OFFCURVE",
"546 606 CURVE SMOOTH"
);
}
);
width = 457;
}
);
leftKerningGroup = Igrave;
note = Idieresis;
rightKerningGroup = Igrave;
unicode = 00CF;
},
{
color = 3;
glyphname = Idotaccent;
lastChange = "2021-04-20 18:52:15 +0000";
layers = (
{
hints = (
{
horizontal = 1;
place = "{-40, 20}";
type = Stem;
},
{
horizontal = 1;
place = "{13, 39}";
type = Stem;
},
{
horizontal = 1;
place = "{541, -20}";
target = down;
type = TopGhost;
},
{
place = "{159, 41}";
type = Stem;
}
);
layerId = "57DEED6F-9A00-47D0-BD9B-6FE09716AB2D";
paths = (
{
closed = 1;
nodes = (
"675 497 OFFCURVE",
"671 501 OFFCURVE",
"664 503 CURVE SMOOTH",
"649 506 OFFCURVE",
"637 507 OFFCURVE",
"629 508 CURVE SMOOTH",
"590 513 OFFCURVE",
"552 517 OFFCURVE",
"514 520 CURVE",
"521 529 OFFCURVE",
"524 534 OFFCURVE",
"524 535 CURVE SMOOTH",
"524 539 OFFCURVE",
"519 541 OFFCURVE",
"509 541 CURVE SMOOTH",
"484 541 OFFCURVE",
"468 535 OFFCURVE",
"460 524 CURVE",
"435 525 OFFCURVE",
"411 526 OFFCURVE",
"388 526 CURVE SMOOTH",
"302 526 OFFCURVE",
"240 517 OFFCURVE",
"202 499 CURVE SMOOTH",
"173 485 OFFCURVE",
"159 471 OFFCURVE",
"159 456 CURVE SMOOTH",
"159 437 OFFCURVE",
"186 414 OFFCURVE",
"239 389 CURVE SMOOTH",
"242 388 OFFCURVE",
"244 388 OFFCURVE",
"246 388 CURVE SMOOTH",
"253 388 OFFCURVE",
"256 391 OFFCURVE",
"256 396 CURVE SMOOTH",
"256 400 OFFCURVE",
"247 407 OFFCURVE",
"228 418 CURVE SMOOTH",
"209 429 OFFCURVE",
"200 439 OFFCURVE",
"200 448 CURVE SMOOTH",
"200 470 OFFCURVE",
"242 486 OFFCURVE",
"325 496 CURVE SMOOTH",
"353 499 OFFCURVE",
"386 500 OFFCURVE",
"425 500 CURVE SMOOTH",
"442 500 LINE",
"401 443 OFFCURVE",
"358 368 OFFCURVE",
"314 277 CURVE SMOOTH",
"265 176 OFFCURVE",
"237 98 OFFCURVE",
"230 42 CURVE",
"181 35 OFFCURVE",
"130 25 OFFCURVE",
"76 11 CURVE SMOOTH",
"40 2 OFFCURVE",
"20 -4 OFFCURVE",
"15 -6 CURVE SMOOTH",
"8 -9 OFFCURVE",
"5 -13 OFFCURVE",
"5 -18 CURVE SMOOTH",
"5 -27 OFFCURVE",
"9 -31 OFFCURVE",
"17 -31 CURVE SMOOTH",
"33 -31 OFFCURVE",
"67 -25 OFFCURVE",
"118 -14 CURVE SMOOTH",
"175 -2 OFFCURVE",
"212 5 OFFCURVE",
"229 7 CURVE",
"232 -24 OFFCURVE",
"246 -40 OFFCURVE",
"273 -40 CURVE SMOOTH",
"282 -40 OFFCURVE",
"293 -36 OFFCURVE",
"307 -29 CURVE SMOOTH",
"320 -23 OFFCURVE",
"327 -15 OFFCURVE",
"327 -7 CURVE SMOOTH",
"327 -1 OFFCURVE",
"324 2 OFFCURVE",
"319 2 CURVE SMOOTH",
"317 2 OFFCURVE",
"313 -5 OFFCURVE",
"302 -12 CURVE SMOOTH",
"291 -19 OFFCURVE",
"281 -20 OFFCURVE",
"275 -20 CURVE SMOOTH",
"262 -20 OFFCURVE",
"256 -10 OFFCURVE",
"255 9 CURVE",
"283 12 OFFCURVE",
"309 13 OFFCURVE",
"333 13 CURVE SMOOTH",
"362 13 OFFCURVE",
"432 8 OFFCURVE",
"456 -6 CURVE SMOOTH",
"462 -10 OFFCURVE",
"466 0 OFFCURVE",
"466 11 CURVE SMOOTH",
"466 20 OFFCURVE",
"464 26 OFFCURVE",
"460 31 CURVE SMOOTH",
"447 45 OFFCURVE",
"411 52 OFFCURVE",
"350 52 CURVE SMOOTH",
"323 52 OFFCURVE",
"292 50 OFFCURVE",
"258 46 CURVE",
"269 105 OFFCURVE",
"301 184 OFFCURVE",
"353 283 CURVE SMOOTH",
"389 351 OFFCURVE",
"437 423 OFFCURVE",
"497 499 CURVE",
"570 494 OFFCURVE",
"625 489 OFFCURVE",
"661 485 CURVE",
"664 484 LINE",
"671 484 OFFCURVE",
"675 487 OFFCURVE",
"675 492 CURVE SMOOTH"
);
},
{
closed = 1;
nodes = (
"503 616 OFFCURVE",
"513 607 OFFCURVE",
"529 607 CURVE SMOOTH",
"545 607 OFFCURVE",
"558 622 OFFCURVE",
"558 637 CURVE SMOOTH",
"558 650 OFFCURVE",
"549 661 OFFCURVE",
"534 661 CURVE SMOOTH",
"516 661 OFFCURVE",
"503 643 OFFCURVE",
"503 628 CURVE SMOOTH"
);
}
);
width = 457;
}
);
leftKerningGroup = Igrave;
note = Idotaccent;
rightKerningGroup = Igrave;
unicode = 0130;
},
{
color = 3;
glyphname = Igrave;
lastChange = "2021-04-20 18:52:15 +0000";
layers = (
{
hints = (
{
horizontal = 1;
place = "{-40, 20}";
type = Stem;
},
{
horizontal = 1;
place = "{13, 39}";
type = Stem;
},
{
horizontal = 1;
place = "{500, 24}";
type = Stem;
},
{
place = "{159, 41}";
type = Stem;
}
);
layerId = "57DEED6F-9A00-47D0-BD9B-6FE09716AB2D";
paths = (
{
closed = 1;
nodes = (
"675 497 OFFCURVE",
"671 501 OFFCURVE",
"664 503 CURVE SMOOTH",
"649 506 OFFCURVE",
"637 507 OFFCURVE",
"629 508 CURVE SMOOTH",
"590 513 OFFCURVE",
"552 517 OFFCURVE",
"514 520 CURVE",
"521 529 OFFCURVE",
"524 534 OFFCURVE",
"524 535 CURVE SMOOTH",
"524 539 OFFCURVE",
"519 541 OFFCURVE",
"509 541 CURVE SMOOTH",
"484 541 OFFCURVE",
"468 535 OFFCURVE",
"460 524 CURVE",
"435 525 OFFCURVE",
"411 526 OFFCURVE",
"388 526 CURVE SMOOTH",
"302 526 OFFCURVE",
"240 517 OFFCURVE",
"202 499 CURVE SMOOTH",
"173 485 OFFCURVE",
"159 471 OFFCURVE",
"159 456 CURVE SMOOTH",
"159 437 OFFCURVE",
"186 414 OFFCURVE",
"239 389 CURVE SMOOTH",
"242 388 OFFCURVE",
"244 388 OFFCURVE",
"246 388 CURVE SMOOTH",
"253 388 OFFCURVE",
"256 391 OFFCURVE",
"256 396 CURVE SMOOTH",
"256 400 OFFCURVE",
"247 407 OFFCURVE",
"228 418 CURVE SMOOTH",
"209 429 OFFCURVE",
"200 439 OFFCURVE",
"200 448 CURVE SMOOTH",
"200 470 OFFCURVE",
"242 486 OFFCURVE",
"325 496 CURVE SMOOTH",
"353 499 OFFCURVE",
"386 500 OFFCURVE",
"425 500 CURVE SMOOTH",
"442 500 LINE",
"401 443 OFFCURVE",
"358 368 OFFCURVE",
"314 277 CURVE SMOOTH",
"265 176 OFFCURVE",
"237 98 OFFCURVE",
"230 42 CURVE",
"181 35 OFFCURVE",
"130 25 OFFCURVE",
"76 11 CURVE SMOOTH",
"40 2 OFFCURVE",
"20 -4 OFFCURVE",
"15 -6 CURVE SMOOTH",
"8 -9 OFFCURVE",
"5 -13 OFFCURVE",
"5 -18 CURVE SMOOTH",
"5 -27 OFFCURVE",
"9 -31 OFFCURVE",
"17 -31 CURVE SMOOTH",
"33 -31 OFFCURVE",
"67 -25 OFFCURVE",
"118 -14 CURVE SMOOTH",
"175 -2 OFFCURVE",
"212 5 OFFCURVE",
"229 7 CURVE",
"232 -24 OFFCURVE",
"246 -40 OFFCURVE",
"273 -40 CURVE SMOOTH",
"282 -40 OFFCURVE",
"293 -36 OFFCURVE",
"307 -29 CURVE SMOOTH",
"320 -23 OFFCURVE",
"327 -15 OFFCURVE",
"327 -7 CURVE SMOOTH",
"327 -1 OFFCURVE",
"324 2 OFFCURVE",
"319 2 CURVE SMOOTH",
"317 2 OFFCURVE",
"311 -2 OFFCURVE",
"300 -9 CURVE SMOOTH",
"289 -16 OFFCURVE",
"281 -20 OFFCURVE",
"275 -20 CURVE SMOOTH",
"262 -20 OFFCURVE",
"256 -10 OFFCURVE",
"255 9 CURVE",
"283 12 OFFCURVE",
"309 13 OFFCURVE",
"333 13 CURVE SMOOTH",
"347 13 OFFCURVE",
"368 10 OFFCURVE",
"397 3 CURVE SMOOTH",
"425 -3 OFFCURVE",
"445 -6 OFFCURVE",
"456 -6 CURVE SMOOTH",
"463 -6 OFFCURVE",
"466 0 OFFCURVE",
"466 11 CURVE SMOOTH",
"466 20 OFFCURVE",
"464 26 OFFCURVE",
"460 31 CURVE SMOOTH",
"447 45 OFFCURVE",
"411 52 OFFCURVE",
"350 52 CURVE SMOOTH",
"323 52 OFFCURVE",
"292 50 OFFCURVE",
"258 46 CURVE",
"269 105 OFFCURVE",
"301 184 OFFCURVE",
"353 283 CURVE SMOOTH",
"389 351 OFFCURVE",
"437 423 OFFCURVE",
"497 499 CURVE",
"570 494 OFFCURVE",
"625 489 OFFCURVE",
"661 485 CURVE",
"664 484 LINE",
"671 484 OFFCURVE",
"675 487 OFFCURVE",
"675 492 CURVE SMOOTH"
);
},
{
closed = 1;
nodes = (
"553 573 OFFCURVE",
"552 575 OFFCURVE",
"550 578 CURVE",
"506 614 OFFCURVE",
"470 641 OFFCURVE",
"444 659 CURVE SMOOTH",
"437 664 OFFCURVE",
"432 667 OFFCURVE",
"427 667 CURVE SMOOTH",
"421 667 OFFCURVE",
"418 663 OFFCURVE",
"418 655 CURVE SMOOTH",
"418 647 OFFCURVE",
"421 640 OFFCURVE",
"428 635 CURVE SMOOTH",
"434 630 OFFCURVE",
"455 617 OFFCURVE",
"490 596 CURVE SMOOTH",
"525 575 OFFCURVE",
"544 565 OFFCURVE",
"547 565 CURVE SMOOTH",
"551 565 OFFCURVE",
"553 567 OFFCURVE",
"553 571 CURVE SMOOTH"
);
}
);
width = 457;
}
);
leftKerningGroup = Igrave;
note = Igrave;
rightKerningGroup = Igrave;
unicode = 00CC;
},
{
color = 3;
glyphname = Imacron;
lastChange = "2021-04-20 18:52:15 +0000";
layers = (
{
hints = (
{
horizontal = 1;
place = "{-40, 20}";
type = Stem;
},
{
horizontal = 1;
place = "{13, 39}";
type = Stem;
},
{
horizontal = 1;
place = "{541, -20}";
target = down;
type = TopGhost;
},
{
place = "{159, 41}";
type = Stem;
}
);
layerId = "57DEED6F-9A00-47D0-BD9B-6FE09716AB2D";
paths = (
{
closed = 1;
nodes = (
"675 497 OFFCURVE",
"671 501 OFFCURVE",
"664 503 CURVE SMOOTH",
"649 506 OFFCURVE",
"637 507 OFFCURVE",
"629 508 CURVE SMOOTH",
"590 513 OFFCURVE",
"552 517 OFFCURVE",
"514 520 CURVE",
"521 529 OFFCURVE",
"524 534 OFFCURVE",
"524 535 CURVE SMOOTH",
"524 539 OFFCURVE",
"519 541 OFFCURVE",
"509 541 CURVE SMOOTH",
"484 541 OFFCURVE",
"468 535 OFFCURVE",
"460 524 CURVE",
"435 525 OFFCURVE",
"411 526 OFFCURVE",
"388 526 CURVE SMOOTH",
"302 526 OFFCURVE",
"240 517 OFFCURVE",
"202 499 CURVE SMOOTH",
"173 485 OFFCURVE",
"159 471 OFFCURVE",
"159 456 CURVE SMOOTH",
"159 437 OFFCURVE",
"186 414 OFFCURVE",
"239 389 CURVE SMOOTH",
"242 388 OFFCURVE",
"244 388 OFFCURVE",
"246 388 CURVE SMOOTH",
"253 388 OFFCURVE",
"256 391 OFFCURVE",
"256 396 CURVE SMOOTH",
"256 400 OFFCURVE",
"247 407 OFFCURVE",
"228 418 CURVE SMOOTH",
"209 429 OFFCURVE",
"200 439 OFFCURVE",
"200 448 CURVE SMOOTH",
"200 470 OFFCURVE",
"242 486 OFFCURVE",
"325 496 CURVE SMOOTH",
"353 499 OFFCURVE",
"386 500 OFFCURVE",
"425 500 CURVE SMOOTH",
"442 500 LINE",
"401 443 OFFCURVE",
"358 368 OFFCURVE",
"314 277 CURVE SMOOTH",
"265 176 OFFCURVE",
"237 98 OFFCURVE",
"230 42 CURVE",
"181 35 OFFCURVE",
"130 25 OFFCURVE",
"76 11 CURVE SMOOTH",
"40 2 OFFCURVE",
"20 -4 OFFCURVE",
"15 -6 CURVE SMOOTH",
"8 -9 OFFCURVE",
"5 -13 OFFCURVE",
"5 -18 CURVE SMOOTH",
"5 -27 OFFCURVE",
"9 -31 OFFCURVE",
"17 -31 CURVE SMOOTH",
"33 -31 OFFCURVE",
"67 -25 OFFCURVE",
"118 -14 CURVE SMOOTH",
"175 -2 OFFCURVE",
"212 5 OFFCURVE",
"229 7 CURVE",
"232 -24 OFFCURVE",
"246 -40 OFFCURVE",
"273 -40 CURVE SMOOTH",
"282 -40 OFFCURVE",
"293 -36 OFFCURVE",
"307 -29 CURVE SMOOTH",
"320 -23 OFFCURVE",
"327 -15 OFFCURVE",
"327 -7 CURVE SMOOTH",
"327 -1 OFFCURVE",
"324 2 OFFCURVE",
"319 2 CURVE SMOOTH",
"317 2 OFFCURVE",
"313 -5 OFFCURVE",
"302 -12 CURVE SMOOTH",
"291 -19 OFFCURVE",
"281 -20 OFFCURVE",
"275 -20 CURVE SMOOTH",
"262 -20 OFFCURVE",
"256 -10 OFFCURVE",
"255 9 CURVE",
"283 12 OFFCURVE",
"309 13 OFFCURVE",
"333 13 CURVE SMOOTH",
"362 13 OFFCURVE",
"432 8 OFFCURVE",
"456 -6 CURVE SMOOTH",
"462 -10 OFFCURVE",
"466 0 OFFCURVE",
"466 11 CURVE SMOOTH",
"466 20 OFFCURVE",
"464 26 OFFCURVE",
"460 31 CURVE SMOOTH",
"447 45 OFFCURVE",
"411 52 OFFCURVE",
"350 52 CURVE SMOOTH",
"323 52 OFFCURVE",
"292 50 OFFCURVE",
"258 46 CURVE",
"269 105 OFFCURVE",
"301 184 OFFCURVE",
"353 283 CURVE SMOOTH",
"389 351 OFFCURVE",
"437 423 OFFCURVE",
"497 499 CURVE",
"570 494 OFFCURVE",
"625 489 OFFCURVE",
"661 485 CURVE",
"664 484 LINE",
"671 484 OFFCURVE",
"675 487 OFFCURVE",
"675 492 CURVE SMOOTH"
);
},
{
closed = 1;
nodes = (
"613 637 OFFCURVE",
"604 641 OFFCURVE",
"587 643 CURVE SMOOTH",
"548 649 OFFCURVE",
"517 651 OFFCURVE",
"494 651 CURVE SMOOTH",
"475 651 OFFCURVE",
"460 649 OFFCURVE",
"449 645 CURVE SMOOTH",
"426 637 OFFCURVE",
"414 629 OFFCURVE",
"414 620 CURVE SMOOTH",
"414 615 OFFCURVE",
"421 613 OFFCURVE",
"434 613 CURVE SMOOTH",
"439 613 LINE SMOOTH",
"482 613 OFFCURVE",
"513 620 OFFCURVE",
"533 622 CURVE SMOOTH",
"557 625 OFFCURVE",
"575 625 OFFCURVE",
"587 625 CURVE SMOOTH",
"604 625 OFFCURVE",
"613 628 OFFCURVE",
"613 633 CURVE SMOOTH"
);
}
);
width = 457;
}
);
leftKerningGroup = Igrave;
note = Imacron;
rightKerningGroup = Igrave;
unicode = 012A;
},
{
color = 3;
glyphname = Iogonek;
lastChange = "2021-04-20 18:52:15 +0000";
layers = (
{
hints = (
{
horizontal = 1;
place = "{-188, 28}";
type = Stem;
},
{
horizontal = 1;
place = "{-40, 20}";
type = Stem;
},
{
horizontal = 1;
place = "{13, 39}";
type = Stem;
},
{
horizontal = 1;
place = "{541, -20}";
target = down;
type = TopGhost;
},
{
place = "{159, 41}";
type = Stem;
},
{
place = "{201, 32}";
type = Stem;
}
);
layerId = "57DEED6F-9A00-47D0-BD9B-6FE09716AB2D";
paths = (
{
closed = 1;
nodes = (
"675 497 OFFCURVE",
"671 501 OFFCURVE",
"664 503 CURVE SMOOTH",
"649 506 OFFCURVE",
"637 507 OFFCURVE",
"629 508 CURVE SMOOTH",
"590 513 OFFCURVE",
"552 517 OFFCURVE",
"514 520 CURVE",
"521 529 OFFCURVE",
"524 534 OFFCURVE",
"524 535 CURVE SMOOTH",
"524 539 OFFCURVE",
"519 541 OFFCURVE",
"509 541 CURVE SMOOTH",
"484 541 OFFCURVE",
"468 535 OFFCURVE",
"460 524 CURVE",
"424 524 LINE SMOOTH",
"410 525 OFFCURVE",
"399 526 OFFCURVE",
"388 526 CURVE SMOOTH",
"302 526 OFFCURVE",
"240 517 OFFCURVE",
"202 499 CURVE SMOOTH",
"173 485 OFFCURVE",
"159 471 OFFCURVE",
"159 456 CURVE SMOOTH",
"159 437 OFFCURVE",
"186 414 OFFCURVE",
"239 389 CURVE SMOOTH",
"242 388 OFFCURVE",
"244 388 OFFCURVE",
"246 388 CURVE SMOOTH",
"253 388 OFFCURVE",
"256 391 OFFCURVE",
"256 396 CURVE SMOOTH",
"256 400 OFFCURVE",
"247 407 OFFCURVE",
"228 418 CURVE SMOOTH",
"209 429 OFFCURVE",
"200 439 OFFCURVE",
"200 448 CURVE SMOOTH",
"200 470 OFFCURVE",
"242 486 OFFCURVE",
"325 496 CURVE SMOOTH",
"353 499 OFFCURVE",
"386 500 OFFCURVE",
"425 500 CURVE SMOOTH",
"442 500 LINE",
"401 443 OFFCURVE",
"358 368 OFFCURVE",
"314 277 CURVE SMOOTH",
"265 176 OFFCURVE",
"237 98 OFFCURVE",
"230 42 CURVE",
"181 35 OFFCURVE",
"130 25 OFFCURVE",
"76 11 CURVE SMOOTH",
"40 2 OFFCURVE",
"20 -4 OFFCURVE",
"15 -6 CURVE SMOOTH",
"8 -9 OFFCURVE",
"5 -13 OFFCURVE",
"5 -18 CURVE SMOOTH",
"5 -27 OFFCURVE",
"9 -31 OFFCURVE",
"17 -31 CURVE SMOOTH",
"33 -31 OFFCURVE",
"67 -26 OFFCURVE",
"118 -14 CURVE SMOOTH",
"157 -4 OFFCURVE",
"197 3 OFFCURVE",
"237 7 CURVE",
"207 -21 OFFCURVE",
"171 -47 OFFCURVE",
"128 -106 CURVE SMOOTH",
"111 -129 OFFCURVE",
"101 -152 OFFCURVE",
"97 -172 CURVE SMOOTH",
"87 -234 OFFCURVE",
"124 -254 OFFCURVE",
"174 -233 CURVE SMOOTH",
"194 -224 OFFCURVE",
"214 -209 OFFCURVE",
"229 -189 CURVE SMOOTH",
"233 -183 OFFCURVE",
"231 -175 OFFCURVE",
"224 -178 CURVE",
"206 -198 OFFCURVE",
"189 -207 OFFCURVE",
"175 -208 CURVE SMOOTH",
"159 -209 OFFCURVE",
"147 -204 OFFCURVE",
"140 -195 CURVE SMOOTH",
"128 -177 OFFCURVE",
"136 -135 OFFCURVE",
"159 -103 CURVE SMOOTH",
"203 -41 OFFCURVE",
"236 -5 OFFCURVE",
"251 9 CURVE",
"279 11 OFFCURVE",
"306 13 OFFCURVE",
"333 13 CURVE SMOOTH",
"362 13 OFFCURVE",
"432 8 OFFCURVE",
"456 -6 CURVE",
"457 -7 OFFCURVE",
"458 -7 OFFCURVE",
"459 -7 CURVE SMOOTH",
"464 -7 OFFCURVE",
"466 2 OFFCURVE",
"466 11 CURVE SMOOTH",
"466 20 OFFCURVE",
"464 26 OFFCURVE",
"460 31 CURVE SMOOTH",
"447 45 OFFCURVE",
"411 52 OFFCURVE",
"350 52 CURVE SMOOTH",
"323 52 OFFCURVE",
"292 50 OFFCURVE",
"258 46 CURVE",
"269 105 OFFCURVE",
"301 184 OFFCURVE",
"353 283 CURVE SMOOTH",
"389 351 OFFCURVE",
"437 423 OFFCURVE",
"497 499 CURVE",
"570 494 OFFCURVE",
"625 489 OFFCURVE",
"661 485 CURVE",
"664 484 LINE",
"671 484 OFFCURVE",
"675 487 OFFCURVE",
"675 492 CURVE SMOOTH"
);
}
);
width = 457;
}
);
leftKerningGroup = I;
note = Iogonek;
rightKerningGroup = I;
unicode = 012E;
},
{
color = 3;
glyphname = Itilde;
lastChange = "2021-04-20 18:52:15 +0000";
layers = (
{
hints = (
{
horizontal = 1;
place = "{-40, 20}";
type = Stem;
},
{
horizontal = 1;
place = "{13, 39}";
type = Stem;
},
{
horizontal = 1;
place = "{541, -20}";
target = down;
type = TopGhost;
},
{
place = "{159, 41}";
type = Stem;
}
);
layerId = "57DEED6F-9A00-47D0-BD9B-6FE09716AB2D";
paths = (
{
closed = 1;
nodes = (
"675 497 OFFCURVE",
"671 501 OFFCURVE",
"664 503 CURVE SMOOTH",
"649 506 OFFCURVE",
"637 507 OFFCURVE",
"629 508 CURVE SMOOTH",
"590 513 OFFCURVE",
"552 517 OFFCURVE",
"514 520 CURVE",
"521 529 OFFCURVE",
"524 534 OFFCURVE",
"524 535 CURVE SMOOTH",
"524 539 OFFCURVE",
"519 541 OFFCURVE",
"509 541 CURVE SMOOTH",
"484 541 OFFCURVE",
"468 535 OFFCURVE",
"460 524 CURVE",
"435 525 OFFCURVE",
"411 526 OFFCURVE",
"388 526 CURVE SMOOTH",
"302 526 OFFCURVE",
"240 517 OFFCURVE",
"202 499 CURVE SMOOTH",
"173 485 OFFCURVE",
"159 471 OFFCURVE",
"159 456 CURVE SMOOTH",
"159 437 OFFCURVE",
"186 414 OFFCURVE",
"239 389 CURVE SMOOTH",
"242 388 OFFCURVE",
"244 388 OFFCURVE",
"246 388 CURVE SMOOTH",
"253 388 OFFCURVE",
"256 391 OFFCURVE",
"256 396 CURVE SMOOTH",
"256 400 OFFCURVE",
"247 407 OFFCURVE",
"228 418 CURVE SMOOTH",
"209 429 OFFCURVE",
"200 439 OFFCURVE",
"200 448 CURVE SMOOTH",
"200 470 OFFCURVE",
"242 486 OFFCURVE",
"325 496 CURVE SMOOTH",
"353 499 OFFCURVE",
"386 500 OFFCURVE",
"425 500 CURVE SMOOTH",
"442 500 LINE",
"401 443 OFFCURVE",
"358 368 OFFCURVE",
"314 277 CURVE SMOOTH",
"265 176 OFFCURVE",
"237 98 OFFCURVE",
"230 42 CURVE",
"181 35 OFFCURVE",
"130 25 OFFCURVE",
"76 11 CURVE SMOOTH",
"40 2 OFFCURVE",
"20 -4 OFFCURVE",
"15 -6 CURVE SMOOTH",
"8 -9 OFFCURVE",
"5 -13 OFFCURVE",
"5 -18 CURVE SMOOTH",
"5 -27 OFFCURVE",
"9 -31 OFFCURVE",
"17 -31 CURVE SMOOTH",
"33 -31 OFFCURVE",
"67 -25 OFFCURVE",
"118 -14 CURVE SMOOTH",
"175 -2 OFFCURVE",
"212 5 OFFCURVE",
"229 7 CURVE",
"232 -24 OFFCURVE",
"246 -40 OFFCURVE",
"273 -40 CURVE SMOOTH",
"282 -40 OFFCURVE",
"293 -36 OFFCURVE",
"307 -29 CURVE SMOOTH",
"320 -23 OFFCURVE",
"327 -15 OFFCURVE",
"327 -7 CURVE SMOOTH",
"327 -1 OFFCURVE",
"324 2 OFFCURVE",
"319 2 CURVE SMOOTH",
"317 2 OFFCURVE",
"313 -5 OFFCURVE",
"302 -12 CURVE SMOOTH",
"291 -19 OFFCURVE",
"281 -20 OFFCURVE",
"275 -20 CURVE SMOOTH",
"262 -20 OFFCURVE",
"256 -10 OFFCURVE",
"255 9 CURVE",
"283 12 OFFCURVE",
"309 13 OFFCURVE",
"333 13 CURVE SMOOTH",
"362 13 OFFCURVE",
"432 8 OFFCURVE",
"456 -6 CURVE SMOOTH",
"462 -10 OFFCURVE",
"466 0 OFFCURVE",
"466 11 CURVE SMOOTH",
"466 20 OFFCURVE",
"464 26 OFFCURVE",
"460 31 CURVE SMOOTH",
"447 45 OFFCURVE",
"411 52 OFFCURVE",
"350 52 CURVE SMOOTH",
"323 52 OFFCURVE",
"292 50 OFFCURVE",
"258 46 CURVE",
"269 105 OFFCURVE",
"301 184 OFFCURVE",
"353 283 CURVE SMOOTH",
"389 351 OFFCURVE",
"437 423 OFFCURVE",
"497 499 CURVE",
"570 494 OFFCURVE",
"625 489 OFFCURVE",
"661 485 CURVE",
"664 484 LINE",
"671 484 OFFCURVE",
"675 487 OFFCURVE",
"675 492 CURVE SMOOTH"
);
},
{
closed = 1;
nodes = (
"623 662 OFFCURVE",
"621 663 OFFCURVE",
"617 663 CURVE",
"605 649 OFFCURVE",
"591 642 OFFCURVE",
"575 642 CURVE SMOOTH",
"564 642 OFFCURVE",
"549 646 OFFCURVE",
"528 653 CURVE SMOOTH",
"507 659 OFFCURVE",
"491 663 OFFCURVE",
"480 663 CURVE SMOOTH",
"467 663 OFFCURVE",
"455 660 OFFCURVE",
"444 653 CURVE SMOOTH",
"415 636 OFFCURVE",
"401 623 OFFCURVE",
"401 612 CURVE SMOOTH",
"401 611 OFFCURVE",
"401 611 OFFCURVE",
"402 610 CURVE",
"405 610 OFFCURVE",
"413 614 OFFCURVE",
"424 623 CURVE SMOOTH",
"435 632 OFFCURVE",
"446 636 OFFCURVE",
"457 636 CURVE SMOOTH",
"468 636 OFFCURVE",
"484 631 OFFCURVE",
"506 622 CURVE SMOOTH",
"527 613 OFFCURVE",
"544 609 OFFCURVE",
"556 609 CURVE SMOOTH",
"566 609 OFFCURVE",
"575 612 OFFCURVE",
"583 617 CURVE SMOOTH",
"610 635 OFFCURVE",
"623 649 OFFCURVE",
"623 659 CURVE SMOOTH"
);
}
);
width = 457;
}
);
leftKerningGroup = Igrave;
note = Itilde;
rightKerningGroup = Igrave;
unicode = 0128;
},
{
color = 3;
glyphname = J;
lastChange = "2021-04-20 18:52:15 +0000";
layers = (
{
hints = (
{
horizontal = 1;
place = "{-301, 28}";
type = Stem;
},
{
horizontal = 1;
place = "{82, 23}";
type = Stem;
},
{
horizontal = 1;
place = "{151, 21}";
target = up;
type = BottomGhost;
},
{
horizontal = 1;
place = "{519, 21}";
target = up;
type = BottomGhost;
},
{
place = "{-100, 37}";
type = Stem;
},
{
place = "{2, 28}";
type = Stem;
},
{
place = "{496, 40}";
type = Stem;
}
);
layerId = "57DEED6F-9A00-47D0-BD9B-6FE09716AB2D";
paths = (
{
closed = 1;
nodes = (
"365 -70 OFFCURVE",
"278 -196 OFFCURVE",
"170 -280 CURVE SMOOTH",
"118 -320 OFFCURVE",
"71 -338 OFFCURVE",
"24 -341 CURVE SMOOTH",
"-6 -341 OFFCURVE",
"-29 -333 OFFCURVE",
"-46 -316 CURVE SMOOTH",
"-61 -303 OFFCURVE",
"-69 -286 OFFCURVE",
"-69 -264 CURVE SMOOTH",
"-69 -261 OFFCURVE",
"-69 -257 OFFCURVE",
"-68 -252 CURVE SMOOTH",
"-62 -201 OFFCURVE",
"-27 -149 OFFCURVE",
"35 -95 CURVE SMOOTH",
"75 -60 OFFCURVE",
"122 -27 OFFCURVE",
"199 7 CURVE SMOOTH",
"276 42 OFFCURVE",
"359 66 OFFCURVE",
"412 74 CURVE"
);
},
{
closed = 1;
nodes = (
"320 77 OFFCURVE",
"202 36 OFFCURVE",
"97 -26 CURVE SMOOTH",
"-25 -97 OFFCURVE",
"-92 -173 OFFCURVE",
"-101 -250 CURVE",
"-101 -262 LINE SMOOTH",
"-101 -290 OFFCURVE",
"-92 -311 OFFCURVE",
"-71 -329 CURVE SMOOTH",
"-50 -347 OFFCURVE",
"-21 -356 OFFCURVE",
"13 -356 CURVE SMOOTH",
"19 -356 LINE SMOOTH",
"191 -346 OFFCURVE",
"378 -154 OFFCURVE",
"457 74 CURVE",
"466 76 OFFCURVE",
"473 76 OFFCURVE",
"482 76 CURVE SMOOTH",
"492 76 OFFCURVE",
"511 76 OFFCURVE",
"516 74 CURVE",
"525 67 LINE",
"528 67 OFFCURVE",
"530 70 OFFCURVE",
"530 77 CURVE SMOOTH",
"530 93 OFFCURVE",
"514 97 OFFCURVE",
"474 97 CURVE SMOOTH",
"465 97 LINE",
"477 134 OFFCURVE",
"485 170 OFFCURVE",
"490 205 CURVE SMOOTH",
"492 215 LINE SMOOTH",
"497 254 OFFCURVE",
"503 302 OFFCURVE",
"503 349 CURVE SMOOTH",
"503 410 OFFCURVE",
"494 468 OFFCURVE",
"459 499 CURVE SMOOTH",
"434 522 OFFCURVE",
"399 533 OFFCURVE",
"363 534 CURVE SMOOTH",
"359 534 LINE SMOOTH",
"307 534 OFFCURVE",
"252 516 OFFCURVE",
"211 492 CURVE SMOOTH",
"120 437 OFFCURVE",
"18 318 OFFCURVE",
"18 235 CURVE SMOOTH",
"18 194 OFFCURVE",
"36 162 OFFCURVE",
"77 149 CURVE SMOOTH",
"87 145 OFFCURVE",
"98 144 OFFCURVE",
"110 144 CURVE SMOOTH",
"128 144 OFFCURVE",
"148 147 OFFCURVE",
"166 152 CURVE SMOOTH",
"190 161 OFFCURVE",
"236 187 OFFCURVE",
"260 215 CURVE SMOOTH",
"266 223 OFFCURVE",
"270 228 OFFCURVE",
"270 234 CURVE SMOOTH",
"270 238 OFFCURVE",
"269 239 OFFCURVE",
"267 239 CURVE SMOOTH",
"262 239 LINE SMOOTH",
"261 239 OFFCURVE",
"221 206 OFFCURVE",
"188 187 CURVE SMOOTH",
"164 173 OFFCURVE",
"140 165 OFFCURVE",
"114 165 CURVE SMOOTH",
"104 165 OFFCURVE",
"95 166 OFFCURVE",
"84 168 CURVE SMOOTH",
"55 174 OFFCURVE",
"44 196 OFFCURVE",
"44 223 CURVE SMOOTH",
"44 292 OFFCURVE",
"147 412 OFFCURVE",
"230 470 CURVE SMOOTH",
"268 495 OFFCURVE",
"317 515 OFFCURVE",
"363 515 CURVE SMOOTH",
"391 515 OFFCURVE",
"418 505 OFFCURVE",
"436 482 CURVE SMOOTH",
"458 455 OFFCURVE",
"465 412 OFFCURVE",
"465 367 CURVE SMOOTH",
"465 315 OFFCURVE",
"455 257 OFFCURVE",
"448 215 CURVE SMOOTH",
"441 175 OFFCURVE",
"431 134 OFFCURVE",
"418 94 CURVE"
);
}
);
width = 541;
}
);
note = J;
unicode = 004A;
},
{
color = 3;
glyphname = Jcircumflex;
lastChange = "2021-04-20 18:52:15 +0000";
layers = (
{
hints = (
{
horizontal = 1;
place = "{-301, 28}";
type = Stem;
},
{
horizontal = 1;
place = "{82, 23}";
type = Stem;
},
{
horizontal = 1;
place = "{151, 21}";
target = up;
type = BottomGhost;
},
{
horizontal = 1;
place = "{519, 21}";
target = up;
type = BottomGhost;
},
{
place = "{-100, 37}";
type = Stem;
},
{
place = "{2, 28}";
type = Stem;
},
{
place = "{496, 40}";
type = Stem;
}
);
layerId = "57DEED6F-9A00-47D0-BD9B-6FE09716AB2D";
paths = (
{
closed = 1;
nodes = (
"539 606 LINE",
"508 637 OFFCURVE",
"483 664 OFFCURVE",
"476 678 CURVE SMOOTH",
"466 696 OFFCURVE",
"447 678 OFFCURVE",
"402 648 CURVE SMOOTH",
"365 623 OFFCURVE",
"346 609 OFFCURVE",
"345 604 CURVE SMOOTH",
"343 599 OFFCURVE",
"345 597 OFFCURVE",
"349 597 CURVE SMOOTH",
"355 597 OFFCURVE",
"389 617 OFFCURVE",
"450 658 CURVE",
"456 649 OFFCURVE",
"468 636 OFFCURVE",
"489 620 CURVE SMOOTH",
"490 619 OFFCURVE",
"509 602 OFFCURVE",
"523 596 CURVE SMOOTH",
"532 592 OFFCURVE",
"542 597 OFFCURVE",
"540 602 CURVE SMOOTH"
);
},
{
closed = 1;
nodes = (
"320 77 OFFCURVE",
"202 36 OFFCURVE",
"97 -26 CURVE SMOOTH",
"-25 -97 OFFCURVE",
"-92 -173 OFFCURVE",
"-101 -250 CURVE",
"-101 -262 LINE SMOOTH",
"-101 -290 OFFCURVE",
"-92 -311 OFFCURVE",
"-71 -329 CURVE SMOOTH",
"-50 -347 OFFCURVE",
"-21 -356 OFFCURVE",
"13 -356 CURVE SMOOTH",
"19 -356 LINE SMOOTH",
"191 -346 OFFCURVE",
"378 -154 OFFCURVE",
"457 74 CURVE",
"466 76 OFFCURVE",
"473 76 OFFCURVE",
"482 76 CURVE SMOOTH",
"492 76 OFFCURVE",
"511 76 OFFCURVE",
"516 74 CURVE",
"525 67 LINE",
"528 67 OFFCURVE",
"530 70 OFFCURVE",
"530 77 CURVE SMOOTH",
"530 93 OFFCURVE",
"514 97 OFFCURVE",
"474 97 CURVE SMOOTH",
"465 97 LINE",
"477 134 OFFCURVE",
"485 170 OFFCURVE",
"490 205 CURVE SMOOTH",
"492 215 LINE SMOOTH",
"497 254 OFFCURVE",
"503 302 OFFCURVE",
"503 349 CURVE SMOOTH",
"503 410 OFFCURVE",
"494 468 OFFCURVE",
"459 499 CURVE SMOOTH",
"434 522 OFFCURVE",
"399 533 OFFCURVE",
"363 534 CURVE SMOOTH",
"359 534 LINE SMOOTH",
"307 534 OFFCURVE",
"252 516 OFFCURVE",
"211 492 CURVE SMOOTH",
"120 437 OFFCURVE",
"18 318 OFFCURVE",
"18 235 CURVE SMOOTH",
"18 194 OFFCURVE",
"36 162 OFFCURVE",
"77 149 CURVE SMOOTH",
"87 145 OFFCURVE",
"98 144 OFFCURVE",
"110 144 CURVE SMOOTH",
"128 144 OFFCURVE",
"148 147 OFFCURVE",
"166 152 CURVE SMOOTH",
"190 161 OFFCURVE",
"236 187 OFFCURVE",
"260 215 CURVE SMOOTH",
"266 223 OFFCURVE",
"270 228 OFFCURVE",
"270 234 CURVE SMOOTH",
"270 238 OFFCURVE",
"269 239 OFFCURVE",
"267 239 CURVE SMOOTH",
"262 239 LINE SMOOTH",
"261 239 OFFCURVE",
"221 206 OFFCURVE",
"188 187 CURVE SMOOTH",
"164 173 OFFCURVE",
"140 165 OFFCURVE",
"114 165 CURVE SMOOTH",
"104 165 OFFCURVE",
"95 166 OFFCURVE",
"84 168 CURVE SMOOTH",
"55 174 OFFCURVE",
"44 196 OFFCURVE",
"44 223 CURVE SMOOTH",
"44 292 OFFCURVE",
"147 412 OFFCURVE",
"230 470 CURVE SMOOTH",
"268 495 OFFCURVE",
"317 515 OFFCURVE",
"363 515 CURVE SMOOTH",
"391 515 OFFCURVE",
"418 505 OFFCURVE",
"436 482 CURVE SMOOTH",
"458 455 OFFCURVE",
"465 412 OFFCURVE",
"465 367 CURVE SMOOTH",
"465 315 OFFCURVE",
"455 257 OFFCURVE",
"448 215 CURVE SMOOTH",
"441 175 OFFCURVE",
"431 134 OFFCURVE",
"418 94 CURVE"
);
},
{
closed = 1;
nodes = (
"365 -70 OFFCURVE",
"278 -196 OFFCURVE",
"170 -280 CURVE SMOOTH",
"118 -320 OFFCURVE",
"71 -338 OFFCURVE",
"24 -341 CURVE SMOOTH",
"-6 -341 OFFCURVE",
"-29 -333 OFFCURVE",
"-46 -316 CURVE SMOOTH",
"-61 -303 OFFCURVE",
"-69 -286 OFFCURVE",
"-69 -264 CURVE SMOOTH",
"-69 -261 OFFCURVE",
"-69 -257 OFFCURVE",
"-68 -252 CURVE SMOOTH",
"-62 -201 OFFCURVE",
"-27 -149 OFFCURVE",
"35 -95 CURVE SMOOTH",
"75 -60 OFFCURVE",
"122 -27 OFFCURVE",
"199 7 CURVE SMOOTH",
"276 42 OFFCURVE",
"359 66 OFFCURVE",
"412 74 CURVE"
);
}
);
width = 552;
}
);
note = Jcircumflex;
unicode = 0134;
},
{
color = 3;
glyphname = K;
lastChange = "2021-04-20 18:52:15 +0000";
layers = (
{
hints = (
{
horizontal = 1;
place = "{-68, 19}";
type = Stem;
},
{
horizontal = 1;
place = "{-24, 23}";
type = Stem;
},
{
horizontal = 1;
place = "{514, 25}";
type = Stem;
},
{
place = "{-30, 31}";
type = Stem;
},
{
place = "{471, 42}";
type = Stem;
},
{
place = "{710, 20}";
type = Stem;
}
);
layerId = "57DEED6F-9A00-47D0-BD9B-6FE09716AB2D";
paths = (
{
closed = 1;
nodes = (
"751 488 OFFCURVE",
"748 493 OFFCURVE",
"740 493 CURVE SMOOTH",
"735 493 OFFCURVE",
"732 490 OFFCURVE",
"730 483 CURVE SMOOTH",
"725 467 OFFCURVE",
"720 456 OFFCURVE",
"717 450 CURVE SMOOTH",
"679 377 OFFCURVE",
"591 309 OFFCURVE",
"454 246 CURVE",
"493 333 OFFCURVE",
"513 406 OFFCURVE",
"513 466 CURVE SMOOTH",
"513 515 OFFCURVE",
"496 539 OFFCURVE",
"462 539 CURVE SMOOTH",
"450 539 OFFCURVE",
"434 536 OFFCURVE",
"415 528 CURVE SMOOTH",
"392 519 OFFCURVE",
"381 510 OFFCURVE",
"381 501 CURVE SMOOTH",
"381 495 OFFCURVE",
"383 492 OFFCURVE",
"388 492 CURVE SMOOTH",
"389 492 OFFCURVE",
"396 496 OFFCURVE",
"409 503 CURVE SMOOTH",
"422 510 OFFCURVE",
"433 514 OFFCURVE",
"442 514 CURVE SMOOTH",
"461 514 OFFCURVE",
"471 498 OFFCURVE",
"471 466 CURVE SMOOTH",
"471 415 OFFCURVE",
"454 349 OFFCURVE",
"421 269 CURVE",
"408 292 OFFCURVE",
"394 322 OFFCURVE",
"379 359 CURVE SMOOTH",
"378 362 OFFCURVE",
"376 364 OFFCURVE",
"374 364 CURVE SMOOTH",
"369 364 OFFCURVE",
"365 357 OFFCURVE",
"361 343 CURVE SMOOTH",
"357 330 OFFCURVE",
"355 320 OFFCURVE",
"355 313 CURVE SMOOTH",
"355 302 OFFCURVE",
"371 275 OFFCURVE",
"402 230 CURVE",
"363 157 OFFCURVE",
"319 95 OFFCURVE",
"270 47 CURVE SMOOTH",
"205 -17 OFFCURVE",
"139 -49 OFFCURVE",
"73 -49 CURVE SMOOTH",
"25 -49 OFFCURVE",
"1 -28 OFFCURVE",
"1 14 CURVE SMOOTH",
"1 47 OFFCURVE",
"14 80 OFFCURVE",
"41 114 CURVE SMOOTH",
"85 170 OFFCURVE",
"145 213 OFFCURVE",
"220 241 CURVE SMOOTH",
"229 245 OFFCURVE",
"234 248 OFFCURVE",
"234 252 CURVE SMOOTH",
"234 257 OFFCURVE",
"231 259 OFFCURVE",
"225 259 CURVE SMOOTH",
"180 259 OFFCURVE",
"126 231 OFFCURVE",
"65 176 CURVE SMOOTH",
"2 119 OFFCURVE",
"-30 68 OFFCURVE",
"-30 21 CURVE SMOOTH",
"-30 -8 OFFCURVE",
"-18 -31 OFFCURVE",
"6 -47 CURVE SMOOTH",
"26 -61 OFFCURVE",
"52 -68 OFFCURVE",
"83 -68 CURVE SMOOTH",
"150 -68 OFFCURVE",
"218 -39 OFFCURVE",
"286 19 CURVE SMOOTH",
"341 66 OFFCURVE",
"388 125 OFFCURVE",
"428 195 CURVE",
"466 145 OFFCURVE",
"504 101 OFFCURVE",
"543 63 CURVE SMOOTH",
"602 5 OFFCURVE",
"649 -24 OFFCURVE",
"684 -24 CURVE SMOOTH",
"697 -24 OFFCURVE",
"708 -19 OFFCURVE",
"717 -10 CURVE SMOOTH",
"726 -1 OFFCURVE",
"730 11 OFFCURVE",
"730 25 CURVE SMOOTH",
"730 52 OFFCURVE",
"724 65 OFFCURVE",
"713 65 CURVE SMOOTH",
"708 65 OFFCURVE",
"705 62 OFFCURVE",
"705 56 CURVE SMOOTH",
"705 54 OFFCURVE",
"706 49 OFFCURVE",
"708 41 CURVE SMOOTH",
"709 34 OFFCURVE",
"710 28 OFFCURVE",
"710 24 CURVE SMOOTH",
"710 7 OFFCURVE",
"702 -1 OFFCURVE",
"687 -1 CURVE SMOOTH",
"658 -1 OFFCURVE",
"615 30 OFFCURVE",
"556 92 CURVE SMOOTH",
"513 138 OFFCURVE",
"477 182 OFFCURVE",
"449 223 CURVE",
"646 308 OFFCURVE",
"751 392 OFFCURVE",
"751 478 CURVE SMOOTH"
);
}
);
width = 731;
}
);
note = K;
unicode = 004B;
},
